<svg clip-rule="evenodd" fill-rule="evenodd" height="500" image-rendering="optimizeQuality" shape-rendering="geometricPrecision" text-rendering="geometricPrecision" viewBox="0 0 7764000 10303000" width="377" xmlns="http://www.w3.org/2000/svg"><rect fill="#c7e0b7" height="5151000" rx="203000" width="7764000" y="5151000"/><rect fill="#133c4e" height="2635000" rx="435000" width="869000" x="222000" y="5300000"/><path d="m1413000 5300000h5683000c32000 0 61000 13000 82000 34000 20000 21000 34000 50000 34000 82000v1810000c0 32000-14000 61000-34000 81000-21000 21000-50000 35000-82000 35000h-5683000c-32000 0-61000-13000-82000-34000s-34000-50000-34000-82000v-1810000c0-32000 13000-61000 34000-82000s50000-34000 82000-34000zm5683000 18000h-5683000c-27000 0-51000 11000-69000 29000-17000 17000-28000 42000-28000 69000v1810000c0 27000 11000 51000 28000 69000 18000 17000 42000 28000 69000 28000h5683000c27000 0 51000-11000 69000-28000 17000-18000 28000-42000 28000-69000v-1810000c0-27000-11000-52000-28000-69000-18000-18000-42000-29000-69000-29000z" fill="#706d6d" fill-rule="nonzero"/><path d="m7437000 5300000c-60000 0-110000 49000-110000 110000v4097000h-5636000c-119000 0-217000 98000-217000 217000 0 119000 98000 216000 217000 216000h5636000v118000c0 60000 50000 110000 110000 110000 60000 0 110000-49000 110000-110000v-4648000c0-61000-50000-110000-110000-110000z" fill="#133c4e"/><path d="m6937000 5546000h-5366000c-29000 0-52000-24000-52000-53000s23000-53000 52000-53000h5366000c30000 0 53000 24000 53000 53000s-24000 53000-53000 53000z" fill="#93b99f"/><path d="m5101000 8510000h-3365000c-29000 0-52000-24000-52000-53000s23000-53000 52000-53000h3365000c29000 0 52000 24000 52000 53000s-24000 53000-52000 53000z" fill="#93b99f"/><path d="m6948000 8510000h-1072000c-29000 0-53000-24000-53000-53000s24000-53000 53000-53000h1072000c29000 0 52000 24000 52000 53000s-23000 53000-52000 53000z" fill="#93b99f"/><rect fill="#93b99f" height="38000" rx="19000" width="4373000" x="1482000" y="7876000"/><rect fill="#93b99f" height="38000" rx="19000" width="4373000" x="1482000" y="9238000"/><path d="m1345000 8261000h4146000c14000 0 26000 6000 34000 14000 9000 9000 14000 21000 14000 34000v296000c0 13000-5000 25000-14000 34000-8000 8000-20000 14000-34000 14000h-4146000c-13000 0-25000-6000-33000-14000-9000-9000-15000-21000-15000-34000v-296000c0-13000 6000-25000 14000-34000 9000-8000 21000-14000 34000-14000zm4146000 19000h-4146000c-8000 0-15000 3000-21000 8000-5000 6000-8000 13000-8000 21000v296000c0 8000 3000 15000 8000 21000 6000 5000 13000 9000 21000 9000h4146000c9000 0 16000-4000 21000-9000 6000-6000 9000-13000 9000-21000v-296000c0-8000-3000-15000-9000-21000-5000-5000-12000-8000-21000-8000z" fill="#706d6d" fill-rule="nonzero"/><path d="m5660000 8261000h1503000c14000 0 26000 6000 34000 14000 9000 9000 15000 21000 15000 34000v296000c0 13000-6000 25000-15000 34000-8000 8000-20000 14000-34000 14000h-1503000c-13000 0-25000-6000-34000-14000-9000-9000-14000-21000-14000-34000v-296000c0-13000 5000-25000 14000-34000 9000-8000 21000-14000 34000-14000zm1503000 19000h-1503000c-8000 0-16000 3000-21000 8000-5000 6000-9000 13000-9000 21000v296000c0 8000 4000 15000 9000 21000 5000 5000 13000 9000 21000 9000h1503000c9000 0 16000-4000 21000-9000 6000-6000 9000-13000 9000-21000v-296000c0-8000-3000-15000-9000-21000-5000-5000-12000-8000-21000-8000z" fill="#706d6d" fill-rule="nonzero"/><rect fill="#c7e0b7" height="5151000" rx="203000" width="7764000"/><path d="m222000 2085000v-656000-992000-8000c0-135000 110000-245000 244000-245000h380000 6076000 380000c135000 0 245000 110000 245000 245000v4371000 58000c0 60000-50000 109000-110000 109000-60000 0-110000-49000-110000-109000v-58000-3806000h-6236000v435000 658000 287000c0 239000-196000 435000-435000 435000-239000 0-434000-196000-434000-435000v-287000z" fill="#133c4e"/><g fill="#706d6d" fill-rule="nonzero"><path d="m1496000 1150000h5199000c14000 0 27000 6000 36000 15000 10000 10000 15000 22000 15000 37000v320000c0 14000-5000 27000-15000 36000-9000 10000-22000 16000-36000 16000h-5199000c-14000 0-27000-6000-36000-16000-9000-9000-15000-22000-15000-36000v-320000c0-15000 6000-27000 15000-37000 9000-9000 22000-15000 36000-15000zm5199000 18000h-5199000c-9000 0-17000 4000-23000 10000s-10000 14000-10000 24000v320000c0 9000 4000 18000 10000 24000s14000 9000 23000 9000h5199000c9000 0 17000-3000 23000-9000s10000-15000 10000-24000v-320000c0-10000-4000-18000-10000-24000s-14000-10000-23000-10000z"/><path d="m3992000 1826000h2717000c10000 0 19000 4000 26000 11000s11000 17000 11000 27000v216000c0 10000-4000 20000-11000 26000-7000 7000-16000 11000-26000 11000h-2717000c-10000 0-19000-4000-26000-11000-7000-6000-11000-16000-11000-26000v-216000c0-10000 4000-20000 11000-27000s16000-11000 26000-11000zm2717000 19000h-2717000c-5000 0-10000 2000-13000 5000-4000 4000-6000 9000-6000 14000v216000c0 5000 2000 10000 6000 13000 3000 4000 8000 6000 13000 6000h2717000c5000 0 10000-2000 13000-6000 4000-3000 6000-8000 6000-13000v-216000c0-5000-2000-10000-6000-14000-3000-3000-8000-5000-13000-5000z"/><path d="m3992000 2341000h1712000c11000 0 20000 4000 27000 11000s11000 16000 11000 27000v216000c0 10000-4000 19000-11000 26000s-16000 11000-27000 11000h-1712000c-10000 0-19000-4000-26000-11000s-11000-16000-11000-26000v-216000c0-11000 4000-20000 11000-27000s16000-11000 26000-11000zm1712000 18000h-1712000c-5000 0-10000 3000-13000 6000-4000 3000-6000 8000-6000 14000v216000c0 5000 2000 10000 6000 13000 3000 4000 8000 6000 13000 6000h1712000c6000 0 11000-2000 14000-6000 4000-3000 6000-8000 6000-13000v-216000c0-6000-2000-11000-6000-14000-3000-3000-8000-6000-14000-6000z"/><path d="m5925000 2341000h784000c10000 0 19000 4000 26000 11000s11000 16000 11000 27000v216000c0 10000-4000 19000-11000 26000s-16000 11000-26000 11000h-784000c-11000 0-20000-4000-27000-11000s-11000-16000-11000-26000v-216000c0-11000 4000-20000 11000-27000s16000-11000 27000-11000zm784000 18000h-784000c-5000 0-10000 3000-14000 6000-3000 3000-5000 8000-5000 14000v216000c0 5000 2000 10000 5000 13000 4000 4000 9000 6000 14000 6000h784000c5000 0 10000-2000 13000-6000 4000-3000 6000-8000 6000-13000v-216000c0-6000-2000-11000-6000-14000-3000-3000-8000-6000-13000-6000z"/><path d="m4070000 2756000h2561000c31000 0 60000 13000 81000 34000s34000 50000 34000 81000v872000c0 32000-13000 61000-34000 81000-21000 21000-50000 34000-81000 34000h-2561000c-31000 0-60000-13000-81000-34000s-34000-49000-34000-81000v-872000c0-31000 13000-60000 34000-81000s50000-34000 81000-34000zm2561000 18000h-2561000c-26000 0-51000 11000-68000 29000-18000 17000-29000 42000-29000 68000v872000c0 27000 11000 51000 29000 69000 17000 17000 42000 28000 68000 28000h2561000c26000 0 51000-11000 68000-28000 18000-18000 29000-42000 29000-69000v-872000c0-26000-11000-51000-29000-68000-17000-18000-42000-29000-68000-29000z"/><path d="m1492000 4474000h2155000c10000 0 20000 5000 26000 11000 7000 7000 11000 17000 11000 27000v216000c0 10000-4000 20000-11000 26000-6000 7000-16000 11000-26000 11000h-2155000c-11000 0-20000-4000-27000-11000-7000-6000-11000-16000-11000-26000v-216000c0-10000 4000-20000 11000-27000 7000-6000 16000-11000 27000-11000zm2155000 19000h-2155000c-6000 0-11000 2000-14000 5000-3000 4000-6000 9000-6000 14000v216000c0 5000 3000 10000 6000 14000 3000 3000 8000 5000 14000 5000h2155000c5000 0 10000-2000 14000-5000 3000-4000 5000-9000 5000-14000v-216000c0-5000-2000-10000-5000-14000-4000-3000-9000-5000-14000-5000z"/><path d="m3992000 4474000h1257000c10000 0 19000 5000 26000 11000 7000 7000 11000 17000 11000 27000v216000c0 10000-4000 20000-11000 26000-7000 7000-16000 11000-26000 11000h-1257000c-10000 0-19000-4000-26000-11000-7000-6000-11000-16000-11000-26000v-216000c0-10000 4000-20000 11000-27000 7000-6000 16000-11000 26000-11000zm1257000 19000h-1257000c-5000 0-10000 2000-13000 5000-4000 4000-6000 9000-6000 14000v216000c0 5000 2000 10000 6000 14000 3000 3000 8000 5000 13000 5000h1257000c5000 0 10000-2000 13000-5000 4000-4000 6000-9000 6000-14000v-216000c0-5000-2000-10000-6000-14000-3000-3000-8000-5000-13000-5000z"/><path d="m5404000 4474000h1305000c10000 0 19000 5000 26000 11000 7000 7000 11000 17000 11000 27000v216000c0 10000-4000 20000-11000 26000-7000 7000-16000 11000-26000 11000h-1305000c-11000 0-20000-4000-27000-11000-7000-6000-11000-16000-11000-26000v-216000c0-10000 4000-20000 11000-27000 7000-6000 16000-11000 27000-11000zm1305000 19000h-1305000c-6000 0-10000 2000-14000 5000-3000 4000-6000 9000-6000 14000v216000c0 5000 3000 10000 6000 14000 4000 3000 8000 5000 14000 5000h1305000c5000 0 10000-2000 13000-5000 4000-4000 6000-9000 6000-14000v-216000c0-5000-2000-10000-6000-14000-3000-3000-8000-5000-13000-5000z"/><path d="m5404000 4042000h589000c11000 0 20000 4000 27000 11000s11000 16000 11000 26000v216000c0 11000-4000 20000-11000 27000s-16000 11000-27000 11000h-589000c-11000 0-20000-4000-27000-11000s-11000-16000-11000-27000v-216000c0-10000 4000-19000 11000-26000s16000-11000 27000-11000zm589000 18000h-589000c-6000 0-10000 2000-14000 6000-3000 3000-6000 8000-6000 13000v216000c0 6000 3000 11000 6000 14000 4000 4000 8000 6000 14000 6000h589000c6000 0 11000-3000 14000-6000 4000-3000 6000-8000 6000-14000v-216000c0-5000-2000-10000-6000-13000-3000-4000-8000-6000-14000-6000z"/><path d="m6119000 4042000h590000c10000 0 19000 4000 26000 11000s11000 16000 11000 26000v216000c0 11000-4000 20000-11000 27000s-16000 11000-26000 11000h-590000c-10000 0-20000-4000-27000-11000-6000-7000-11000-16000-11000-27000v-216000c0-10000 5000-19000 11000-26000 7000-7000 17000-11000 27000-11000zm590000 18000h-590000c-5000 0-10000 2000-14000 6000-3000 3000-5000 8000-5000 13000v216000c0 6000 2000 11000 5000 14000 4000 3000 9000 6000 14000 6000h590000c5000 0 10000-3000 13000-6000 4000-3000 6000-8000 6000-14000v-216000c0-5000-2000-10000-6000-13000-3000-4000-8000-6000-13000-6000z"/><path d="m3992000 4042000h1257000c10000 0 19000 4000 26000 11000s11000 16000 11000 26000v216000c0 11000-4000 20000-11000 27000s-16000 11000-26000 11000h-1257000c-10000 0-19000-4000-26000-11000s-11000-16000-11000-27000v-216000c0-10000 4000-19000 11000-26000s16000-11000 26000-11000zm1257000 18000h-1257000c-5000 0-10000 2000-13000 6000-4000 3000-6000 8000-6000 13000v216000c0 6000 2000 11000 6000 14000 3000 3000 8000 6000 13000 6000h1257000c5000 0 10000-2000 13000-6000 4000-3000 6000-8000 6000-14000v-216000c0-5000-2000-10000-6000-13000-3000-4000-8000-6000-13000-6000z"/></g><path d="m1446000 1716000h2295000v2692000h-2295000z" fill="#e6e6e6"/><path d="m1446000 4408000h2295000c0-111000 0-222000 0-333000-245000-184000-505000-329000-870000-401000-52000-10000-75000-173000-55000-196000 161000-135000 222000-275000 243000-441000 149000-33000 193000-374000 77000-359000 19000-162000 39000-325000-9000-481000-57000-153000-163000-258000-327000-304000-72000-20000-138000-32000-207000-32000-68000 0-134000 12000-206000 32000-164000 46000-270000 151000-327000 304000-48000 156000-28000 319000-9000 481000-116000-15000-72000 326000 77000 359000 21000 166000 82000 306000 243000 441000 20000 23000-3000 186000-55000 196000-365000 72000-625000 217000-870000 401000z" fill="#999"/><path d="m3834000 1415000h-2220000c-29000 0-52000-24000-52000-53000s23000-53000 52000-53000h2220000c29000 0 53000 24000 53000 53000s-24000 53000-53000 53000z" fill="#93b99f"/><path d="m6461000 2024000h-2220000c-29000 0-52000-23000-52000-52000s23000-53000 52000-53000h2220000c29000 0 53000 24000 53000 53000s-24000 52000-53000 52000z" fill="#93b99f"/><path d="m5482000 2539000h-1268000c-29000 0-52000-23000-52000-52000s23000-53000 53000-53000h1267000c29000 0 53000 24000 53000 53000s-24000 52000-53000 52000z" fill="#93b99f"/><path d="m6585000 2539000h-536000c-29000 0-53000-23000-53000-52000s24000-53000 53000-53000h536000c29000 0 52000 24000 52000 53000s-23000 52000-52000 52000z" fill="#93b99f"/><path d="m6461000 2998000h-2220000c-29000 0-52000-23000-52000-53000 0-29000 23000-52000 52000-52000h2220000c29000 0 53000 23000 53000 52000 0 30000-24000 53000-53000 53000z" fill="#93b99f"/><path d="m5156000 4240000h-1072000c-29000 0-52000-24000-52000-53000s23000-52000 52000-52000h1072000c30000 0 53000 23000 53000 52000s-24000 53000-53000 53000z" fill="#93b99f"/><path d="m5156000 4673000h-1072000c-29000 0-52000-24000-52000-53000s23000-53000 52000-53000h1072000c30000 0 53000 24000 53000 53000s-24000 53000-53000 53000z" fill="#93b99f"/><path d="m6592000 4673000h-1072000c-29000 0-52000-24000-52000-53000s23000-53000 52000-53000h1072000c29000 0 53000 24000 53000 53000s-24000 53000-53000 53000z" fill="#93b99f"/><path d="m5849000 4240000h-301000c-29000 0-52000-24000-52000-53000s23000-52000 52000-52000h301000c29000 0 53000 23000 53000 52000s-24000 53000-53000 53000z" fill="#93b99f"/><path d="m6564000 4240000h-300000c-30000 0-53000-24000-53000-53000s23000-52000 53000-52000h300000c29000 0 53000 23000 53000 52000s-24000 53000-53000 53000z" fill="#93b99f"/><path d="m3439000 4657000h-1746000c-29000 0-53000-24000-53000-53000s24000-52000 53000-52000l1746000-1000c29000 1000 52000 24000 52000 53000s-23000 53000-52000 53000z" fill="#93b99f"/></svg>