<svg clip-rule="evenodd" fill-rule="evenodd" height="332" image-rendering="optimizeQuality" shape-rendering="geometricPrecision" text-rendering="geometricPrecision" viewBox="0 0 119955000 79595000" width="500" xmlns="http://www.w3.org/2000/svg"><rect fill="#f2e2e1" height="79595000" rx="3138000" width="119955000"/><g fill="#706d6d" fill-rule="nonzero"><path d="m23121000 17772000h80324000c217000 0 415000 89000 559000 233000s234000 342000 234000 560000v4955000c0 218000-90000 417000-233000 560000-144000 144000-342000 233000-560000 233000h-80324000c-218000 0-416000-89000-560000-233000s-233000-342000-233000-560000v-4955000c0-218000 89000-416000 233000-560000s342000-233000 560000-233000zm80324000 282000h-80324000c-141000 0-269000 58000-361000 150000-92000 93000-150000 220000-150000 361000v4955000c0 141000 58000 269000 150000 361000s220000 150000 361000 150000h80324000c140000 0 268000-58000 360000-150000 92000-93000 150000-220000 150000-361000v-4955000c0-141000-57000-269000-149000-361000-93000-92000-221000-150000-361000-150000z"/><path d="m61685000 28218000h41972000c160000 0 305000 65000 410000 170000 105000 106000 171000 251000 171000 410000v3338000c0 159000-66000 304000-171000 410000-106000 105000-251000 170000-410000 170000h-41972000c-160000 0-305000-65000-410000-170000-105000-106000-171000-251000-171000-410000v-3338000c0-159000 66000-304000 171000-410000 105000-105000 250000-170000 410000-170000zm41972000 283000h-41972000c-82000 0-157000 33000-211000 87000-53000 54000-87000 129000-87000 210000v3338000c0 81000 34000 156000 87000 210000 54000 54000 129000 87000 211000 87000h41972000c82000 0 157000-33000 211000-87000s87000-129000 87000-210000v-3338000c0-81000-33000-156000-87000-210000s-129000-87000-211000-87000z"/><path d="m23047000 69134000h33301000c160000 0 305000 65000 410000 170000 105000 106000 171000 252000 171000 410000v3338000c0 159000-66000 304000-171000 409000-106000 106000-251000 171000-410000 171000h-33301000c-160000 0-305000-65000-410000-170000-105000-106000-171000-251000-171000-410000v-3338000c0-159000 66000-304000 171000-410000 105000-105000 250000-170000 410000-170000zm33301000 283000h-33301000c-82000 0-157000 33000-210000 87000-54000 54000-88000 129000-88000 210000v3338000c0 82000 34000 156000 87000 210000 54000 54000 129000 88000 211000 88000h33301000c82000 0 157000-34000 211000-88000 53000-54000 87000-128000 87000-210000v-3338000c0-81000-34000-156000-87000-210000-54000-54000-129000-87000-211000-87000z"/><path d="m61684000 69134000h19414000c160000 0 305000 66000 410000 171000 106000 105000 171000 250000 171000 409000v3338000c0 159000-65000 304000-171000 409000-105000 106000-250000 171000-410000 171000h-19414000c-159000 0-304000-65000-409000-170000-106000-106000-171000-251000-171000-410000v-3338000c0-159000 65000-304000 170000-410000 105000-105000 251000-170000 410000-170000zm19414000 283000h-19414000c-82000 0-156000 33000-210000 87000s-87000 129000-87000 210000v3338000c0 82000 33000 156000 87000 210000s128000 88000 210000 88000h19414000c82000 0 157000-34000 211000-88000s87000-128000 87000-210000v-3338000c0-81000-33000-156000-87000-210000s-128000-87000-211000-87000z"/><path d="m83493000 69134000h20164000c160000 0 305000 65000 410000 170000 105000 106000 171000 251000 171000 410000v3338000c0 159000-66000 305000-171000 410000s-251000 170000-410000 170000h-20164000c-159000 0-305000-65000-410000-170000-105000-106000-170000-251000-170000-410000v-3338000c0-159000 65000-304000 170000-410000 105000-105000 251000-170000 410000-170000zm20164000 283000h-20164000c-82000 0-156000 33000-210000 87000s-88000 129000-88000 210000v3338000c0 82000 34000 156000 88000 210000s128000 88000 210000 88000h20164000c82000 0 157000-34000 211000-88000 53000-54000 87000-129000 87000-210000v-3338000c0-81000-34000-156000-87000-210000-55000-54000-129000-87000-211000-87000z"/><path d="m83493000 62451000h9113000c160000 0 305000 66000 410000 171000 105000 106000 171000 251000 171000 410000v3337000c0 159000-66000 304000-171000 409000-106000 106000-251000 172000-410000 172000h-9113000c-159000 0-305000-66000-410000-171000s-170000-250000-170000-410000v-3337000c0-160000 65000-305000 170000-410000s251000-171000 410000-171000zm9113000 283000h-9113000c-82000 0-156000 34000-210000 87000-54000 54000-88000 129000-88000 211000v3337000c0 82000 34000 157000 88000 210000 54000 54000 128000 88000 210000 88000h9113000c82000 0 157000-34000 210000-87000 54000-54000 88000-129000 88000-211000v-3337000c0-82000-34000-157000-87000-211000-55000-53000-129000-87000-211000-87000z"/><path d="m94544000 62451000h9113000c160000 0 305000 66000 410000 171000s171000 251000 171000 410000v3337000c0 159000-66000 305000-171000 410000s-251000 171000-410000 171000h-9113000c-159000 0-304000-66000-409000-171000-106000-105000-171000-250000-171000-410000v-3337000c0-160000 65000-305000 170000-410000s251000-171000 410000-171000zm9113000 283000h-9113000c-82000 0-156000 34000-210000 87000-54000 54000-88000 129000-88000 211000v3337000c0 82000 34000 157000 88000 210000 53000 54000 129000 88000 210000 88000h9113000c82000 0 157000-34000 211000-87000 53000-55000 87000-129000 87000-211000v-3337000c0-82000-33000-157000-87000-211000-55000-53000-129000-87000-211000-87000z"/><path d="m61684000 62451000h19414000c160000 0 305000 66000 410000 171000 106000 105000 171000 250000 171000 410000v3337000c0 160000-65000 305000-171000 410000-105000 105000-250000 171000-410000 171000h-19414000c-159000 0-304000-66000-409000-171000-106000-105000-171000-250000-171000-410000v-3337000c0-160000 65000-305000 170000-410000s251000-171000 410000-171000zm19414000 283000h-19414000c-82000 0-156000 34000-210000 87000-54000 54000-87000 129000-87000 211000v3337000c0 82000 33000 157000 87000 210000 54000 54000 128000 88000 210000 88000h19414000c82000 0 157000-34000 211000-88000 54000-53000 87000-128000 87000-210000v-3337000c0-82000-33000-157000-87000-211000-54000-53000-129000-87000-211000-87000z"/></g><path d="m22338000 26514000h35468000v41596000h-35468000z" fill="#fefefe"/><path d="m22338000 68110000h35468000c0-1716000 0-3433000 0-5150000-3788000-2847000-7804000-5087000-13439000-6194000-813000-159000-1173000-2675000-855000-3025000 2485000-2083000 3433000-4259000 3747000-6820000 2305000-512000 2990000-5772000 1195000-5542000 287000-2506000 607000-5015000-139000-7432000-880000-2365000-2514000-3981000-5056000-4695000-1114000-308000-2125000-505000-3187000-505000s-2073000 197000-3186000 505000c-2543000 714000-4177000 2330000-5057000 4695000-746000 2417000-426000 4926000-139000 7432000-1795000-230000-1110000 5030000 1195000 5542000 314000 2561000 1262000 4737000 3747000 6820000 318000 350000-42000 2866000-855000 3025000-5635000 1107000-9651000 3347000-13439000 6194000z" fill="#999"/><g fill="#ddbdc2"><path d="m59242000 21856000h-34300000c-448000 0-812000-364000-812000-813000s364000-813000 813000-813000l34299000-1000c449000 1000 813000 365000 813000 814000s-364000 813000-813000 813000z"/><path d="m99831000 31280000h-34299000c-449000 0-813000-364000-813000-813000s364000-813000 813000-813000h34299000c450000 0 814000 364000 814000 813000s-365000 813000-814000 813000z"/><path d="m79673000 65514000h-16564000c-449000 0-813000-365000-813000-814000 0-448000 364000-813000 813000-813000h16564000c449000 0 813000 365000 813000 813000 0 449000-366000 814000-813000 814000z"/><path d="m79673000 72197000h-16564000c-449000 0-813000-365000-813000-814000s364000-813000 813000-813000h16564000c449000 0 813000 364000 813000 813000s-366000 814000-813000 814000z"/><path d="m101857000 72197000h-16564000c-449000 0-813000-365000-813000-814000s364000-813000 813000-813000h16564000c449000 0 813000 364000 813000 813000s-366000 814000-813000 814000z"/><path d="m90372000 65514000h-4644000c-449000 0-814000-365000-814000-814000 0-448000 365000-813000 814000-813000h4644000c449000 0 813000 365000 813000 813000 0 449000-367000 814000-813000 814000z"/><path d="m101423000 65514000h-4644000c-449000 0-813000-365000-813000-814000 0-448000 364000-813000 813000-813000h4644000c449000 0 813000 365000 813000 813000 0 449000-367000 814000-813000 814000z"/><path d="m53130000 71952000h-26977000c-449000 0-814000-364000-814000-813000s365000-813000 814000-813000h26977000c449000 0 813000 364000 813000 813000s-366000 813000-813000 813000z"/></g><path d="m3997000 63311000c932000 0 1695000-765000 1695000-1696000v-49220000h106589000c1837000 0 3341000-1504000 3341000-3342000 0-1837000-1505000-3341000-3341000-3341000h-106589000v-1828000c0-931000-763000-1695000-1695000-1695000s-1695000 763000-1695000 1695000v57731000c0 932000 763000 1696000 1695000 1696000z" fill="#7b1018"/><path d="m9017000 5712000c3694000 0 6715000 3023000 6715000 6716000v58263000c0 3693000-3022000 6714000-6715000 6714000s-6715000-3021000-6715000-6714000v-58263000c0-3694000 3022000-6716000 6715000-6716000z" fill="#7b1018"/></svg>