<?xml version="1.0" encoding="UTF-8"?>
<!DOCTYPE svg PUBLIC "-//W3C//DTD SVG 1.1//EN" "http://www.w3.org/Graphics/SVG/1.1/DTD/svg11.dtd">
<!-- Creator: CorelDRAW 2018 (64 Bit Versão de avaliação) -->
<svg xmlns="http://www.w3.org/2000/svg" xml:space="preserve" width="500px" height="332px" version="1.1" style="shape-rendering:geometricPrecision; text-rendering:geometricPrecision; image-rendering:optimizeQuality; fill-rule:evenodd; clip-rule:evenodd"
viewBox="0 0 332100 220360"
 xmlns:xlink="http://www.w3.org/1999/xlink">
 <defs>
  <style type="text/css">
   <![CDATA[
    .fil1 {fill:#133C4E}
    .fil3 {fill:#93B99F}
    .fil0 {fill:#C7E0B7}
    .fil2 {fill:#706D6D;fill-rule:nonzero}
   ]]>
  </style>
 </defs>
 <g id="Camada_x0020_1">
  <metadata id="CorelCorpID_0Corel-Layer"/>
  <g id="_2452894323280">
   <rect class="fil0" width="332090" height="220360" rx="8690" ry="8690"/>
   <rect class="fil1" x="9480" y="6350" width="37180" height="112720" rx="18590" ry="18590"/>
   <path class="fil2" d="M60440 6350l243090 0c1360,0 2600,560 3500,1460 890,890 1450,2130 1450,3490l0 77440c0,1360 -560,2590 -1450,3490 -900,900 -2140,1460 -3500,1460l-243090 0c-1350,0 -2590,-560 -3490,-1460 -900,-890 -1450,-2130 -1450,-3490l0 -77440c0,-1360 550,-2600 1450,-3490 900,-900 2140,-1460 3490,-1460zm243090 790l-243090 0c-1140,0 -2180,470 -2940,1220 -750,750 -1220,1800 -1220,2940l0 77440c0,1140 470,2190 1220,2940 760,750 1800,1220 2940,1220l243090 0c1150,0 2190,-470 2940,-1220 760,-750 1230,-1800 1230,-2940l0 -77440c0,-1140 -470,-2190 -1230,-2940 -750,-750 -1790,-1220 -2940,-1220z"/>
   <path class="fil1" d="M318130 6350l0 0c-2580,0 -4690,2120 -4690,4700l0 175280 -241130 0c-5080,0 -9250,4170 -9250,9250l0 0c0,5090 4170,9250 9250,9250l241130 0 0 5070c0,2570 2110,4690 4690,4690l0 0c2580,0 4690,-2110 4690,-4690l0 -198850c0,-2580 -2110,-4700 -4690,-4700z"/>
   <path class="fil3" d="M296760 16870l-229540 0c-1240,0 -2250,-1010 -2250,-2260 0,-1240 1010,-2250 2250,-2250l229540 0c1240,0 2250,1010 2250,2250 0,1250 -1010,2260 -2250,2260z"/>
   <path class="fil3" d="M218180 143660l-143910 0c-1240,0 -2250,-1010 -2250,-2250 0,-1250 1010,-2250 2250,-2250l143910 0c1240,0 2250,1000 2250,2250 0,1240 -1010,2250 -2250,2250z"/>
   <path class="fil3" d="M297200 143660l-45860 0c-1240,0 -2250,-1010 -2250,-2250 0,-1250 1010,-2250 2250,-2250l45860 0c1240,0 2250,1000 2250,2250 0,1240 -1010,2250 -2250,2250z"/>
   <rect class="fil3" x="63400" y="116550" width="187040" height="1640" rx="820" ry="820"/>
   <rect class="fil3" x="63400" y="174830" width="187040" height="1640" rx="820" ry="820"/>
   <path class="fil2" d="M57550 133030l177350 0c570,0 1080,230 1450,610 380,370 610,880 610,1450l0 12640c0,560 -230,1070 -610,1450 -370,370 -880,600 -1450,600l-177350 0c-560,0 -1080,-230 -1450,-600 -370,-380 -600,-890 -600,-1450l0 -12640c0,-570 230,-1080 600,-1450 370,-380 890,-610 1450,-610zm177350 780l-177350 0c-350,0 -670,150 -900,380 -230,230 -370,550 -370,900l0 12640c0,350 140,670 370,900 230,230 550,370 900,370l177350 0c350,0 670,-140 900,-370 230,-230 380,-550 380,-900l0 -12640c0,-350 -150,-670 -380,-900 -230,-230 -550,-380 -900,-380z"/>
   <path class="fil2" d="M242110 133030l64320 0c560,0 1080,230 1450,610 370,370 600,880 600,1450l0 12640c0,560 -230,1070 -600,1450 -370,370 -890,600 -1450,600l-64320 0c-560,0 -1080,-230 -1450,-600 -370,-370 -600,-890 -600,-1450l0 -12640c0,-570 230,-1080 600,-1450 370,-380 890,-610 1450,-610zm64320 780l-64320 0c-350,0 -670,150 -900,380 -230,230 -370,550 -370,900l0 12640c0,350 140,660 370,900 230,230 550,370 900,370l64320 0c350,0 660,-140 890,-370 240,-230 380,-550 380,-900l0 -12640c0,-350 -140,-670 -370,-900 -240,-230 -550,-380 -900,-380z"/>
  </g>
 </g>
</svg>
