<svg clip-rule="evenodd" fill-rule="evenodd" height="500" image-rendering="optimizeQuality" shape-rendering="geometricPrecision" text-rendering="geometricPrecision" viewBox="0 0 322600 388830" width="415" xmlns="http://www.w3.org/2000/svg"><path d="m299980 8380v311110 15020 45930 220l-10 210-10 210-20 220-20 210h-10l-20 200v10l-40 200-40 210-40 200-50 200-50 200h-10l-50 200-70 190-60 200h-10l-70 190-70 190h-10l-80 180-80 190-90 180-100 180-90 180h-10l-100 170-100 170-110 170-120 170-120 160-120 160-130 160-120 150h-10l-130 150-130 150-140 140h-10l-140 140-140 140h-10l-150 130-150 130-150 130-160 120-170 120-160 110-170 120-170 100-170 110h-10l-170 100-180 90-180 90-190 90-180 80-190 80-190 70-190 70-200 60-200 60-200 60-200 50-200 40-210 40-200 40-210 20v10l-210 20-210 20-220 10-210 10h-210v10h-45960-3550-211140c-4620-20-8360-3770-8360-8390v-372060c0-4620 3740-8370 8360-8380h260620c4630 0 8380 3750 8380 8380z" fill="#e6e6e6"/><path d="m299980 22630v296860 15020 45930 220l-10 210-10 210-20 220-20 210h-10l-20 200v10l-40 200-40 210-40 200-50 200-50 200h-10l-50 200-70 190-60 200h-10l-70 190-70 190h-10l-80 180-80 190-90 180-100 180-90 180h-10l-100 170-100 170-110 170-120 170-120 160-120 160-130 160-120 150h-10l-130 150-130 150-140 140h-10l-140 140-140 140h-10l-150 130-150 130-150 130-160 120-170 120-160 110-170 120-170 100-170 110h-10l-170 100-180 90-180 90-190 90-180 80-190 80-190 70-190 70-200 60-200 60-200 60-200 50-200 40-210 40-200 40-210 20v10l-210 20-210 20-220 10-210 10h-210v10h-45960-3550-211140c-4620-20-8360-3770-8360-8390v-357810z" fill="#fff" fill-opacity=".6"/><path d="m179980 49260h-53030c-1440 0-2610-1170-2610-2600 0-1440 1170-2610 2610-2610h53030c1440 0 2610 1170 2610 2610 0 1430-1170 2600-2610 2600z" fill="#2a8c1f"/><path d="m201800 63370h-96590c-1440 0-2610-1160-2610-2600s1170-2600 2610-2600l96590-10c1440 10 2600 1170 2600 2610s-1160 2600-2600 2600z" fill="#5cba51"/><path d="m180760 77610h-54470c-1430 0-2600-1160-2600-2600s1170-2600 2600-2600h54680c1440 0 2600 1160 2600 2600s-1160 2600-2600 2600z" fill="#2a8c1f"/><path d="m264420 115260h-190200c-1440 0-2600-1160-2600-2600s1160-2610 2600-2610h190070c1440 0 2600 1170 2600 2610s-1160 2600-2600 2600z" fill="#5cba51"/><path d="m232630 172150h-190070c-1440 0-2600-1160-2600-2600s1160-2600 2600-2600l190070-10c1440 10 2600 1170 2600 2610s-1160 2600-2600 2600z" fill="#5cba51"/><path d="m264420 129480h-221910c-1440 0-2600-1170-2600-2600 0-1440 1160-2610 2600-2610h221910c1440 0 2600 1170 2600 2610 0 1430-1160 2600-2600 2600z" fill="#5cba51"/><path d="m264420 143720h-221910c-1440 0-2600-1170-2600-2600 0-1440 1160-2610 2600-2610h221910c1440 0 2600 1170 2600 2610 0 1430-1160 2600-2600 2600z" fill="#5cba51"/><path d="m264420 157940h-221910c-1440 0-2600-1170-2600-2610s1160-2600 2600-2600h221910c1440 0 2600 1160 2600 2600s-1160 2610-2600 2610z" fill="#5cba51"/><path d="m264420 258460h-190200c-1440 0-2600-1160-2600-2600s1160-2600 2600-2600h190070c1440 0 2600 1160 2600 2600s-1160 2600-2600 2600z" fill="#5cba51"/><path d="m232630 315350h-190070c-1440 0-2600-1170-2600-2600 0-1440 1160-2610 2600-2610h190070c1440 0 2600 1170 2600 2610 0 1430-1160 2600-2600 2600z" fill="#5cba51"/><path d="m264420 272680h-221910c-1440 0-2600-1170-2600-2610 0-1430 1160-2600 2600-2600h221910c1440 0 2600 1170 2600 2600 0 1440-1160 2610-2600 2610z" fill="#5cba51"/><path d="m264420 286920h-221910c-1440 0-2600-1170-2600-2600 0-1440 1160-2610 2600-2610h221910c1440 0 2600 1170 2600 2610 0 1430-1160 2600-2600 2600z" fill="#5cba51"/><path d="m264420 301140h-221910c-1440-10-2600-1170-2600-2610s1160-2600 2600-2600h221910c1440 0 2600 1160 2600 2600s-1160 2600-2600 2600z" fill="#5cba51"/><path d="m237780 43430h26640v35460h-26640z" fill="#5cba51"/><circle cx="57300" cy="58190" fill="#5cba51" r="14760"/><path d="m41680 190770c140 1610 1490 2840 3110 2840 1610 0 2960-1230 3110-2840 10-100 10-190 10-290 0-1720-1400-3120-3120-3120-1730 0-3130 1400-3130 3120 0 100 10 190 20 290z" fill="#2a8c1f"/><path d="m41680 204980v30c0 1720 1400 3120 3120 3120 1730 0 3130-1400 3130-3120 0-1730-1400-3120-3130-3120-10 0-20 0-20 0-1720 0-3100 1380-3100 3090z" fill="#2a8c1f"/><path d="m41680 219230c140 1600 1490 2830 3110 2830 1610 0 2960-1230 3110-2830 10-100 10-190 10-290 0-1730-1400-3120-3120-3120-1730 0-3130 1390-3130 3120 0 100 10 190 20 290z" fill="#2a8c1f"/><path d="m41680 233440c140 1610 1490 2840 3110 2840 1610 0 2960-1230 3110-2840 10-90 10-190 10-280 0-1730-1400-3130-3120-3130-1730 0-3130 1400-3130 3130 0 90 10 190 20 280z" fill="#2a8c1f"/><path d="m89430 193370h-33850c-1440 0-2600-1160-2600-2600s1160-2610 2600-2610h33850c1440 0 2600 1170 2600 2610s-1160 2600-2600 2600z" fill="#2a8c1f"/><path d="m121220 207590h-65690c-1440 0-2600-1170-2600-2610 0-1430 1160-2600 2600-2600h65690c1440 0 2600 1170 2600 2600 0 1440-1160 2610-2600 2610z" fill="#2a8c1f"/><path d="m82160 221830h-26630c-1440 0-2600-1170-2600-2600 0-1440 1160-2610 2600-2610h26630c1440 0 2610 1170 2610 2610 0 1430-1170 2600-2610 2600z" fill="#2a8c1f"/><path d="m110800 236040h-55270c-1440 0-2600-1160-2600-2600s1160-2600 2600-2600h55270c1440 0 2610 1160 2610 2600s-1170 2600-2610 2600z" fill="#2a8c1f"/><path d="m264420 43430-26640 35460h26640z" fill-opacity=".2"/><path d="m48650 66830h17270v-17260h-17270z" fill-opacity=".2"/><path d="m2410 81530h317780v77580h-317780z" fill="#ccc"/><path d="m2410 81530h317780v77580h-317780z" fill="#fff" fill-opacity=".6"/><path d="m235600 124100h-153130c-2280 0-4130-1850-4130-4130s1850-4120 4130-4120h153130c2280 0 4130 1840 4130 4120s-1850 4130-4130 4130z" fill="#5cba51"/><path d="m292650 148700h27540v-56220h-27540z" fill="#5cba51"/><path d="m29920 115890c0-12930-10480-23410-23400-23410-1400 0-2770 130-4110 360v46090c1340 240 2710 360 4110 360 12920 0 23400-10480 23400-23400z" fill="#5cba51"/><path d="m320190 112030-27540 36670h27540z" fill-opacity=".2"/><path d="m2410 129590h17770v-27370h-17770z" fill-opacity=".2"/><path d="m2410 79110h320190v82410h-322600v-82410zm315370 4830h-312960v72760h312960z" fill="#fff" fill-rule="nonzero"/><g fill="#2a8c1f"><path d="m128990 144320v-6760h2400c2400 0 3600 1100 3600 3300 0 1050-330 1890-990 2520-650 620-1520 940-2610 940zm1530-5520v4280h750c660 0 1180-190 1550-590 380-400 560-930 560-1620 0-640-180-1150-550-1510-380-370-900-560-1570-560z" fill-rule="nonzero"/><path d="m139970 144320h-1400v-690h-20c-330 540-800 810-1440 810-470 0-840-140-1100-400-270-270-410-620-410-1060 0-940 560-1480 1670-1620l1310-180c0-530-290-790-860-790-580 0-1120 170-1640 510v-1120c210-100 490-200 850-280s690-120 980-120c1380 0 2060 680 2060 2060zm-1390-1960v-330l-880 120c-480 60-730 280-730 650 0 170 60 310 180 420s280 160 480 160c280 0 510-100 680-290 180-190 270-440 270-730z" fill-rule="nonzero"/><path d="m144070 144260c-220 120-550 180-1000 180-1040 0-1570-550-1570-1640v-2210h-780v-1090h780v-1040l1480-430v1470h1090v1090h-1090v1950c0 510 200 760 600 760 160 0 320-50 490-140z" fill-rule="nonzero"/><path d="m148920 144320h-1410v-690h-20c-320 540-800 810-1430 810-470 0-840-140-1110-400-270-270-400-620-400-1060 0-940 550-1480 1660-1620l1310-180c0-530-280-790-860-790-570 0-1120 170-1640 510v-1120c210-100 490-200 860-280 350-80 680-120 980-120 1370 0 2060 680 2060 2060zm-1400-1960v-330l-870 120c-490 60-730 280-730 650 0 170 60 310 180 420 110 110 270 160 470 160 280 0 510-100 690-290 170-190 260-440 260-730z" fill-rule="nonzero"/><path d="m154870 144440c-1610 0-2410-1130-2410-3390 0-1170 210-2060 650-2680 430-610 1070-920 1890-920 1570 0 2360 1150 2360 3440 0 1150-220 2020-650 2630-420 610-1040 920-1840 920zm60-5850c-640 0-960 800-960 2420 0 1530 320 2290 950 2290 610 0 920-790 920-2360s-300-2350-910-2350z" fill-rule="nonzero"/><path d="m160420 144440c-1610 0-2410-1130-2410-3390 0-1170 210-2060 650-2680 430-610 1060-920 1890-920 1570 0 2350 1150 2350 3440 0 1150-210 2020-640 2630s-1040 920-1840 920zm60-5850c-640 0-960 800-960 2420 0 1530 310 2290 940 2290 620 0 930-790 930-2360s-300-2350-910-2350z" fill-rule="nonzero"/><path d="m167620 137560-3290 7880h-1330l3280-7880z" fill-rule="nonzero"/><path d="m170240 144440c-1610 0-2410-1130-2410-3390 0-1170 220-2060 650-2680 440-610 1070-920 1890-920 1570 0 2360 1150 2360 3440 0 1150-220 2020-650 2630-420 610-1040 920-1840 920zm70-5850c-650 0-970 800-970 2420 0 1530 320 2290 950 2290 610 0 920-790 920-2360s-300-2350-900-2350z" fill-rule="nonzero"/><path d="m175790 144440c-1610 0-2410-1130-2410-3390 0-1170 210-2060 650-2680 430-610 1070-920 1890-920 1570 0 2360 1150 2360 3440 0 1150-220 2020-650 2630s-1040 920-1840 920zm60-5850c-640 0-960 800-960 2420 0 1530 320 2290 950 2290 610 0 920-790 920-2360s-300-2350-910-2350z" fill-rule="nonzero"/><path d="m182990 137560-3290 7880h-1330l3280-7880z" fill-rule="nonzero"/><path d="m185610 144440c-1600 0-2410-1130-2410-3390 0-1170 220-2060 650-2680 440-610 1070-920 1890-920 1580 0 2360 1150 2360 3440 0 1150-210 2020-640 2630s-1050 920-1850 920zm70-5850c-640 0-970 800-970 2420 0 1530 320 2290 950 2290 610 0 920-790 920-2360s-300-2350-900-2350z" fill-rule="nonzero"/><path d="m191160 144440c-1610 0-2410-1130-2410-3390 0-1170 220-2060 650-2680 440-610 1070-920 1890-920 1570 0 2360 1150 2360 3440 0 1150-220 2020-650 2630-420 610-1040 920-1840 920zm70-5850c-650 0-970 800-970 2420 0 1530 320 2290 950 2290 610 0 920-790 920-2360s-300-2350-900-2350z" fill-rule="nonzero"/><path d="m136940 105110h-6080v-10130h5840v1850h-3560v2260h3320v1850h-3320v2320h3800z" fill-rule="nonzero"/><path d="m145330 105110h-2230v-4020c0-1120-400-1680-1200-1680-380 0-700 140-950 440s-370 680-370 1130v4130h-2240v-7240h2240v1150h20c540-880 1310-1320 2330-1320 1600 0 2400 990 2400 2980z" fill-rule="nonzero"/><path d="m154180 105110h-2240v-1000h-20c-510 780-1260 1180-2240 1180-910 0-1640-320-2190-960s-820-1530-820-2680c0-1190 300-2150 910-2870s1400-1080 2390-1080c930 0 1580 330 1950 1000h20v-4300h2240zm-2190-3520v-540c0-470-140-870-410-1180-280-310-630-460-1070-460-490 0-880 190-1160 580s-420 920-420 1600c0 640 140 1130 410 1470s640 520 1110 520c460 0 830-190 1110-550s430-840 430-1440z" fill-rule="nonzero"/><path d="m162560 102130h-4720c70 1050 730 1570 1980 1570 800 0 1500-190 2100-560v1610c-670 360-1540 540-2610 540-1160 0-2070-330-2720-980-640-640-960-1550-960-2710 0-1200 340-2150 1040-2850s1560-1050 2570-1050c1060 0 1870 310 2450 940 580 620 870 1470 870 2550zm-2070-1370c0-1040-420-1560-1260-1560-360 0-670 150-930 450-260 290-420 660-480 1110z" fill-rule="nonzero"/><path d="m168600 99890c-270-150-580-220-940-220-480 0-860 180-1130 530-280 360-410 840-410 1450v3460h-2230v-7240h2230v1350h30c350-980 980-1470 1900-1470 240 0 420 20 550 80z" fill-rule="nonzero"/><path d="m176090 102130h-4720c70 1050 740 1570 1980 1570 800 0 1500-190 2100-560v1610c-670 360-1530 540-2600 540-1170 0-2080-330-2730-980-640-640-960-1550-960-2710 0-1200 340-2150 1040-2850s1560-1050 2580-1050c1050 0 1870 310 2440 940 580 620 870 1470 870 2550zm-2070-1370c0-1040-420-1560-1260-1560-360 0-670 150-930 450-260 290-420 660-480 1110z" fill-rule="nonzero"/><path d="m182900 104850c-510 290-1230 440-2180 440-1120 0-2010-340-2700-1020-690-670-1030-1540-1030-2600 0-1230 370-2200 1100-2910 740-710 1720-1060 2960-1060 850 0 1470 110 1850 340v1890c-470-350-990-520-1560-520-640 0-1150 180-1530 560-370 370-560 890-560 1550 0 640 180 1140 540 1510 360 360 850 550 1480 550 550 0 1100-180 1630-530zm-3420 3450v-980c170 30 340 40 510 40 580 0 870-170 870-510 0-310-260-470-780-470-60 0-150 0-260 10v-1280h1210v580c880 40 1320 430 1320 1170 0 980-750 1460-2240 1460-220 0-430-10-630-20z" fill-rule="nonzero"/><path d="m187810 105290c-1210 0-2150-340-2840-1020-690-670-1040-1590-1040-2750 0-1200 360-2130 1070-2810 720-670 1690-1010 2910-1010 1200 0 2140 340 2820 1010 690 680 1030 1570 1030 2680 0 1200-350 2150-1060 2850-700 700-1670 1050-2890 1050zm60-5880c-530 0-940 180-1230 540s-440 880-440 1540c0 1390 560 2090 1680 2090 1070 0 1610-720 1610-2140 0-1360-540-2030-1620-2030z" fill-rule="nonzero"/><path d="m45180 340280v33840c0 1440-1160 2610-2600 2610s-2600-1170-2600-2610v-33840c0-1440 1160-2610 2600-2610s2600 1170 2600 2610z"/><path d="m55140 340280v33840c0 1440-1160 2610-2600 2610s-2600-1170-2600-2610v-33840c0-1440 1160-2610 2600-2610s2600 1170 2600 2610z"/><path d="m65100 340280v33840c0 1440-1160 2610-2600 2610s-2610-1170-2610-2610v-33840c0-1440 1170-2610 2610-2610s2600 1170 2600 2610z"/><path d="m75060 340280v33840c0 1440-1160 2610-2600 2610s-2610-1170-2610-2610v-33840c0-1440 1170-2610 2610-2610s2600 1170 2600 2610z"/><path d="m85020 340280v33840c0 1440-1170 2610-2600 2610-1440 0-2610-1170-2610-2610v-33840c0-1440 1170-2610 2610-2610 1430 0 2600 1170 2600 2610z"/><path d="m94980 340280v33840c0 1440-1170 2610-2610 2610-1430 0-2600-1170-2600-2610v-33840c0-1440 1170-2610 2600-2610 1440 0 2610 1170 2610 2610z"/><path d="m104940 340280v33840c0 1440-1170 2610-2610 2610-1430 0-2600-1170-2600-2610v-33840c0-1440 1170-2610 2600-2610 1440 0 2610 1170 2610 2610z"/><path d="m114900 340280v33840c0 1440-1170 2610-2610 2610-1430 0-2600-1170-2600-2610v-33840c0-1440 1170-2610 2600-2610 1440 0 2610 1170 2610 2610z"/><path d="m124860 340280v33840c0 1440-1170 2610-2610 2610-1430 0-2600-1170-2600-2610v-33840c0-1440 1170-2610 2600-2610 1440 0 2610 1170 2610 2610z"/><path d="m134820 340280v33840c-10 1440-1170 2610-2610 2610s-2600-1170-2600-2610v-33840c0-1440 1160-2610 2600-2610s2600 1170 2600 2610z"/><path d="m144770 340280v33840c0 1440-1160 2610-2600 2610s-2600-1170-2600-2610v-33840c0-1440 1160-2610 2600-2610s2600 1170 2600 2610z"/><path d="m154730 340280v33840c0 1440-1160 2610-2600 2610s-2600-1170-2600-2610v-33840c0-1440 1160-2610 2600-2610s2600 1170 2600 2610z"/><path d="m164690 340280v33840c0 1440-1160 2610-2600 2610s-2600-1170-2600-2610v-33840c0-1440 1160-2610 2600-2610s2600 1170 2600 2610z"/><path d="m174650 340280v33840c0 1440-1160 2610-2600 2610s-2610-1170-2610-2610v-33840c0-1440 1170-2610 2610-2610s2600 1170 2600 2610z"/><path d="m184610 340280v33840c0 1440-1170 2610-2600 2610-1440 0-2610-1170-2610-2610v-33840c0-1440 1170-2610 2610-2610 1430 0 2600 1170 2600 2610z"/><path d="m194570 340280v33840c0 1440-1170 2610-2600 2610-1440 0-2610-1170-2610-2610v-33840c0-1440 1170-2610 2610-2610 1430 0 2600 1170 2600 2610z"/><path d="m204530 340280v33840c0 1440-1170 2610-2600 2610-1440 0-2610-1170-2610-2610v-33840c0-1440 1170-2610 2610-2610 1430 0 2600 1170 2600 2610z"/><path d="m214490 340280v33840c0 1440-1170 2610-2610 2610-1430 0-2600-1170-2600-2610v-33840c0-1440 1170-2610 2600-2610 1440 0 2610 1170 2610 2610z"/><path d="m224450 340280v33840c0 1440-1170 2610-2610 2610-1430 0-2600-1170-2600-2610v-33840c0-1440 1170-2610 2600-2610 1440 0 2610 1170 2610 2610z"/><path d="m234420 340280v33840c0 1440-1160 2610-2600 2610s-2600-1170-2600-2610v-33840c0-1440 1160-2610 2600-2610s2600 1170 2600 2610z"/></g></svg>