<svg clip-rule="evenodd" fill-rule="evenodd" height="332" image-rendering="optimizeQuality" shape-rendering="geometricPrecision" text-rendering="geometricPrecision" viewBox="0 0 471416000 312802000" width="500" xmlns="http://www.w3.org/2000/svg"><rect fill="#f2e2e1" height="312803000" rx="12331000" width="471417000"/><path d="m454220000 9019000c-3663000 0-6661000 3003000-6661000 6663000v248825000h-423894000c-7220000 0-13129000 5908000-13129000 13131000 0 7222000 5909000 13130000 13129000 13130000h423894000v7184000c0 3659000 2998000 6662000 6661000 6662000 3665000 0 6663000-2998000 6663000-6662000v-282270000c0-3665000-2998000-6663000-6663000-6663000z" fill="#7b1018"/><path d="m309712000 29457000h-125318000c-1764000 0-3195000-1433000-3195000-3196000 0-1764000 1431000-3195000 3196000-3195000l125317000-1000c1766000 1000 3197000 1432000 3197000 3196000 0 1763000-1442000 3196000-3197000 3196000z" fill="#ddbdc2"/><path d="m421878000 29458000h-65096000c-1764000 0-3195000-1432000-3195000-3197000 0-1764000 1431000-3195000 3196000-3195000l65095000-1000c1766000 1000 3197000 1432000 3197000 3196000 0 1765000-1439000 3197000-3197000 3197000z" fill="#ddbdc2"/><path d="m219514000 75150000h217219000c641000 0 1165000 525000 1165000 1165000v1000c0 641000-525000 1165000-1165000 1165000h-217219000c-639000 0-1164000-523000-1164000-1165000v-1000c0-641000 524000-1165000 1164000-1165000z" fill="#7b1018"/><path d="m91159000 248171000h217219000c641000 0 1164000 525000 1164000 1165000v1000c0 641000-524000 1165000-1164000 1165000h-217219000c-639000 0-1165000-523000-1165000-1165000v-1000c0-641000 525000-1165000 1165000-1165000z" fill="#7b1018"/><path d="m163605000 14372000h169845000c803000 0 1532000 328000 2060000 856000 529000 529000 857000 1259000 857000 2060000v17943000c0 800000-328000 1531000-857000 2059000-530000 530000-1261000 858000-2060000 858000h-169845000c-800000 0-1530000-328000-2058000-857000-530000-529000-859000-1260000-859000-2060000v-17943000c0-802000 329000-1532000 857000-2060000 530000-528000 1259000-856000 2060000-856000zm169845000 1110000h-169845000c-497000 0-950000 205000-1276000 530000-327000 328000-531000 780000-531000 1276000v17943000c0 497000 204000 951000 531000 1276000 326000 327000 779000 530000 1276000 530000h169845000c498000 0 951000-203000 1276000-529000 327000-326000 529000-780000 529000-1277000v-17943000c0-496000-203000-948000-529000-1276000-327000-326000-779000-530000-1276000-530000z" fill="#706d6d" fill-rule="nonzero"/><path d="m343683000 14372000h91296000c802000 0 1531000 328000 2060000 857000 528000 528000 857000 1259000 857000 2059000v17944000c0 799000-329000 1530000-858000 2058000-528000 530000-1257000 858000-2059000 858000h-91296000c-801000 0-1532000-328000-2059000-857000-528000-528000-858000-1258000-858000-2059000v-17944000c0-802000 330000-1532000 858000-2060000 527000-528000 1257000-856000 2059000-856000zm91296000 1110000h-91296000c-496000 0-948000 204000-1275000 530000-327000 328000-530000 780000-530000 1276000v17944000c0 495000 203000 947000 530000 1275000 327000 326000 779000 530000 1275000 530000h91296000c497000 0 949000-204000 1276000-530000 327000-325000 530000-779000 530000-1275000v-17944000c0-497000-203000-949000-529000-1275000-328000-326000-780000-531000-1277000-531000z" fill="#706d6d" fill-rule="nonzero"/><path d="m333939000 165450000h95239000c642000 0 1165000 527000 1165000 1165000v1000c0 638000-527000 1165000-1165000 1165000h-95239000c-637000 0-1165000-524000-1165000-1165000v-1000c0-642000 524000-1165000 1165000-1165000z" fill="#7b1018"/><path d="m333939000 248171000h95239000c642000 0 1165000 527000 1165000 1165000v1000c0 639000-527000 1165000-1165000 1165000h-95239000c-637000 0-1165000-523000-1165000-1165000v-1000c0-641000 524000-1165000 1165000-1165000z" fill="#7b1018"/><g fill="#ddbdc2"><path d="m94390000 18226000-14942000 1195000c8011000 0 5120000-1535000 16921000 411000 20582000 3394000 27001000 13703000 36270000 19910000-524000-1965000-866000-1969000-2391000-2989000 967000-1352000 1646000 426000 5469000 5289000 3841000 4887000 7457000 11974000 8598000 18378000 512000 2876000 246000 2686000-917000 4423000-4512000-1205000-7282000-7399000-11206000-11506000l-10296000-10983000c-1321000-960000 611000-655000-612000-221000-195000 440000-921000-199000 673000 1631000 5046000 5795000 4347000 3423000 12311000 14071000 2661000 3556000 6436000 10208000 9618000 12558000 7200000 5314000 5296000-10478000-4816000-25767000-384000-580000-763000-1218000-1037000-1736000-1231000-2331000-5317000-6345000-7335000-8379000-7396000-7459000-21763000-16285000-36308000-16285000zm47812000 29883000c635000-636000-949000-2267000-310000-666000 6000 14000-690000 1666000 310000 666000zm-597000-1794000-178000 179000c11000-12000 237000-119000 178000-179000zm597000 2391000c60000 59000 94000-178000 179000-178000zm1196000 1196000-179000-179000c12000 12000 120000 238000 179000 179000zm-22712000-8367000c-59000-59000-262000 178000-178000 178000 12000-13000 238000-119000 178000-178000zm-9562000-7173000c850000-1050000-78000-849000 3092000 1091000 9608000 5881000 7630000 5945000 14610000 10561000 6028000 3987000 586000-3031000 488000-3148000l-1055000-1767000c-5651000-9475000-28596000-18092000-42835000-18092000-10921000 0-12567000 1621000-19499000 2144000l-1905000 519000c-89000 28000-373000 88000-458000 115000-29000 10000-169000 54000-197000 62000l-4324000 1225000c-1484000 594000-1897000 791000-3315000 1498000-8685000 4334000-5918000 5549000-10805000 7816000-1682000 781000-3559000 2390000-4443000 4104000-566000 1096000 455000 627000-1498000 2463000-703000 661000-778000 520000-898000 514000-25000-2000-151000-51000-177000-59000l-892000-679000c-1399000 2646000-3494000 4214000-4182000 7173000 1818000-752000 1503000 423000 2987000-1793000l-459000-716000c72000-28000 247000-78000 323000-105000 75000-26000 248000-63000 325000-90000 1709000-587000 2521000-1104000 4154000-3161000 562000-706000 16000-36000 576000-864000 67000-98000 202000-344000 259000-418000l4746000-5437000c1247000-688000 137000-189000 544000-47000 80000 27000 322000 232000 398000 285000 39000 25000 204000 166000 236000 189000 34000 27000 151000 169000 254000 204000 516000-772000 1040000-1882000 1078000-1910000l2120000-802000c2220000-1101000 3712000-2020000 5963000-3070000 2798000-1303000 4702000-1504000 7166000-3034000l3924000-1459000c83000-19000 250000-64000 337000-83000 3614000-774000 12856000-2099000 15633000-807000 2901000 1350000 6023000 1749000 8975000 1931000 3697000 227000-1399000-267000 2020000 866000l1757000-688000c3374000-929000 12423000 3065000 12516000 4067000 4000 57000-10000 320000 21000 402000l11405000 8173000c-798000-2988000-6373000-5801000-8965000-7173000zm-2988000-1793000c-636000-635000-2267000 949000-666000 311000 13000-6000 1666000 690000 666000-311000zm-9564000-3586000 180000 178000c-13000-11000-119000-237000-180000-178000zm-1194000 598000 178000-178000c-11000 11000-238000 119000-178000 178000zm-32871000-1196000 178000 180000c-12000-13000-119000-239000-178000-180000zm-19126000 9564000 178000 178000c-11000-12000-119000-238000-178000-178000zm-597000 597000 178000 178000c-12000-11000-119000-237000-178000-178000zm-598000 598000 178000 178000c-12000-11000-119000-237000-178000-178000zm-598000 598000 178000 178000c-11000-12000-119000-238000-178000-178000zm-598000 597000 179000 179000c-12000-12000-119000-238000-179000-179000zm-12550000 17929000c391000-1679000 2774000-6602000 4184000-7171000-1378000-1907000-2710000-1018000-3327000 1121000l-327000 1156000c-546000 1292000-3996000 2289000-5399000 13779000-1109000 9088000 935000 19579000 3076000 28768000 1077000 382000 1130000-305000 1249000 452000l264000 1565000c1035000 4696000 2572000 5992000 5161000 9240000 1206000 1514000 1948000 3467000 3634000 4406000 1710000 951000-687000-1142000 1378000 805000 1718000 1620000 558000 1336000 3228000 2726000 1892000 984000 1988000 1046000 4211000 530000 320000 1033000-1292000 358000-598000 1195000 1810000 2182000 9686000 2206000 11260000 2012000 2166000-265000 1446000-510000 1889000-817000-2575000-545000-1027000-97000-2591000-119000-2376000-33000-932000 411000-2789000-478000 1918000-1057000 4828000-401000 6726000-1017000 2732000-886000 695000 735000 2240000-1374000-6530000 775000-11938000 1086000-17598000-2126000-2675000-1518000-9848000-6964000-11011000-9576000l-193000-488000c-23000-44000-105000-188000-130000-232000l-1599000-3729000c-1396000-4782000-2377000-4032000-192000-6816000 46000-59000 163000-227000 242000-342000-93000 1111000-322000 1882000-277000 2192000l9121000 14396000c1162000 2269000 6434000 6164000 9905000 5332000 1178000-283000 158000 124000 637000-337000l336000-665000c9052000 0 10591000-4184000 18528000-4184000l-963000 2623000c-1760000 2638000-5439000 5009000-8599000 5745000l5185000-154000c2840000-1214000 2769000-2354000 4641000-3766000l2434000-4769000c302000-1494000-436000 973000 192000-1138000l487000-1142000c36000-80000 159000-250000 209000-387000-2497000-667000-1267000-268000-2391000-2390000-1879000 902000-3978000 624000-7769000 2390000-5831000 2715000-8529000-112000-13747000 2390000-533000-1508000 1230000 137000-1972000-1444000-1236000-612000 260000 112000-490000-256000-69000-35000-260000-134000-337000-168000l-402000-156000c-3061000-1300000-8752000-6383000-8752000-10526000 0-3239000 2322000-666000 5380000-598000-1523000-2274000-3724000-4115000-4866000-7088000-850000-2214000-761000-5234000-1302000-7662000-423000-1899000-2453000-2797000 778000-9168000 494000-973000 584000-1065000 1206000-1781000 0 10235000-5137000 20088000 8600000 27259000 2365000 1234000 1529000 291000 2157000 2026000-1308000-627000-13464000-4403000-8590000 2570000 903000 1293000 1442000 2024000 2614000 2810000-308000-1153000-3309000-5380000-597000-5380000 6992000 0 6343000 1216000 12934000-1501000l827000-452000c1753000-1202000 4915000-3502000 7157000-4024000 434000-1400000 480000 864000-250000-512000-638000-1203000-740000 581000-348000-683000l2191000-780000c-703000 1421000-1040000 601000 417000 1752000 60000 48000 260000 140000 380000 223000-2690000 224000-5404000 1839000-6574000 3586000 2268000-528000 3090000-1658000 5027000-2016000 2567000-473000-591000 605000 2112000-211000 2042000-617000-1356000 47000 633000-320000l3720000-401000c1984000-447000 1296000-372000 2617000 454000 2167000 1354000 3323000 4389000 4199000 6644000 368000 947000 1076000-563000 220000 632000 0 3746000 107000 5344000-598000 8367000 1295000 458000-511000 148000 843000-352000 1383000-511000-251000-777000 950000-246000l-1265000 2693000c-760000 3139000 1507000-1589000 70000 2089000-65000 19000-221000-107000-166000-115000l-663000-390000c-950000 12000-3501000 3224000-4108000 3983000-62000 78000-176000 230000-230000 305000-49000 68000-145000 227000-187000 290000l-8782000 6250000c-3177000 1964000-6441000 3224000-8576000 6411000l5216000 3285000c1438000 945000 29000-578000 227000 326000 4000 17000-4000 154000-3000 169000 1000 19000-25000 179000-25000 195000-1000 18000-60000 142000-35000 208000 1406000 329000 1765000 558000 3586000 598000-126000 80000-483000 173000-396000 203000 974000 338000-668000 330000-800000 395000l-1195000 597000c7495000 1102000 9313000-16000 16730000-1198000 1802000-287000 3921000-326000 5253000-1350000l1843000-2447000c1581000-2244000 616000-10885000 654000-14154000 54000-4659000 1219000-7415000 1219000-12527000l1195000 4782000c0-1988000 58000-3743000 1196000-5378000-378000 4536000-354000 8069000 1089000 12657000 1653000 5253000 4543000 4078000 9668000 5272000l-29000-736000c718000-742000 3617000-227000 4167000-1166000 173000-294000 6000-2071000 3035000-2879000-1396000 1904000-996000 485000-2391000 2391000 2407000-562000 6959000-4842000 10001000-3856000 1834000 596000 513000 2038000 1354000 5648000 1164000 246000 3687000 617000 4962000-29000 1098000-555000 3166000-4100000 4004000-5349000h5378000c-412000-1242000-574000-1010000-2856000-1309000-1904000-249000-1393000-193000-3120000 1309000-871000-623000-749000-370000 96000-1127000 67000-59000 250000-211000 329000-284000l1690000-1574000c52000-34000 210000-107000 259000-136000l1211000-1063000c858000 2074000-466000 506000 1196000 2988000 1073000-718000 1240000-1212000 1795000-1597000l1002000-234000c1181000 38000 1422000-2738000 1836000-3696000 1414000-3262000 4930000-9283000 4930000-13001000 0-2748000-325000 288000-303000-1793000 94000-8896000-882000-12228000-3151000-20453000l-4204000-10688000c-884000-1735000-1391000-1914000-1905000-4121000l-291000 1162000c-17000 88000-44000 292000-62000 386000l-245000 1441000c-320000-1377000-1016000-5719000-2938000-5514000-1783000 190000 447000-429000-865000 495000-3730000 2627000 2301000-489000-978000 835000-2380000-3249000-7476000-6929000-10623000-9697000-7684000-6755000-16446000-11412000-26661000-13980000-6670000-1678000-11460000-1425000-19494000-1425000l5977000 1196000 598000 1195000-9564000 1793000c9210000 0 13907000 275000 20422000 2887000 8840000 3546000 14154000 9433000 18897000 17019000l1082000 2058000c14000 30000 70000 163000 84000 189000l1143000 2703000c71000 247000 174000 512000 202000 596000 2212000 6905000 2571000 12842000 1684000 21749000 131000 35000 94000 87000 119000 91000 27000 2000-3000 75000-6000 80000l-69000 226000c-2457000 8074000-12827000-1195000-16318000-3715000-2246000-1620000-3556000-3046000-6078000-4162000-40000-17000-186000-76000-222000-92000-1276000-575000-2475000-1081000-1814000-2574000 631000 547000 85000 121000 1035000 758000 3033000 2039000 15118000 10000000 17492000 10000000 2051000 0 3125000-1260000 3587000-2988000-1957000 1310000-832000 1563000-3587000 1793000l3432000-2083000c512000-412000-147000 1804000 752000-906000 732000-1814000 1462000-8819000-1409000-11738000l-1153000-1240000c-485000-694000-655000-1280000-1027000-1960000l-434000-761000c-749000-1199000-212000-408000-758000-1035000 1022000-1433000 1197000 699000 1882000 1704000 611000 896000 884000 1281000 1704000 1882000-598000-2568000-1800000-3166000-2391000-5379000-1581000 420000-491000-48000-1793000 597000l-298000 1196000c-1358000-2000000-2714000-4793000-4484000-5977000l2391000-598000c-960000-1434000-1310000-724000-2503000-1320000-52000-26000-198000-126000-254000-163000-65000-42000-203000-171000-271000-225000-6592000-5126000-7804000-5369000-16588000-5901000l-1924000-138000c-4366000-196000-9118000 838000-13123000 1771000 1988000 1383000 7699000 160000 10505000-261000 6349000-951000 9214000 1456000 10412000 1456000 3534000 0 644000-1687000 3770000 437000 135000 94000 521000 438000 653000 525000l7530000 6210000c-1163000 1628000-848000-2036000-8362000-5384000-4961000-2208000-13820000-3254000-19763000-1824000-895000 215000-1234000 272000-1891000 501000-1212000 422000 241000-173000-858000 340000-127000 60000-275000 142000-396000 207000-4961000 2636000-2379000 884000-6980000 781000-677000 2536000-1095000 1368000-3717000 2857000-1753000 995000-2452000 1894000-3817000 3356000-1917000 2056000-5942000 5957000-6628000 8283000l-1023000 2998000c-339000 1208000 108000-375000-156000 895000-1134000 5455000-2677000 2984000-851000 10953000 639000 2790000-840000 802000 1251000 2335000-1284000 3873000 89000-2080000-1195000 1793000 92000 106000 79000 288000 264000 333000 307000 74000 466000 527000 568000 626000 861000 840000 198000 276000 961000 833000l-498000 698000c-116000-85000-2801000-4451000-3089000-4881000 1295000-458000-511000-148000 844000 352000 1383000 510000-250000 777000 950000 246000-875000-1824000-1049000-4080000-2989000-4782000l4372000-14155000c55000-135000 114000-297000 176000-423000l1033000-1357000c116000-130000 475000-475000 595000-600000l8165000-9168000c1107000-1467000 1422000-1934000 2991000-2985000l-1793000-1195000 5977000-4184000c1594000 1139000-1950000 1888000-3357000 3758000-824000 1097000-286000 1366000 658000 1076000 1213000-372000 1652000-1277000 2541000-1992000 1967000-1582000 2683000-873000 4693000-2490000 1216000-978000 1472000-1365000 2637000-2145000l-568000-908000c-17000-27000-91000-151000-109000-177000-1456000-2152000-3708000-1784000-6498000-2509000-315000-83000-256000-242000-1160000-269000l-4425000 1435000c-936000 116000-839000 472000-1584000-559000 2483000-580000 5247000-1668000 7351000-2254000 1220000-341000 2988000-725000 3781000-408000 1547000 619000 398000 349000 33000 672000l-1134000 598000c-97000 47000-326000 105000-468000 196000 3909000 0 7908000 954000 6574000 4183000-704000 219000 149000 742000-1196000-1195000v2390000c3717000-308000 3171000-2174000 4226000-4704000l556000-1869000c1747000 417000 861000-77000 1793000 1195000l-2230000 4345000c-1287000 1830000-4826000 2170000-6998000 3202000l-6311000 3211000c3560000-297000 4769000-881000 5378000-2391000 10562000 0 9384000-3716000 10764000-5043000 1534000-1473000 4105000-1532000 6568000-1532000l-3258000-2747000c-40000-18000-186000-62000-222000-79000-3377000-1576000-6536000-1784000-10225000-1314000-3820000 488000-9025000 197000-13261000 1678000-1984000 693000-1823000 1077000-4112000 1268000 241000 327000 998000 1060000 1057000 1161000 741000 1259000-278000 1145000-1655000 3022000l2368000 671000-4220000 7635000c67000-103000 396000-570000 478000-723000 1069000-2000000 1152000-4023000 777000-5790000-1613000 134000-1625000 281000-2988000 598000 1706000 2548000 1196000 1913000 1196000 5976000h-598000c0-2078000 365000-3586000-1793000-3586000-4690000 0-10155000 7316000-12157000 11157000-613000 1175000-743000 2101000-1230000 3039000-854000 1646000-524000 1237000-1555000 148000 145000 1747000 414000 1781000 218000 2311000l-702000 1816000c-337000 1075000-830000-35000-113000 3044000-811000 253000-205000-904000-1196000-596000 0 3003000 538000 2676000 598000 5378000-80000-125000-321000-334000-203000-395000l-993000-1996000c0 4258000-597000 6220000-597000 10759000-1008000-1451000-1196000-6618000-1196000-8966000 0-2989000 1099000-7895000 1668000-10285000 418000-1757000 802000-3409000 1176000-4801000 794000-2948000 1356000-2458000 1938000-4636000 1722000 571000 1213000-1115000 598000 1792000 1627000-1191000 2935000-4292000 4134000-6025000l5074000-5158000c2311000-1533000-346000 156000 1390000-2111000 1854000-2417000 5509000-4530000 8526000-5232000-659000 572000 231000-25000-1041000 750000-1688000 1029000-2723000 1316000-3740000 2835000 2071000-482000 1658000-578000 3245000-1536000 2886000-1743000 6177000-2471000 9339000-3809000 1608000-680000 406000-106000 1163000-631000-1941000 43000-4078000 571000-5380000 1195000-246000-695000-8000-156000 0-597000 8000-442000 246000 98000 0-598000-3520000 293000-13982000 6345000-16137000 9562000l55000-1372000c2300000-3751000 2990000-2728000 4750000-4714000 1218000-1373000 2291000-1023000 3792000-2011000 8609000-5663000 17572000-8040000 29654000-8040000 5075000 0 8407000 1104000 12551000 1196000-3540000-4831000-20176000-3681000-25235000-2523000-1913000 437000-5310000 924000-6635000 2470000-172000 202000 1406000-165000-728000 813000-2072000 948000 502000-96000-1404000 188000-1096000 164000-87000-145000-1680000 383000-88000 29000-1698000 679000-1726000 691000-10352000 4410000-17056000 13373000-22920000 22518000l-471000 724000c-833000 1217000-169000 353000-760000 1032000zm28687000-25699000c1529000 0 97000-947000 0-355000-1000 8000-1668000 355000 0 355000zm-12550000 7770000 178000 179000c-12000-12000-119000-238000-178000-179000zm-598000 598000 178000 178000c-11000-11000-119000-237000-178000-178000zm-1793000 1196000 178000 178000c-12000-13000-119000-239000-178000-178000zm-598000 596000 178000 179000c-11000-12000-119000-238000-178000-179000zm-598000 598000 179000 179000c-12000-12000-119000-238000-179000-179000zm-597000 598000 178000 179000c-12000-13000-119000-239000-178000-179000zm-598000 597000 178000 178000c-11000-11000-119000-237000-178000-178000zm1793000 5380000c1402000-939000 2748000-2241000 4347000-3423000 1768000-1308000 3465000-2027000 4618000-3750000-2249000 525000-8210000 4346000-8965000 7173000zm9562000-7173000c1529000 0 97000-946000 0-355000-1000 7000-1668000 355000 0 355000zm598000 598000c59000 59000 94000-178000 179000-178000zm-5976000 4184000c59000 59000 93000-178000 178000-178000 34000 0 76000-76000 73000-74000zm-4782000 4184000c1057000-246000 2970000-970000 3747000-1576000 1546000-1204000 112000 137000 600000-1531000 34000-118000 367000-890000 435000-1077000zm4782000-2391000c636000 635000 2267000-949000 666000-311000-14000 6000-1667000-690000-666000 311000zm-5379000 2391000 178000 178000c-12000-12000-119000-238000-178000-178000zm5977000-8368000c-1529000 0-96000 947000 0 356000 1000-7000 1668000-356000 0-356000zm-1196000 598000 179000 179000c-12000-13000-119000-239000-179000-179000zm-597000 597000c-260000 0-2759000 1009000-463000 878000 756000-43000 2461000-878000 463000-878000zm-1793000 1196000 178000 178000c-12000-12000-119000-238000-178000-178000zm-14344000 26894000h597000v-2987000h-597000zm5378000-12551000c-1071000 1233000-1021000 900000-1194000 2989000 1075000-1237000 1016000-896000 1194000-2989000zm-1792000 2989000c-636000 635000 948000 2267000 310000 666000-5000-13000 691000-1667000-310000-666000zm2390000-2989000c635000-634000-948000-2266000-310000-665000 5000 14000-691000 1666000 310000 665000zm1793000-3585000c-1633000 591000-1229000-32000-1793000 2390000 1744000-1277000 731000-382000 1793000-2390000zm15539000-12551000-178000 179000c11000-13000 237000-120000 178000-179000zm22712000 4781000c3183000 0 3419000 664000 4781000-1195000-2303000 192000-1927000 598000-4781000 598000zm-14942000 2989000 178000 178000c-11000-12000-119000-238000-178000-178000zm8367000-4782000c-59000-59000-261000 178000-178000 178000 11000-11000 237000-119000 178000-178000zm598000 0c1529000 0 96000-946000 0-355000-1000 7000-1669000 355000 0 355000zm0-3586000-179000-178000c12000 11000 119000 237000 179000 178000zm-11356000 8965000 178000 179000c-11000-12000-118000-238000-178000-179000zm-597000 598000 178000 178000c-12000-11000-119000-237000-178000-178000zm597000-2391000c-59000-59000-262000 178000-178000 178000 34000 0-75000 76000-73000 74000zm-12550000 16137000 178000-178000c-12000 12000-238000 119000-178000 178000zm-4184000 13746000c55000 243000 1539000 1372000 991000-409000-474000-1542000 1222000-457000-228000-84000-191000 48000-1026000-673000-763000 493000zm2988000-8368000-178000 180000c12000-12000 237000-119000 178000-180000zm22113000-19722000c-634000-635000-2267000 949000-665000 310000 13000-5000 1667000 691000 665000-310000zm22114000 0c-1529000 0-96000 946000 0 355000 1000-7000 1668000-355000 0-355000zm8368000 1793000c-1049000-1565000-303000-1235000-2391000-1793000 653000 976000 754000 1748000 2391000 1793000zm-2391000-2390000c-59000-60000-262000 177000-179000 178000 12000-12000 238000-119000 179000-178000zm-598000-598000c-635000-636000-2267000 949000-666000 311000 14000-6000 1667000 690000 666000-311000zm-1195000-598000c-59000-59000-263000 178000-178000 178000 11000-11000 237000-118000 178000-178000zm4184000 4184000c59000 59000 93000-179000 178000-179000zm596000 598000 180000-179000c-13000 12000-239000 120000-180000 179000zm1196000 2390000c868000 1296000 1130000 2064000 2391000 2988000 567000-2434000 691000-4096000-2391000-2988000zm2391000 3586000c0 1529000 946000 96000 355000 0-7000-1000-355000-1668000-355000 0zm-38848000-24504000v598000h3585000v-598000zm4183000-2391000c-5946000 0-5544000 1509000-8964000 1794000 1244000 1722000 1788000 681000 6375000-796000zm60365000 20919000c0-1529000-947000-96000-356000 0 7000 1000 356000 1668000 356000 0zm525000-1880000-2186000-2437000c-92000 1954000 137000 2312000 465000 3719000zm-525000 1282000c634000 635000 2266000-949000 665000-311000-14000 6000-1667000-690000-665000 311000zm1194000 598000c59000 59000 94000-179000 179000-179000zm1793000 1792000-178000-178000c12000 11000 119000 238000 178000 178000zm598000 1793000c635000-634000-948000-2267000-310000-666000 5000 14000-691000 1667000 310000 666000zm1793000 55583000 178000-178000c-11000 12000-237000 119000-178000 178000zm-14942000 10160000c-5985000 0-3765000-60000-2442000-4823000 430000-1550000-117000-753000 649000-2348000-6313000 140000-11935000 5924000-15274000 10424000-6051000 8154000-12857000 6835000-16402000 9298000 5325000-119000 13098000-3378000 16244000-5870000 2694000-2134000 7930000-9891000 12444000-10267000-251000 3028000-1541000 4144000-1792000 7172000 3123000-260000 6197000-1076000 8725000-2957000 56000-42000 196000-146000 252000-192000l2378000-3425000c-1061000 711000-3420000 2988000-4782000 2988000zm1196000 1195000 178000 179000c-12000-12000-119000-238000-178000-179000zm-598000 598000 178000 178000c-11000-11000-119000-237000-178000-178000zm-598000 598000 179000 178000c-12000-12000-119000-237000-179000-178000zm-16734000 4781000c-1393000 1393000-255000 893000 529000 66000 1521000-1599000 300000-895000-529000-66000zm1793000-597000-178000-178000c11000 11000 119000 237000 178000 178000zm3586000-3586000c-1954000 521000-2589000 1499000-3586000 2988000 1954000-523000 2589000-1500000 3586000-2988000zm598000 0c59000-60000-262000-178000-178000-179000 11000 12000 119000 238000 178000 179000zm4184000-3587000c-2474000 206000-3078000 1338000-4184000 2989000 6157000-1644000 2041000 2412000 3791000-1053000 647000-1284000 258000-314000 393000-1936000zm-1793000 2989000-690000 3566000c2032000-24000 2469000-188000 4057000-795000l3206000-1576000c-3111000 69000-3171000 962000-5976000 1196000 0-333000 12000-976000-40000-1155000-304000-1058000-194000-665000-557000-1236000zm-9563000 5379000c-1529000 0-97000 946000 0 355000 0-7000 1669000-355000 0-355000zm-1196000 598000c-59000 59000 95000 178000 179000 178000-12000-12000-120000-237000-179000-178000zm-1194000 1194000 178000-178000c-13000 13000-239000 119000-178000 178000zm-1196000 598000 179000-178000c-12000 11000-239000 119000-179000 178000zm-1195000 598000 178000-179000c-11000 12000-237000 119000-178000 179000zm26297000-13746000-178000 179000c11000-13000 237000-120000 178000-179000zm-30481000-12551000h-598000c0 5663000 580000 16281000 8488000 13881000 1343000-408000 1521000-678000 2270000-1330000-3023000 0-10160000 3886000-10160000-12551000zm-29883000 26297000h2391000c-1117000-709000 1334000-672000-1195000-493000-1285000 91000-525000 51000-1196000 493000zm0-1196000c-693000-692000-3407000 1012000-746000 244000 71000-21000 1784000 794000 746000-244000zm-1793000-596000c-693000-694000-3407000 1011000-746000 242000 71000-21000 1783000 794000 746000-242000zm-1793000-598000c-636000-636000-2267000 948000-666000 310000 14000-5000 1667000 691000 666000-310000zm-1195000 0c-3005000-4102000-8773000-5732000-3247000-1605000 1500000 1120000 1267000 1144000 3247000 1605000zm-5380000-4184000-178000 178000c13000-11000 237000-119000 178000-178000zm10161000-3586000-178000 178000c12000-12000 237000-119000 178000-178000zm598000 0-178000-178000c11000 11000 119000 237000 178000 178000zm1195000-1196000-178000 178000c12000-11000 237000-118000 178000-178000zm3585000-1793000c-634000-634000-2266000 949000-665000 311000 14000-6000 1667000 690000 665000-311000zm6575000-27492000v-1195000c-1043000 243000-1921000 341000-2970000 616000-1710000 449000-1216000 139000-2409000 1177000 4914000 0 7496000 567000 9289000 3861000 2415000 4442000 651000 6547000 274000 11080000 723000-831000 852000-866000 1318000-2267000 1379000-4136000 373000-11903000-5502000-13272000zm3586000 15539000 178000 178000c-11000-11000-118000-237000-178000-178000zm-9563000-14941000c-1529000 0-95000 947000 0 355000 2000-8000 1669000-355000 0-355000zm7770000-598000-178000-178000c12000 11000 119000 237000 178000 178000zm598000-598000-178000-178000c11000 12000 119000 238000 178000 178000zm-14942000 1793000c-1529000 0-96000 946000 0 356000 1000-8000 1669000-356000 0-356000zm-1195000 598000 178000 178000c-11000-11000-119000-237000-178000-178000zm-14344000 7769000 178000-178000c-11000 12000-237000 119000-178000 178000zm598000-8964000c-1529000 0-96000 947000 0 355000 1000-8000 1668000-355000 0-355000zm-598000-598000-178000 178000c12000-11000 237000-119000 178000-178000zm1793000 10758000 179000-179000c-12000 12000-238000 119000-179000 179000zm5379000 1195000c59000-59000-262000-178000-179000-178000 12000 11000 119000 237000 179000 178000zm11954000 10759000 178000 178000c-12000-12000-119000-238000-178000-178000zm5976000-6575000-179000 178000c12000-11000 238000-119000 179000-178000zm-32274000-5977000c997000 1489000 1632000 2467000 3586000 2988000-997000-1488000-1631000-2465000-3586000-2988000zm0-598000-178000 179000c11000-12000 237000-120000 178000-179000zm-2391000-2390000c292000 436000 251000 441000 721000 1072000 506000 676000 640000 822000 1072000 1318000-193000-2336000 362000-1815000-1793000-2390000zm-1194000-597000-179000-179000c12000 12000 118000 238000 179000 179000zm4780000 10757000 178000 179000c-11000-12000-118000-238000-178000-179000zm3586000-71121000-178000 178000c12000-11000 238000-119000 178000-178000zm-4183000 1792000-179000-178000c12000 12000 119000 237000 179000 178000zm597000-596000-178000-180000c12000 12000 119000 239000 178000 180000zm598000-598000-178000-179000c11000 11000 119000 238000 178000 179000zm5379000-5379000-178000-179000c12000 12000 119000 238000 178000 179000zm598000-598000-178000-178000c11000 11000 119000 237000 178000 178000zm-598000-1196000c-635000-635000-2266000 949000-666000 311000 14000-6000 1667000 690000 666000-311000zm-1793000 598000 178000 178000c-11000-11000-119000-237000-178000-178000zm-598000 598000 179000 178000c-12000-12000-119000-237000-179000-178000zm-597000 598000 178000 178000c-12000-12000-119000-238000-178000-178000zm-598000 597000 178000 178000c-11000-11000-119000-237000-178000-178000zm-598000 598000 179000 178000c-12000-11000-119000-237000-179000-178000zm-597000 598000 178000 178000c-12000-12000-119000-238000-178000-178000zm-598000 597000 178000 178000c-11000-11000-119000-237000-178000-178000zm5977000-4184000-178000-178000c11000 12000 119000 238000 178000 178000zm598000-597000-179000-178000c12000 11000 119000 237000 179000 178000zm597000-598000c259000 0 2758000-1009000 463000-877000-756000 43000-2461000 877000-463000 877000zm16137000-9562000c-3511000 291000-13413000 6084000-14941000 8367000zm598000 0c1529000 0 95000-947000 0-356000-1000 7000-1668000 356000 0 356000zm1195000-598000c1529000 0 96000-947000 0-356000-2000 7000-1669000 356000 0 356000zm-17332000 10758000c59000 59000 93000-178000 178000-178000zm-598000 0 179000 178000c-12000-12000-119000-238000-179000-178000zm19126000-8965000c1529000 0 95000-947000 0-356000-2000 8000-1669000 356000 0 356000zm62753000 17929000c59000 59000 94000-178000 179000-178000zm-7769000-1194000-178000-179000c11000 11000 119000 238000 178000 179000zm6575000 5976000-179000-178000c12000 11000 118000 237000 179000 178000zm0 598000 178000-179000c-13000 12000-239000 119000-178000 179000zm596000 597000 180000-178000c-13000 12000-239000 119000-180000 178000zm598000 598000c59000 59000 94000-178000 179000-178000zm598000 598000 179000-179000c-13000 12000-238000 119000-179000 179000zm597000 597000c60000 60000 95000-177000 180000-178000zm598000 598000 178000-178000c-11000 11000-237000 119000-178000 178000zm598000 598000c59000 59000 94000-178000 178000-178000-12000 11000-237000 118000-178000 178000zm598000 597000 178000-178000c-12000 12000-238000 119000-178000 178000zm7770000 6574000c465000-2199000 74000-3632000-1005000-6164000-857000-2014000-1634000-4059000-3179000-5191000 889000 3814000 2988000 4374000 2988000 9562000-2746000-733000-3831000-3344000-5977000-4781000 671000 2510000 4519000 5956000 7173000 6574000zm-4184000-11953000c0-1529000-946000-96000-355000 0 7000 1000 355000 1668000 355000 0zm-598000-1195000-178000 178000c11000-12000 237000-119000 178000-178000zm-598000-598000c-59000-59000-262000 178000-178000 178000 12000-11000 238000-119000 178000-178000zm1793000-5378000-178000-179000c12000 12000 119000 238000 178000 179000zm0 597000c60000 60000 95000-178000 179000-179000zm598000 598000 178000-179000c-11000 13000-237000 120000-178000 179000zm1196000 1792000c59000 59000 93000-178000 178000-178000zm597000 598000c60000 59000 93000-178000 178000-178000zm598000 598000c0 1529000 946000 96000 355000 0-7000-1000-355000-1669000-355000 0zm598000 1195000 178000-178000c-12000 11000-238000 119000-178000 178000zm597000 598000c60000 59000 93000-178000 179000-178000zm-1195000 53790000 178000-179000c-11000 12000-119000 238000-178000 179000zm-598000-19723000 178000-179000c-11000 12000-118000 238000-178000 179000zm1196000 16136000-441000-754000c-1000-1000-123000-1071000-2548000-1636000v-1196000c1801000-481000 1312000 8000 1793000-1793000-2865000 686000-929000 408000-1793000 0 1189000-795000 1656000-1088000 2989000-1793000l-642000 2475000c-2000 103000-21000 376000-19000 485000zm-1793000 2989000c-283000-282000 325000-3388000 321000-1077000 0 0-11000 86000-14000 92000-136000 530000 701000 1994000-307000 985000zm-2391000-15539000c-783000-2521000-955000 2255000 355000-535000 528000-1126000 917000 647000 212000-907000-791000-1745000-1045000-635000-2360000 246000v-2390000c3388000 3580000 2988000-3418000 2988000-5380000 1449000 2085000 950000 2634000 901000 4705000-35000 1449000 626000 4185000-2096000 4261000zm597000-9563000c-693000-692000 1012000-3407000 244000-747000-21000 73000 794000 1784000-244000 747000zm-1195000-4183000 178000-178000c-11000 11000-119000 237000-178000 178000zm-598000 36456000c-212000-2550000-982000-2828000-1195000-5378000-2613000-229000-829000-1265000-88000-632000 976000 831000 1092000 1918000 1283000 4217000h1196000c187000-8415000 978000-4672000-2008000-14727000-3080000-10375000-921000-4624000-6957000-11570000 606000 7283000 487000 3248000 2406000 7149000 3376000 6862000 2084000 9497000 1777000 13172000-7468000 622000-3216000-739000-6539000 1215000l-3150000 1647000c-1077000 642000-1918000 1287000-2862000 1920000 689000-1902000 1238000-1482000 4032000-4336000 3058000-3122000 2785000-3434000 7324000-3434000 0-2668000 134000-5765000-835000-8206000-803000-2019000-967000-1499000-1956000-1457000-3049000 132000 1428000 1083000-794000 101000 0-4001000-162000-6305000 597000-9564000-1171000-3531000-566000 2131000-1042000-2231000-182000-1672000-153000-3190000-153000-4940000l1178000 3650000c416000 1080000-21000 472000 603000 1079000 1840000 1791000 1323000-2754000 4716000 7309000 1214000 3599000 5443000 17560000 5315000 19515000-121000 1854000-1239000 3725000-1652000 5501000zm-5379000-7769000-178000-178000c11000 12000 119000 238000 178000 178000zm5379000-31078000 179000-178000c-12000 11000-119000 237000-179000 178000zm1196000 11355000c-2059000-1508000-210000 115000-2240000-3138000-694000-1110000-201000-415000-749000-1046000 702000-981000 172000-1281000 1988000 1599000 1147000 1819000 757000-272000 1001000 2585000zm-2391000-598000 178000-178000c-11000 12000-119000 238000-178000 178000zm1793000-7171000v2390000c-3013000-2018000-3945000-5478000-6148000-8355000l-4610000-5989000c1511000-2113000 1865000 3219000 7770000 7172000 346000-1630000 95000-1046000 176000-1697000 14000-104000 25000-291000 40000-396000 16000-102000 38000-287000 57000-384000 203000-1072000-122000-390000 324000-1109000 161000 1914000 884000 3520000 1027000 4989000 322000 3308000-1551000 2975000 1364000 3379000zm-1793000-1195000-178000 178000c11000-12000 237000-119000 178000-178000zm-598000-598000-178000 178000c12000-11000 238000-119000 178000-178000zm-1793000-1195000 178000-179000c-11000 12000-237000 119000-178000 179000zm598000 597000 178000-178000c-12000 12000-237000 119000-178000 178000zm1195000 26895000-697000-498000 1042000-1981000c170000 1066000 255000 1947000-345000 2479000zm-498000-22014000c-379000 180000-954000-98000-1158000-1014000-598000-2678000 349000-1897000 461000-2074000 385000 1649000 288000 1347000 1195000 2390000zm-697000 14841000c1328000 1528000 1138000 1017000 1195000 3587000l-385000-810000c-1136000-2986000 673000 2226000-329000-867000-292000-904000-217000-777000-481000-1910000zm4184000 19723000c-452000 806000-327000 662000-598000 1794000h-1195000c-549000-2355000-691000-3537000-2391000-4782000-1690000 1239000-1448000 2253000-3807000 5124000-56000 68000-180000 202000-232000 266000l-742000 1185000c-1221000-2955000 323000 511000-193000-1843000-474000-2161000-787000 595000-1585000-1789000-43000-129000 670000-3147000-4209000 12000-1417000 916000-2650000 1640000-3576000 3022000-1502000-1073000-297000-336000 3427000-3746000 6756000-6186000 6412000-792000 8526000 757000 427000-1827000 930000-2296000 1793000-3586000-1062000-470000 444000-290000-787000 16000-937000 233000 341000 63000-1604000 582000-555000-2083000-551000-2188000-2987000-2390000-1023000 3292000 1835000-2793000 598000 1196000-2221000-472000-2224000-666000-3587000 1194000l-697000-497000c-8000-209000 4109000-2770000 5479000-3088000 909000 609000 845000 794000 1299000 1181000 1303000 1113000 2363000 1163000 4079000 14000 172000 2051000 818000 4368000 2462000 5220000 42000 21000 229000 75000 262000 89000 35000 15000 185000 26000 265000 69000zm-9562000 598000c59000-59000-263000-178000-180000-178000 35000 0-74000-76000-72000-74000zm5976000 1196000c-198000-19000-374000-503000-391000-549000-33000-86000-2144000-713000-42000-360000 752000 127000 2408000 1097000 433000 909000zm-1196000-34665000 178000-178000c-11000 11000-119000 237000-178000 178000zm0 26895000 178000-179000c-11000 13000-119000 239000-178000 179000zm0 8965000 178000-178000c-11000 11000-119000 237000-178000 178000zm-598000-11355000 180000-179000c-13000 12000-120000 238000-180000 179000zm-597000-29286000c-1032000-1033000 1618000-2005000 458000-532000-40000 52000 421000 1410000-458000 532000zm-598000-10161000c-1464000 271000-243000-1094000 98000-658000 721000 920000 356000 575000-98000 658000zm-598000-14941000 180000-178000c-13000 11000-119000 237000-180000 178000zm0 65743000 180000-178000c-13000 11000-119000 237000-180000 178000zm-1194000-51399000 178000-178000c-11000 11000-119000 237000-178000 178000zm1792000 10758000c-2154000-575000-1598000-55000-1792000-2390000 1904000 1394000 603000 407000 1792000 2390000zm-2987000-6574000 178000-178000c-12000 11000-119000 237000-178000 178000zm-1196000-1196000c-635000-635000 948000-2266000 310000-666000-5000 15000 691000 1667000-310000 666000zm0 5380000c30000-1322000-486000-3605000 1131000-1988000 1169000 1169000 339000-9000 1000 722000-166000 357000-892000 1012000-1132000 1266000zm-598000-2989000 179000-178000c-12000 11000-119000 237000-179000 178000zm-597000 12551000c-636000-636000 949000-2267000 311000-666000-6000 14000 690000 1667000-311000 666000zm-598000-2989000c0-5083000-1195000-2686000-1195000-7769000 1017000 735000 703000 254000 1239000 2937000 367000 1835000 554000 2349000 554000 4832000zm1195000 43033000c-2717000-1991000-550000-1872000-2988000-4184000 2151000 575000 1219000 279000 2988000 4184000zm-1195000 1793000 178000-179000c-11000 11000-119000 238000-178000 179000zm-1195000-53193000c-636000-635000 949000-2266000 311000-665000-6000 13000 690000 1666000-311000 665000zm0 7770000 178000-179000c-12000 12000-119000 238000-178000 179000zm-598000 21516000-392000-72000c-1305000 159000 1232000-1055000-587000 123000l-1412000 1742000c649000-2787000 2261000-5273000 3191000-10000000 440000-2246000-202000-8026000-202000-12114000l1793000 2988000c0 7366000 528000 9272000-2038000 13551000-929000 1548000-1064000 2302000-353000 3782000zm598000 17332000c-636000-635000 949000-2267000 311000-666000-6000 13000 690000 1667000-311000 666000zm-598000-48411000c-1725000 1725000 1725000-1724000 0 0zm0 20919000 178000-178000c-11000 11000-119000 237000-178000 178000zm0 8964000 178000-178000c-11000 12000-119000 238000-178000 178000zm1195000 25699000c-2450000-653000-2869000-1343000-1793000-3585000 4000 10000 257000 2899000 1793000 3585000zm-2390000-62754000 178000-178000c-12000 11000-119000 238000-178000 178000zm0 4184000 178000-178000c-12000 11000-119000 237000-178000 178000zm0 24505000v-2989000h597000v2989000zm0 11355000 178000-178000c-12000 11000-119000 237000-178000 178000zm-1196000 13746000c820000-549000 4221000-2686000 2281000 392000-569000 901000-96000 638000-2281000-392000zm1196000 2391000 178000-178000c-12000 11000-119000 237000-178000 178000zm-598000-25103000c-693000-692000 1011000-3406000 243000-746000-20000 72000 794000 1784000-243000 746000zm-598000-3585000c-635000-635000 949000-2266000 311000-666000-6000 13000 690000 1667000-311000 666000zm0 5378000c-635000-634000 949000-2266000 311000-666000-6000 15000 690000 1667000-311000 666000zm-598000 8368000 179000-178000c-12000 12000-119000 238000-179000 178000zm1196000 17333000-1921000-1666000c2708000 561000 978000-416000 1921000 1666000zm-1793000-34665000v-8368000h597000v8368000zm-12551000 34067000c1227000-853000 1295000-298000 2391000-1793000-7911000 0-5402000-2768000-8966000-5380000 1093000 4687000 3682000 5577000 5977000 7173000-2994000 0-2429000-20000-4183000-1196000 499000 1873000 84000 1452000 1808000 2065000 2015000 719000 4333000-141000 6176000-758000 2276000-760000 770000-1460000 2176000 487000-3529000 822000-7007000 4316000-11029000-925000-3339000-4349000-6984000-9624000-7498000-15810000h1195000c55000 2464000 785000 5076000 2290000 6170000l3088000 2794000-5976000-11953000c-1533000 1108000-592000 372000-1109000 2057000-17000 53000-28000 235000-86000 334000-1037000-3884000-3873000-8874000-7336000-11789000-4799000-4036000-9596000-4945000-16571000-4945000l-5020000 1130000c-6525000 1605000-8738000 2795000-10628000-2420000-31000-88000-110000-276000-141000-357000l-348000-744000c2074000 1389000 3328000 2031000 4184000 3586000l6991000-1610000c2746000 356000 4195000-1378000 9744000-1378000 4195000 0 11334000 4133000 15099000 7611000l6045000 6510000c5645000 6186000 2411000-164000 4083000 3233000 812000 1648000 106000-30000-166000 427000-1910000 3199000 544000-2575000-557000 746000 1587000 1827000 1677000 1914000 1196000 4184000 1590000-735000 1641000-304000 2987000 598000-581000 320000-975000 64000-1793000 1194000 1940000 3666000 1653000 2406000 2516000 2771000 1552000 659000 5356000 4594000 9438000-978000l697000 498000c6000 11000-2573000 3089000-6674000 3089000-1486000 0-2247000-1494000-3586000-2391000 730000 3128000 1508000 2570000 2988000 4781000 3198000-1534000 4349000 369000 8051000-5097000l4938000-7017000c631000-934000 206000-399000 757000-1034000-681000 2929000-2824000 5310000-4779000 9563000-1309000 2844000-4291000 6482000-8369000 6574000zm6575000-5379000 178000-179000c-12000 12000-237000 119000-178000 179000zm1194000-598000c60000-59000-261000-178000-178000-178000 13000 11000 119000 237000 178000 178000zm-13746000-5976000c0-1529000-946000-96000-355000 0 7000 1000 355000 1668000 355000 0zm-1194000-2391000-179000 178000c11000-11000 238000-119000 179000-178000zm-598000-598000c-60000-59000-262000 178000-179000 179000 11000-12000 238000-119000 179000-179000zm-43630000-18527000 179000 178000c-12000-12000-120000-238000-179000-178000zm-1195000-598000 179000 178000c-13000-11000-120000-237000-179000-178000zm6574000 1793000-178000 178000c12000-11000 238000-119000 178000-178000zm31676000 11355000-178000-178000c12000 12000 119000 238000 178000 178000zm0 1793000h1196000c-419000-1747000 77000-860000-1196000-1793000zm5977000 13149000-689000-3567000c-1644000 1234000-695000 1976000 689000 3567000zm0 598000c0 259000 1008000 2757000 877000 462000-42000-755000-877000-2461000-877000-462000zm1196000 1793000c0 258000 1007000 2757000 877000 462000-43000-755000-877000-2461000-877000-462000zm1194000 1793000 179000-178000c-12000 11000-238000 118000-179000 178000zm598000 597000 179000-178000c-13000 12000-238000 119000-179000 178000zm17432000-62654000-1765000-2021000 370000-569000 1765000 2020000zm498000 18428000v2389000c-709000-1116000-672000 1336000-493000-1194000 91000-1284000 51000-525000 493000-1195000zm-598000 17332000c0-2818000 107000-2674000 598000-4782000 923000 1455000 193000 3535000-598000 4782000zm0 26297000c-117000-117000-121000-2506000 834000-1250000 484000 634000-484000 1598000-834000 1250000zm2391000-57973000c-762000 1585000-546000 639000-598000 2987000-742000-853000-1392000-1565000-2203000-2578000-997000-1245000-1357000-1983000-2578000-2800000 74000-33000 141000 11000 244000 12000l1642000-105000c80000-25000 273000-107000 349000-134000l753000-371000c1051000 2544000-196000 1257000 2391000 2989000zm-2989000 13746000c-635000-636000 949000-2268000 311000-666000-6000 13000 690000 1667000-311000 666000zm-8366000-16137000c836000 3133000 13591000 16632000 6970000 36255000l-1564000 3218000c-3232000 4251000-6271000 6161000-11483000 1865000-1380000-1136000-2447000-2051000-3899000-3273000-2650000-2230000-5197000-4542000-7954000-6389000 1006000-1409000-99000-653000 2712000 1472000 2301000 1739000 6424000 5108000 8643000 5700000l-9071000-8260000c-22702000-15263000-35156000-75000-35156000-10866000 0-1974000 9806000-16591000 28184000-3081000 1979000 1453000 3776000 2835000 5698000 4461000 2283000 1931000 3489000 3183000 6162000 4597000l-3425000-1356000c-6151000-3030000-18597000-14505000-26225000-10498000l-891000 707000c-79000 52000-571000 311000-674000 388000-1173000 870000-862000 609000-1656000 1795000 2897000 773000 8944000 3585000 13746000 3585000l-5962000-110000c104000 193000 150000 309000 355000 338000l9958000 2593000c11495000 3740000 4791000 3990000 11642000 6614000 78000 30000 244000 89000 323000 123000 6056000 2692000 14113000 14072000 17540000 2784000 922000-3035000 807000-5601000 807000-9354000l420000 818000c1633000 4301000-1522000 6664000 178000 9343000 1806000-7751000 1195000-7059000 1195000-15539000h-597000c0 3151000 619000 2855000-1196000 4183000 0-8118000 978000-4114000-419000-9829000-429000-1755000-3873000-11529000-7350000-14077000l2263000 1323000c-461000-2332000-2382000-3789000-4056000-4909000l498000-697000c22000-2000 11990000 12487000 12650000 20420000l-3577000-7779000c-1036000-2002000-3050000-5400000-4789000-6565000zm-598000-598000 178000 179000c-11000-12000-119000-238000-178000-179000zm5976000 17333000c0 1529000 947000 95000 356000 0-7000-1000-356000-1668000-356000 0zm-1194000 16734000c-647000 647000 895000 3263000 307000 984000-136000-530000 700000-1992000-307000-984000zm-598000 1792000c-636000 636000 948000 2268000 310000 666000-5000-13000 691000-1667000-310000-666000zm-598000 1196000 178000 179000c-11000-13000-119000-238000-178000-179000zm-10758000-1196000c1758000 2625000 7326000 6858000 10160000 2989000-6971000 1625000-4792000-1554000-10160000-2989000zm8965000 2391000-178000 178000c11000-11000 237000-119000 178000-178000zm1793000 598000-179000-178000c13000 11000 120000 237000 179000 178000zm-14344000-5976000c996000 1489000 1631000 2466000 3586000 2987000-997000-1487000-1632000-2465000-3586000-2987000zm0-598000c-60000-59000-262000 178000-179000 178000 13000-11000 239000-119000 179000-178000zm-2390000-1195000 178000 178000c-12000-12000-119000-237000-178000-178000zm0-598000-180000 178000c13000-11000 239000-119000 180000-178000zm-27494000-16735000c-634000-635000-2266000 949000-665000 311000 14000-6000 1667000 690000 665000-311000zm34665000 26297000 178000-178000c-11000 12000-237000 119000-178000 178000zm14344000 4782000c-1725000 1725000 1725000-1725000 0 0zm-598000-45422000c-1529000 0-95000-947000 0-355000 1000 6000 1669000 355000 0 355000zm0 39445000 179000-178000c-12000 11000-120000 237000-179000 178000zm-8964000 15539000c-2007000 0-3351000-2030000-4782000-2987000 882000-1235000 369000-665000 1092000 102000 5142000 5458000 10398000-2781000 10785000-3190000 393000-418000 262000-330000 811000-680000 56000-35000 220000-111000 273000-139000 50000-27000 221000-91000 266000-112000l519000-165000c2032000 1450000-343000 780000-427000 813000-710000 271000-340000-73000-1125000 677000-1307000 1249000-3808000 5681000-7412000 5681000zm8366000-56180000c-1529000 0-95000-947000 0-355000 1000 7000 1669000 355000 0 355000zm6575000 31079000h-598000c0-4139000-597000-6064000-597000-9564000l-1196000 3587000c0-6550000 1178000-6190000-3376000-15749000-1552000-3256000-6253000-10041000-8577000-11743000 882000-1235000 275000-914000 2629000 2152000 1041000 1356000 1477000 1776000 2751000 2629000-643000-2407000-1253000-910000-598000-2391000l4660000 8705000c19000 42000 87000 190000 106000 234000l515000 1451000c2802000 8062000 4281000 9411000 4281000 20689000zm-7172000-25699000 179000 178000c-13000-12000-120000-239000-179000-178000zm-1792000-2989000c-636000 636000 947000 2267000 309000 666000-5000-14000 691000-1667000-309000-666000zm596000 1793000c60000 59000 94000-179000 179000-179000zm1793000 44227000 179000-178000c-12000 11000-119000 237000-179000 178000zm0 19723000 179000-179000c-12000 11000-119000 238000-179000 179000zm-597000-85466000c-188000-68000-978000-2302000-57000-699000 3000 5000 1742000 1310000 57000 699000zm0 61559000c-635000-635000 949000-2267000 311000-666000-7000 13000 689000 1667000-311000 666000zm-498000-42932000-1175000-1414000 378000-578000 1175000 1414000zm-6076000 49507000c-3143000 0-5802000-3465000-7770000-4782000 941000-1316000 446000-551000 1631000 761000 3501000 3877000 8657000 4581000 12115000-1956000l-704000 2284000c-964000 1380000-2319000 3693000-5272000 3693000zm5976000 13746000c-1707000 315000 224000-1450000 97000-471000-140000 1081000 1263000 219000-97000 471000zm-497000-67437000-1176000-1414000 378000-578000 1176000 1414000zm-598000-15539000-739000-655000c-679000-436000-485000-308000-1154000-640000l1237000-41000c653000 419000 468000 276000 1153000 639000zm-1893000 82378000 498000-697000 698000 398000 697000 200000c869000 1069000-1672000 219000-1893000 99000zm598000-66340000 178000-179000c-11000 12000-119000 238000-178000 179000zm0 22711000c-635000-635000 948000-2268000 310000-666000-5000 13000 691000 1667000-310000 666000zm-498000-25003000-1319000-1271000c-578000-408000-794000-471000-1541000-850000-1509000-765000-2177000-1183000-3814000-1563000l4047000 4916000c-2635000-2892000-3250000-2487000-5844000-4315000-2592000-1826000-5089000-3591000-7765000-5383000l498000-697000c202000-4000 275000 285000 481000 315000l4643000 2567000c3653000 2943000 1859000-612000 11112000 5584000zm-697000-12052000 178000-178000c-12000 11000-119000 237000-178000 178000zm-598000-3586000 178000-179000c-11000 12000-119000 238000-178000 179000zm-1793000 92637000c-1725000 1725000 1725000-1725000 0 0zm-4184000-40641000c132000-83000 207000-149000 430000-179000l3156000-2809000c788000 1909000-726000 2924000-3586000 2988000zm2391000-52594000c-1131000 214000-2126000-752000-379000-378000 40000 9000 2465000-17000 379000 378000zm0 49008000c-1725000 1725000 1725000-1725000 0 0zm-498000-31576000c-365000 165000-5000-767000-2023000-1677000l-638000-247000c-10000-5000-990000-543000-1025000-567000l498000-697000c183000 17000 203000 321000 351000 344000 218000 34000 435000 361000 518000 412000 1495000 938000-647000-379000 850000 435000 1015000 551000 1072000 700000 1967000 1299000zm-698000 20221000 179000-178000c-12000 11000-119000 237000-179000 178000zm-597000-1196000 178000-178000c-12000 12000-119000 238000-178000 178000zm-598000-1195000 178000-178000c-11000 11000-119000 237000-178000 178000zm-598000 2989000c1447000-1646000 1793000 2931000 1793000 4780000 0 6284000-9473000-2720000-12550000-4780000 840000-1176000 87000-870000 2127000 861000l6240000 4517000c1677000-887000 3102000-1111000 2986000-3531000-155000-3230000 71000-797000-596000-1847000zm598000 4182000c0 1531000 947000 97000 355000 0-6000 0-355000-1668000-355000 0zm-598000 598000 178000 179000c-11000-11000-118000-238000-178000-179000zm-597000-7171000 178000-178000c-12000 11000-119000 237000-178000 178000zm-598000 17332000 178000-178000c-11000 11000-119000 237000-178000 178000zm598000-18528000c-1401000-507000-808000-337000-1688000-1300000l-803000-2385000c104000 96000 2397000 3636000 2491000 3685000zm-1196000 14942000 178000-178000c-11000 11000-119000 237000-178000 178000zm-1195000-35860000c-188000-68000-977000-2301000-58000-699000 4000 6000 1743000 1311000 58000 699000zm-598000 19723000c4647000 5346000-222000 9372000-3585000 4782000 7133000 1661000 4481000-1040000 3585000-4782000zm598000 15539000 179000-178000c-13000 12000-120000 237000-179000 178000zm0 2391000 179000-178000c-13000 11000-120000 237000-179000 178000zm-598000-53790000 179000-178000c-12000 11000-120000 237000-179000 178000zm-598000 35262000 180000-178000c-13000 12000-119000 238000-180000 178000zm0 17930000c-188000-68000-977000-2302000-56000-699000 3000 5000 1741000 1311000 56000 699000zm0 19126000 180000-179000c-13000 12000-119000 238000-180000 179000zm-596000-57375000c-189000-70000-978000-2303000-58000-700000 3000 6000 1742000 1311000 58000 700000zm-598000 18526000c-189000-68000-978000-2302000-58000-699000 3000 5000 1742000 1312000 58000 699000zm-2988000 56181000c993000-1194000 72000-808000 2005000 982000l648000 548000c66000 55000 228000 169000 335000 263000-2186000-584000-1252000-631000-2988000-1793000zm1793000-75903000 178000-179000c-12000 13000-119000 238000-178000 179000zm0 22711000 178000-178000c-12000 11000-119000 237000-178000 178000zm-598000 31676000 178000-178000c-11000 11000-119000 237000-178000 178000zm4183000 22711000c-2677000-624000-1919000-1189000-4183000-1793000 492000-1486000 471000-1766000 2159000-397000l877000 886000c720000 765000 518000 446000 1147000 1304000zm-4781000-77696000 178000-179000c-11000 13000-119000 239000-178000 179000zm0 14942000c-189000-68000-978000-2302000-57000-700000 3000 6000 1741000 1311000 57000 700000zm0 35859000c-189000-68000-978000-2301000-57000-699000 3000 6000 1741000 1311000 57000 699000zm100000 23409000c-188000-11000-483000-311000-392000-336000 87000-25000-242000-184000-284000-217000-38000-31000-225000-155000-268000-193000-78000-68000-377000-266000-433000-351000-280000-425000-527000-78000 82000-1394000 785000 576000 21000-135000 960000 833000zm-697000-46717000 178000-179000c-12000 12000-119000 238000-178000 179000zm0 25699000c-188000-69000-979000-2303000-58000-699000 3000 5000 1741000 1311000 58000 699000zm-598000-53789000 178000-179000c-12000 12000-119000 238000-178000 179000zm0 75903000c-636000-636000 949000-2267000 310000-666000-5000 13000 691000 1666000-310000 666000zm-598000-5380000c-1707000 316000 225000-1450000 98000-470000-141000 1080000 1261000 219000-98000 470000zm-598000-71121000 179000-179000c-12000 12000-119000 238000-179000 179000zm0 69328000c-1141000-141000 6000-2954000 57000-731000 0 8000 1000 157000 0 172000-8000 228000 1284000 725000-57000 559000zm-597000-81282000 178000-178000c-12000 11000-119000 237000-178000 178000zm-598000 11356000 178000-179000c-11000 13000-119000 239000-178000 179000zm0 63950000c-188000-68000-978000-2302000-58000-700000 3000 6000 1743000 1312000 58000 700000zm-598000-75306000c-1529000 0-96000-946000 0-355000 1000 7000 1668000 355000 0 355000zm0 32274000 179000-178000c-12000 11000-119000 237000-179000 178000zm0 7770000c-188000-68000-978000-2302000-57000-699000 3000 5000 1742000 1310000 57000 699000zm-597000-1793000 178000-178000c-12000 11000-119000 237000-178000 178000zm0 34067000 178000-179000c-12000 12000-119000 238000-178000 179000zm-1196000-34665000c-326000-284000-865000-865000-1100000-1155000-1328000-1640000 159000-341000-3681000-1236000 1176000-1605000 2142000-1132000 4274000-32000 2375000 1225000 1024000 298000 1171000 1027000l-88000 443000c-13000 40000-102000 192000-119000 231000-641000 1406000 114000-426000-457000 722000zm-597000-1793000c-1529000 0-97000 947000 0 355000 0-6000 1668000-355000 0-355000zm-2989000-1195000 178000 178000c-11000-12000-119000-238000-178000-178000zm1793000-4184000c-127000 81000-493000 162000-415000 182000l-5561000 415000c2106000-2874000 247000 153000 2180000-1118000 1213000-795000 298000-17000 330000-770000l-120000-1099000c3768000 1807000 3597000 721000 1195000 2390000 5741000-128000 1707000-515000 4782000 597000v1196000c-4325000-378000 532000 318000-2391000-1793000zm1196000 25700000 178000-178000c-12000 11000-119000 237000-178000 178000zm597000 14941000c-1576000-1813000-786000-2936000-2391000-4781000l1893000-100000c93000 541000-521000 148000-191000 1940000 393000 2133000 454000 111000 689000 2941000zm-2391000-71122000c-1529000 0-96000-946000 0-355000 1000 7000 1669000 355000 0 355000zm0 42435000 179000-178000c-12000 11000-119000 237000-179000 178000zm0 22710000c-2979000-1995000-4249000-8367000-17930000-8367000v-597000c7126000 0 11297000 1357000 15701000 5866000 669000 685000 186000 310000 822000 890000 66000 60000 204000 179000 269000 233000 771000 641000 2878000 494000 1138000 1975000zm-597000-1195000 178000 178000c-12000-12000-119000-237000-178000-178000zm-598000-54387000 178000-178000c-11000 12000-119000 237000-178000 178000zm0 27492000 178000-178000c-11000 12000-119000 238000-178000 178000zm0 20919000 178000-178000c-11000 11000-119000 237000-178000 178000zm0 22710000c-281000-282000 325000-3386000 321000-1077000 0 1000-10000 86000-12000 94000-137000 529000 700000 1992000-309000 983000zm0-11953000c-3005000-3458000-3524000-7074000-10622000-8835000l-1829000-788000c-10068000-2355000-18950000 11569000-25646000 505000-3957000-6538000-543000-16257000 4088000-21305000 2731000-2976000 7843000-7544000 11775000-8669000l2153000-537000c4293000-1815000 5555000-282000 10232000-1363000l6264000 950000-4509000 1473000c-376000-47000-5638000-1664000-5720000-206000-114000 2034000-2571000-1541000 1263000 1122000-1110000 0-1037000 67000-2037000-223000-81000-24000-241000-105000-316000-132000-3497000-1240000 699000 1115000-2294000-563000-2461000-1380000 86000 431000-193000-253000-7000-18000-6000-166000-10000-185000l69000-436000c-7073000 589000-11991000 6688000-12280000 6815000-6236000 2706000-9606000 18137000-7442000 20080000 595000 210000-322000 1671000 1195000-1196000 1605000 1147000 46000 1044000-598000 2989000 1664000 1114000 2066000 2391000 4781000 2391000 5014000 0 7429000-2304000 10906000-2667000 2958000-309000 9884000 158000 12433000 1441000 15792000 7946000 10805000 22134000 8763000 32729000-972000 5042000-68000 11351000-5207000 12723000 893000 554000 637000 548000 2988000 0-1000000 1365000-2939000 1884000-4771000 2401000-1780000 501000-3850000 1138000-5987000 1185000l817000-378000c1934000-755000 5165000-1368000 6953000-2610000-3563000 0-6616000 1268000-6960000 1407000l-1507000-112000c7000-194000 6146000-1203000 7459000-4694000 783000-2078000-159000-1304000 1285000-4692000 878000-2059000 958000-2765000 1645000-4928000 458000-1445000 1033000-2595000 1784000-4194000 2415000-5152000 1879000-4048000 2648000-9950000 431000-3306000-311000-2744000-378000-5708000-507000 799000-668000 3162000-1793000 4780000 205000-2455000 598000-1335000 598000-3585000 0-2999000-453000-641000-747000-3232000-421000-3707000-801000 3119000 747000-1550000zm598000 2989000c282000-282000-325000-3388000-320000-1077000 0 0 10000 86000 12000 92000 137000 530000-701000 1994000 308000 985000zm-9562000-42434000c1130000 214000 2125000-752000 377000-378000-40000 9000-2464000-18000-377000 378000zm7769000-29884000c-1529000 0-96000-946000 0-355000 2000 8000 1669000 355000 0 355000zm0 37056000 179000-178000c-13000 11000-120000 237000-179000 178000zm0 10160000 179000-179000c-13000 12000-120000 238000-179000 179000zm-598000-37652000c-1529000 0-95000-947000 0-356000 2000 7000 1669000 356000 0 356000zm0 70523000v-3585000h598000v3585000zm0 4782000c-635000-636000 949000-2267000 311000-666000-5000 13000 691000 1667000-311000 666000zm-598000-49606000c-1824000 0-364000-927000 464000-878000 2051000 124000-211000 878000-464000 878000zm0 1195000c-1529000 0-95000-946000 0-355000 2000 7000 1669000 355000 0 355000zm0 37055000c-634000-635000 949000-2266000 311000-666000-5000 14000 691000 1667000-311000 666000zm-14344000 28090000c3189000-71000 8115000-3814000 9564000-5977000 1194000 853000 138000 321000-3918000 5646000-2480000 3257000-6412000 5228000-10403000 3207000-2219000-1123000-1214000-1099000-23000-2876000-1909000 404000-931000 603000-2391000 0l498000-697000c233000-35000 583000 147000 668000 143000 89000-4000 494000-25000 624000-37000 74000-7000 259000-38000 339000-47000 84000-11000 267000-38000 355000-50000 3474000-487000 7890000-4010000 10527000-6622000 1961000-1941000 3423000-3374000 5105000-5652000 1945000-2635000 2012000-3563000 3358000-6205000l423000-773000c44000-80000 133000-261000 216000-381000-541000 6509000-4918000 9487000-6684000 12760000l-500000 974000c-31000 28000-156000 119000-192000 143000-157000 101000-6609000 2865000-7566000 6444000zm-4780000-597000 178000 178000c-11000-12000-119000-238000-178000-178000zm12551000-5977000c59000-60000-263000-178000-179000-179000 12000 12000 119000 238000 179000 179000zm5977000-54985000 178000-178000c-13000 12000-119000 237000-178000 178000zm99000 5479000-1981000-1043000c1938000-94000 1218000-260000 2478000 346000zm-99000 26197000 178000-178000c-13000 12000-119000 238000-178000 178000zm0 5380000c-176000-94000-107000-772000-104000-837000 9000-197000-1510000-1563000 96000-496000 1210000 804000 710000 1706000 8000 1333000zm0 2987000-699000-497000 1044000-1982000c168000 1066000 254000 1948000-345000 2479000zm-598000-65144000 178000-179000c-13000 11000-119000 238000-178000 179000zm-598000 20917000 178000-178000c-11000 12000-119000 238000-178000 178000zm0 3586000 178000-178000c-11000 12000-119000 238000-178000 178000zm0 31079000c-635000-636000 948000-2267000 310000-666000-5000 13000 691000 1667000-310000 666000zm0 21516000 178000-179000c-11000 11000-119000 238000-178000 179000zm-1096000-76999000c-200000 1000-462000-388000-364000-432000 139000-64000-316000-382000-568000-629000l-960000-831000c1767000 472000 969000 242000 2390000 1195000zm-99000 23807000 178000-178000c-12000 11000-119000 237000-178000 178000zm0 54984000c-2074000 2074000 2061000-2061000 0 0zm0 1793000 178000-178000c-12000 12000-119000 237000-178000 178000zm-2391000-86660000c1117000-709000-1335000-673000 1195000-493000 1276000 90000 534000 73000 1196000 493000zm1793000 35262000c-1131000 213000-2125000-753000-379000-379000 41000 9000 2464000-17000 379000 379000zm0 22711000c-189000-69000-978000-2303000-57000-699000 2000 5000 1742000 1311000 57000 699000zm-598000-2391000 179000-178000c-12000 11000-119000 237000-179000 178000zm-597000-26297000 178000-178000c-12000 11000-119000 237000-178000 178000zm-1196000 65145000c-588000-2774000-587000-2327000 1793000-3586000-331000 3027000-38000 767000-614000 2052000-601000 1343000 468000 344000-1179000 1534000zm-1195000 0c-188000-68000-978000-2302000-58000-700000 3000 6000 1743000 1312000 58000 700000zm-598000-68731000c-1130000 214000-2125000-753000-379000-378000 42000 9000 2466000-17000 379000 378000zm-1195000-20320000 178000-179000c-12000 13000-119000 238000-178000 179000zm0 91442000 178000-179000c-12000 13000-119000 238000-178000 179000zm-598000-89650000c-635000-634000 949000-2266000 311000-666000-6000 14000 690000 1668000-311000 666000zm-598000 26298000 179000-178000c-12000 11000-119000 237000-179000 178000zm-1793000 19124000c1118000-708000-1334000-671000 1196000-493000 1275000 91000 534000 74000 1195000 493000zm1793000 4184000c-1130000 215000-2125000-751000-377000-378000 40000 10000 2464000-17000 377000 378000zm-597000-50202000 178000-180000c-12000 12000-119000 239000-178000 180000zm-3587000 17928000v-597000h4184000v597000zm3587000 51400000c-2073000 2074000 2061000-2062000 0 0zm-598000-56778000 178000-179000c-11000 13000-119000 238000-178000 179000zm-1195000 6574000 178000-178000c-12000 11000-119000 237000-178000 178000zm-2989000 73512000v-598000h3586000v598000zm2391000 1195000c-1131000 215000-2126000-751000-378000-377000 40000 9000 2464000-18000 378000 377000zm-598000-22710000 178000-178000c-11000 11000-119000 237000-178000 178000zm-1793000-67536000 179000-178000c-12000 11000-120000 237000-179000 178000zm0 38848000c-1529000 0-95000-947000 0-356000 2000 7000 1669000 356000 0 356000zm-2390000-40044000c-527000-327000-1761000-1102000 2390000-1195000zm1196000 13746000 178000-178000c-13000 12000-119000 239000-178000 178000zm-598000 75903000c-1529000 0-96000-946000 0-355000 1000 7000 1668000 355000 0 355000zm-598000-88453000c-1529000 0-96000-946000 0-355000 1000 7000 1668000 355000 0 355000zm0 43629000 178000-178000c-11000 11000-118000 237000-178000 178000zm-1195000-8965000c-1132000 215000-2126000-752000-379000-378000 40000 9000 2464000-17000 379000 378000zm0 9562000c-754000 612000-2059000 1026000-560000-97000 858000-642000 1945000-1026000 560000 97000zm0 36458000 178000-178000c-11000 12000-119000 237000-178000 178000zm-598000-64547000 178000-179000c-11000 12000-119000 238000-178000 179000zm-597000-32872000 178000-178000c-12000 12000-119000 237000-178000 178000zm-1794000 56181000c1044000-908000 741000-812000 2391000-1196000-1106000 962000-720000 766000-2391000 1196000zm1794000 7171000-391000 128000c-1297000-124000-932000 584000-42000-98000 635000-486000 1829000-1197000 433000-30000zm-598000-29883000 178000-178000c-12000 12000-119000 238000-178000 178000zm-598000-18527000 178000-179000c-11000 12000-119000 238000-178000 179000zm598000 87856000c-3143000-839000-1393000-748000-1196000-1195000 888000-314000-387000-1035000 598000 104000 201000 233000 386000 929000 598000 1091000zm-2510000-86183000-578000-378000 1414000-1175000 578000 378000zm119000 15659000 178000-178000c-11000 11000-119000 237000-178000 178000zm-2391000-14942000-1921000-1665000 3216000-825000zm-717000 20800000-578000-379000 1415000-1176000 578000 379000zm717000 26416000 178000-179000c-11000 12000-119000 238000-178000 179000zm-1195000-17930000 178000-178000c-12000 11000-119000 237000-178000 178000zm-598000-36457000 178000-179000c-11000 12000-119000 238000-178000 179000zm0 56777000 178000-178000c-11000 12000-119000 238000-178000 178000zm-1195000-56179000 178000-179000c-12000 12000-119000 238000-178000 179000zm0 28687000 178000-178000c-12000 12000-119000 238000-178000 178000zm1793000 18528000c-1488000-124000-4313000-684000-5378000-1195000 899000-1261000 354000-587000 1478000-284000 2029000 545000 3391000 356000 3900000 1479000zm-2391000-31676000c-1725000 1725000 1725000-1725000 0 0zm0 53191000c-1130000 214000-2124000-753000-378000-378000 41000 8000 2464000-17000 378000 378000zm0 8966000c-1130000 213000-2124000-753000-378000-379000 41000 9000 2464000-17000 378000 379000zm-598000-55583000c-1723000 1724000 1725000-1725000 0 0zm-1793000 31676000c1650000 383000 1348000 287000 2391000 1195000-1615000-376000-1377000-277000-2391000-1195000zm1793000 2988000c-1529000 0-95000-947000 0-355000 1000 6000 1668000 355000 0 355000zm-2987000-35860000c-1149000-949000-714000-355000 81000-1114000 508000-485000 130000 11000 881000-911000 376000-463000 1150000-1743000 1428000-2158000l-781000 2207000c-869000 1006000-911000 933000-1609000 1976000zm2390000 7173000 179000-179000c-13000 12000-120000 238000-179000 179000zm-1792000 10757000c211000-2546000 245000-1066000 892000-3291000 397000-1366000 622000-2689000 900000-3880000 1199000 865000 1645000 12000-665000 5306000-526000 1204000-316000 931000-1127000 1865000zm-1196000 38251000c1117000-710000-1334000-673000 1196000-494000 1275000 91000 533000 74000 1194000 494000zm0-60961000 178000-180000c-11000 13000-119000 239000-178000 180000zm0 17929000 178000-179000c-11000 12000-119000 238000-178000 179000zm-598000 7172000c-635000-636000 948000-2267000 310000-666000-5000 13000 691000 1667000-310000 666000zm-597000 1195000 178000-178000c-12000 12000-119000 238000-178000 178000zm-598000 9563000c-188000-69000-978000-2303000-58000-699000 3000 6000 1743000 1311000 58000 699000zm-1195000 19125000 178000-178000c-12000 11000-119000 237000-178000 178000zm-1196000-598000c-188000-68000-978000-2302000-57000-699000 3000 5000 1742000 1312000 57000 699000zm-1195000-19723000 178000-178000c-12000 12000-119000 237000-178000 178000zm-598000 18528000c-188000-68000-978000-2303000-57000-699000 4000 5000 1742000 1311000 57000 699000zm-1540000-33381000c-95000-1938000-261000-1218000 345000-2479000l697000 498000zm-253000 1705000c-188000-69000-978000-2303000-58000-699000 4000 5000 1743000 1311000 58000 699000zm-598000 1793000v2391000c-708000-1118000-671000 1334000-493000-1196000 91000-1284000 52000-525000 493000-1195000zm-4901000-32991000-578000-379000 1416000-1174000 578000 377000zm0 6575000-578000-379000 1416000-1176000 578000 379000zm717000 16854000 180000-178000c-13000 11000-120000 237000-180000 178000zm-597000 1793000 179000-179000c-13000 12000-119000 238000-179000 179000zm-1196000-17333000 180000-179000c-12000 13000-119000 239000-180000 179000zm-596000 32274000 178000-179000c-12000 13000-119000 239000-178000 179000zm-2391000-34664000 178000-178000c-12000 11000-119000 237000-178000 178000zm0 40043000-697000-499000 1042000-1981000c169000 1067000 255000 1948000-345000 2480000zm-598000-3587000v-2987000h598000v2987000zm-598000-4183000v-3586000h598000v3586000zm-597000 5976000v-4182000h597000v4182000zm-2989000-14343000h-597000c0-3921000 724000-11472000 2378000-14954000 446000-942000 638000-1124000 1208000-1781000-1467000 6294000-2989000 8064000-2989000 16735000zm0 13746000c1582000 639000 1115000-1229000 1196000 2391000-422000-607000-22000 206000-667000-1127000-75000-154000-385000-975000-529000-1264000zm0-1792000c-282000-282000 325000-3388000 321000-1078000l-77000 330000c-21000 73000 794000 1784000-244000 748000zm-597000-8368000c-636000-636000 949000-2267000 311000-666000-7000 14000 689000 1667000-311000 666000z"/><path d="m107538000 141941000c59000-59000-262000-177000-178000-178000 11000 12000 119000 238000 178000 178000zm23906000-16137000c-2017000 1352000-3123000 3337000-5020000 4542000-1704000 1082000-3320000 1054000-6822000 3340000l-12064000 7658000c2727000-227000 4365000-1719000 6826000-2736000 4294000-1775000 9163000-4058000 12461000-7262000 1726000-1676000 3965000-3091000 4619000-5542000zm4184000-5977000c-1333000 977000-3695000 4145000-4184000 5977000 1559000-1043000 3682000-3821000 4184000-5977000zm1793000-2987000c-1463000 1072000-1286000 814000-1793000 2987000 1463000-1071000 1286000-813000 1793000-2987000zm598000 0c635000-636000-949000-2268000-311000-666000 6000 13000-690000 1667000 311000 666000zm597000-1195000c636000-636000-949000-2267000-311000-666000 6000 13000-690000 1666000 311000 666000zm598000-1196000c635000-635000-949000-2267000-311000-666000 6000 13000-690000 1667000 311000 666000zm598000-1195000c635000-636000-949000-2267000-311000-666000 6000 13000-690000 1667000 311000 666000zm597000-1196000c636000-635000-949000-2266000-311000-666000 7000 14000-690000 1667000 311000 666000z"/><path d="m75264000 113851000c-2809000 1882000-4547000 5179000-10146000 6588000-4508000 1134000-9336000 2377000-14955000 2377000v598000c7676000 0 15235000-729000 20934000-4766000 1748000-1238000 3609000-2706000 4167000-4797000zm598000 0c59000-59000-263000-177000-178000-178000 11000 12000 119000 238000 178000 178000z"/><path d="m110526000 25996000-2163000-1424000c-1094000-552000-1387000-652000-2531000-1054000-7235000-2544000-10550000-3499000-19213000-3499000v597000c5633000 0 8460000 600000 12677000 1668000 2207000 558000 3370000 958000 5490000 1681000 2517000 861000 3205000 1819000 5740000 2031000zm0 596000c635000 636000 2267000-948000 666000-310000-14000 5000-1666000-691000-666000 310000zm1196000 598000c634000 636000 2266000-948000 666000-310000-14000 5000-1668000-691000-666000 310000zm1194000 598000c636000 635000 2268000-948000 666000-310000-13000 5000-1667000-691000-666000 310000zm2989000 1195000c-917000-1320000-98000-742000-1793000-1195000 943000 1356000 113000 699000 1793000 1195000zm0 598000c635000 635000 2266000-948000 666000-310000-14000 5000-1667000-691000-666000 310000zm2988000 1195000c-917000-1321000-98000-743000-1793000-1195000 942000 1356000 113000 699000 1793000 1195000zm1793000 1196000c-918000-1322000-98000-743000-1793000-1196000 942000 1357000 113000 698000 1793000 1196000zm0 597000c60000 60000 94000-177000 178000-178000zm598000 598000c635000 636000 2267000-949000 666000-311000-13000 6000-1667000-690000-666000 311000zm1195000 598000c60000 59000 93000-178000 179000-178000zm598000 597000 178000-178000c-11000 12000-237000 119000-178000 178000zm598000 598000c59000 59000 93000-178000 178000-178000zm2391000 1196000c-918000-1322000-98000-743000-1794000-1196000 943000 1356000 112000 698000 1794000 1196000zm0 597000c59000 59000 93000-178000 178000-178000zm597000 598000c60000 59000 93000-178000 178000-178000zm598000 598000c59000 59000 93000-178000 178000-180000zm598000 597000c59000 60000 93000-177000 178000-179000-13000 13000-239000 120000-178000 179000zm596000 598000c61000 59000 94000-179000 180000-179000zm598000 598000c59000 59000 94000-179000 179000-179000zm598000 597000c59000 60000 94000-178000 179000-179000-13000 13000-238000 120000-179000 179000zm597000 598000 180000-179000c-13000 13000-239000 120000-180000 179000zm598000 598000c59000 59000 94000-179000 178000-179000z"/><path d="m53748000 104288000 179000-178000c-12000 12000-120000 237000-179000 178000zm1793000 1196000c39000-83000-37000-239000 61000-268000 2074000-619000-2711000-46000 3038000-3804000 1811000-1184000 3527000-1989000 4671000-3697000-820000 218000-10161000 4980000-10161000 5977000v1194000c844000 419000 994000 598000 2391000 598000zm8368000-7769000-178000-179000c11000 12000 119000 238000 178000 179000z"/><path d="m105745000 34362000c-1072000-1462000-814000-1286000-2989000-1793000 1073000 1463000 814000 1286000 2989000 1793000zm1793000 1196000c-918000-1321000-98000-743000-1793000-1196000 942000 1356000 112000 699000 1793000 1196000zm10160000 7171000c-1043000-1558000-7600000-6575000-10160000-7171000 929000 1267000 3200000 2558000 4690000 3677000 2089000 1569000 2831000 2880000 5470000 3494000zm0 598000c59000 59000 94000-178000 178000-178000zm597000 598000c60000 59000 95000-178000 179000-179000zm598000 597000 178000-178000c-11000 12000-237000 119000-178000 178000zm598000 598000c59000 59000 94000-178000 178000-178000zm598000 598000c59000 59000 94000-178000 178000-178000z"/><path d="m90803000 49304000c-2217000-3028000-3738000-1793000-7770000-1793000v598000c1810000 0 5742000 1026000 7770000 1195000zm-4781000-2989000h-1793000v598000h1793000zm4781000 3587000c60000 59000 93000-178000 179000-179000z"/><path d="m47772000 103692000c518000-1940000 1675000-2989000 4781000-2989000v-598000c-1708000 0-3373000 129000-4584000 833000-1182000 684000-2177000 2415000-197000 2754000zm7171000-3587000v-597000h-2390000v597000zm-7171000 4183000 178000-178000c-11000 12000-237000 119000-178000 178000z"/><path d="m143996000 97117000v-10160000h-598000v10160000z"/><path d="m66896000 72612000v-598000c-6825000 0-4861000-2604000-4780000-2987000-1274000 716000-1196000 277000-1196000 2391000 2581000 1365000 2138000 1194000 5976000 1194000z"/><path d="m60920000 105484000v-598000h-2390000v598000zm1794000-598000v-598000h-1794000v598000zm1793000-598000v-596000h-1793000v596000zm1793000-596000v-598000h-1793000v598000z"/><path d="m120686000 122816000v-598000c-1614000 0-1648000-285000-2988000-597000v-2390000h-598000c0 3708000-122000 3585000 3586000 3585000z"/><path d="m60323000 113851000v-597000h-5977000v597000z"/><path d="m86022000 43925000v-598000h-4183000v598000z"/><path d="m63311000 113254000v-598000h-1793000v598000zm1793000-598000c-455000-395000-167000-398000-1007000-785000-1216000-561000-281000-154000-1383000-410000 1436000 1961000-433000 833000 2390000 1195000z"/><path d="m57334000 125804000h-1195000v2391000c396000-454000 398000-167000 785000-1008000 579000-1253000 149000-295000 410000-1383000zm598000 0c1484000 0 153000-955000 0-371000-2000 8000-1696000 371000 0 371000z"/><path d="m82437000 46913000-2974000-1823000c599000 2332000 144000 1823000 2974000 1823000z"/><path d="m72276000 140148000v-597000h-3587000v597000z"/><path d="m33428000 62452000c613000-613000-860000-2161000-322000-693000 4000 15000-682000 1696000 322000 693000zm598000-1195000c613000-613000-860000-2162000-323000-694000 5000 16000-681000 1698000 323000 694000zm598000-1196000c613000-613000-860000-2161000-323000-692000 5000 14000-681000 1696000 323000 692000z"/><path d="m30440000 77394000v-2989000h-598000v2989000z"/><path d="m70483000 110265000v-597000h-2989000v597000z"/><path d="m67494000 139551000v-598000h-2987000v598000z"/><path d="m143398000 86359000v-2988000h-598000v2988000z"/><path d="m48967000 123414000h-1793000v1195000c1638000-392000 931000 243000 1793000-1195000z"/><path d="m71678000 103094000-178000-179000c11000 12000 119000 238000 178000 179000zm1793000-598000v-598000h-1793000v598000zm0 598000 178000-179000c-11000 12000-237000 120000-178000 179000zm598000 598000c0 1484000 955000 152000 371000 0-8000-3000-371000-1696000-371000 0z"/><path d="m56737000 131184000c-267000-1144000 347000 10000-411000-1383000-417000-772000-407000-574000-785000-1008000 117000 1405000-63000 2176000 1196000 2391000z"/><path d="m131444000 116840000v-598000h-2391000v598000z"/><path d="m142800000 82773000v-1793000h-598000v1793000z"/><path d="m67494000 112058000v-597000h-1792000v597000z"/><path d="m63909000 138953000v-598000h-1793000v598000z"/><path d="m33428000 118633000c60000-60000-262000-179000-179000-179000 13000 11000 120000 238000 179000 179000zm0 598000 178000-179000c-11000 11000-237000 118000-178000 179000zm598000 596000c0 1486000 955000 154000 370000 0-7000-1000-370000-1694000-370000 0zm598000 1196000 178000-178000c-12000 11000-239000 119000-178000 178000zm596000 598000 180000-179000c-12000 12000-239000 119000-180000 179000zm598000 597000c0 1486000 956000 154000 371000 0-7000-1000-371000-1695000-371000 0zm598000 1196000 179000-179000c-13000 12000-238000 119000-179000 179000zm597000 597000 180000-178000c-13000 12000-239000 119000-180000 178000zm598000 598000 179000-178000c-12000 11000-238000 119000-179000 178000zm598000 598000c59000 59000 94000-178000 179000-178000-13000 11000-238000 118000-179000 178000z"/><path d="m39404000 54085000c-1320000 918000-743000 98000-1195000 1794000 1356000-942000 699000-113000 1195000-1794000zm598000 0-178000-179000c11000 13000 119000 239000 178000 179000z"/><path d="m142202000 80382000c614000-614000-860000-2162000-322000-693000 5000 15000-682000 1696000 322000 693000z"/><path d="m141605000 108472000c613000-613000-860000-2161000-323000-692000 5000 14000-681000 1696000 323000 692000z"/><path d="m141007000 110265000c613000-614000-860000-2161000-322000-693000 4000 15000-682000 1696000 322000 693000z"/><path d="m81241000 127598000c613000-615000-860000-2163000-322000-694000 4000 15000-682000 1697000 322000 694000z"/><path d="m31635000 68429000c613000-614000-860000-2162000-322000-693000 4000 15000-682000 1696000 322000 693000z"/><path d="m32233000 66038000c613000-614000-860000-2162000-323000-693000 5000 15000-681000 1696000 323000 693000z"/><path d="m32831000 64245000c613000-614000-861000-2161000-323000-693000 5000 15000-681000 1696000 323000 693000z"/><path d="m48370000 126402000c613000-614000-860000-2161000-323000-693000 5000 15000-681000 1696000 323000 693000z"/><path d="m95585000 30179000c1484000 0 152000-956000 0-371000-3000 7000-1696000 371000 0 371000z"/><path d="m71678000 21214000c1485000 0 153000-956000 0-371000-2000 8000-1696000 371000 0 371000z"/><path d="m65104000 52292000c1485000 0 153000-956000 0-371000-2000 8000-1695000 371000 0 371000z"/><path d="m77655000 20019000c1484000 0 152000-957000 0-371000-2000 7000-1696000 371000 0 371000z"/><path d="m66300000 110863000c1484000 0 152000-955000 0-371000-3000 8000-1696000 371000 0 371000z"/><path d="m40600000 52890000-179000-178000c12000 11000 119000 237000 179000 178000zm597000-598000-178000-178000c12000 12000 119000 238000 178000 178000zm598000-597000-178000-178000c11000 11000 119000 237000 178000 178000zm598000-598000-178000-178000c11000 11000 119000 237000 178000 178000zm597000-598000-178000-178000c12000 12000 119000 238000 178000 178000z"/><path d="m76460000 112656000c59000-59000-263000-178000-179000-178000 12000 11000 119000 237000 179000 178000zm597000-598000c60000-59000-262000-177000-178000-178000 12000 12000 119000 238000 178000 178000z"/><path d="m59725000 126402000c59000-59000-262000-178000-178000-178000 11000 12000 119000 237000 178000 178000zm598000-598000-178000-178000c11000 12000 118000 238000 178000 178000z"/><path d="m132639000 43327000-178000-178000c12000 11000 119000 237000 178000 178000zm0 598000c60000 59000 94000-178000 178000-179000zm598000 597000 178000-178000c-11000 12000-237000 119000-178000 178000z"/><path d="m63311000 68429000-178000-178000c12000 12000 119000 238000 178000 178000zm598000-597000-178000-179000c11000 12000 119000 238000 178000 179000z"/><path d="m96183000 98910000-180000-178000c13000 11000 119000 237000 180000 178000zm0 598000 178000-179000c-12000 12000-239000 119000-178000 179000z"/><path d="m50163000 132977000-179000-179000c12000 12000 120000 238000 179000 179000zm0 598000 178000-180000c-12000 13000-237000 119000-178000 180000z"/><path d="m87217000 42729000-178000-178000c12000 12000 119000 237000 178000 178000zm0 598000 178000-178000c-11000 11000-237000 119000-178000 178000z"/><path d="m142202000 106679000c60000-59000-262000-178000-179000-178000 13000 11000 120000 237000 179000 178000z"/><path d="m68689000 111461000c60000-60000-261000-178000-178000-179000 12000 12000 119000 238000 178000 179000z"/><path d="m51955000 134171000c59000-59000-261000-178000-178000-178000 11000 13000 119000 238000 178000 178000z"/><path d="m53150000 134769000c60000-59000-261000-178000-178000-178000 12000 11000 119000 238000 178000 178000z"/><path d="m54346000 135367000c59000-60000-262000-178000-178000-179000 11000 12000 118000 239000 178000 179000z"/><path d="m65104000 111461000c60000-60000-262000-178000-179000-179000 13000 12000 120000 238000 179000 179000z"/><path d="m61518000 138355000c59000-59000-262000-178000-178000-178000 12000 12000 119000 237000 178000 178000z"/><path d="m117698000 128195000-178000-178000c11000 12000 119000 237000 178000 178000z"/><path d="m123077000 48706000-178000-178000c11000 12000 119000 237000 178000 178000z"/><path d="m122479000 46913000-178000-178000c12000 12000 119000 237000 178000 178000z"/><path d="m35818000 101301000-178000-179000c11000 12000 119000 238000 178000 179000z"/><path d="m35220000 100105000-178000-178000c13000 12000 119000 238000 178000 178000z"/><path d="m48370000 97117000-178000-178000c11000 11000 118000 237000 178000 178000z"/><path d="m103952000 60659000-178000-178000c11000 12000 118000 237000 178000 178000z"/><path d="m106343000 32569000-179000-178000c12000 12000 119000 238000 179000 178000z"/><path d="m63909000 52890000-178000-178000c11000 11000 119000 237000 178000 178000z"/><path d="m66896000 22409000-178000-178000c13000 12000 119000 238000 178000 178000z"/><path d="m66300000 96519000-179000-178000c12000 12000 118000 237000 179000 178000z"/><path d="m81241000 44522000-179000-178000c13000 12000 120000 238000 179000 178000z"/><path d="m65104000 97117000-179000-178000c13000 11000 120000 237000 179000 178000z"/><path d="m90206000 92335000-179000-178000c12000 12000 119000 238000 179000 178000z"/><path d="m65104000 67234000-179000-178000c13000 11000 120000 237000 179000 178000z"/><path d="m82437000 20616000-180000-178000c12000 12000 119000 238000 180000 178000z"/><path d="m65702000 53488000-179000-178000c12000 11000 120000 237000 179000 178000z"/><path d="m69287000 102496000-178000-179000c12000 13000 119000 238000 178000 179000z"/><path d="m67494000 103094000-178000-179000c13000 12000 119000 238000 178000 179000z"/><path d="m52553000 45120000-179000-178000c12000 11000 119000 237000 179000 178000z"/><path d="m49565000 46913000-179000-178000c13000 12000 120000 237000 179000 178000z"/><path d="m68092000 24203000-178000-180000c11000 13000 119000 239000 178000 180000z"/><path d="m56737000 99508000-179000-179000c12000 12000 119000 238000 179000 179000z"/><path d="m102159000 32569000-179000-178000c12000 12000 119000 238000 179000 178000z"/></g><path d="m23531000 79952000 43165000-16903000 937000-43797000 29414000 35828000 41943000-12642000-24986000 39045000 24986000 35984000-44855000-11696000-26502000 34882000-2738000-46275000z" fill="#7b1018"/><circle fill="#ddbdc2" r="202709000" transform="matrix(0 -.161413 .161413 0 87355500 79952100)"/><path d="m64384000 79952000c0-12686000 10285000-22971000 22971000-22971000 12687000 0 22971000 10285000 22971000 22971000s-10284000 22971000-22971000 22971000c-12686000 0-22971000-10285000-22971000-22971000z" fill="#f2e2e1" fill-opacity=".501961"/><path d="m38253000 165450000h95239000c642000 0 1165000 527000 1165000 1165000v1000c0 638000-527000 1165000-1165000 1165000h-95239000c-637000 0-1165000-524000-1165000-1165000v-1000c0-642000 524000-1165000 1165000-1165000z" fill="#7b1018"/></svg>