<?xml version="1.0" encoding="UTF-8"?>
<!DOCTYPE svg PUBLIC "-//W3C//DTD SVG 1.1//EN" "http://www.w3.org/Graphics/SVG/1.1/DTD/svg11.dtd">
<!-- Creator: CorelDRAW 2018 (64 Bit Versão de avaliação) -->
<svg xmlns="http://www.w3.org/2000/svg" xml:space="preserve" width="128px" height="128px" version="1.1" style="shape-rendering:geometricPrecision; text-rendering:geometricPrecision; image-rendering:optimizeQuality; fill-rule:evenodd; clip-rule:evenodd"
viewBox="0 0 1232000 1232000"
 xmlns:xlink="http://www.w3.org/1999/xlink">
 <defs>
  <style type="text/css">
   <![CDATA[
    .fil0 {fill:none}
    .fil1 {fill:#5CBA51}
   ]]>
  </style>
 </defs>
 <g id="Camada_x0020_1">
  <metadata id="CorelCorpID_0Corel-Layer"/>
  <rect class="fil0" width="1232000" height="1232000"/>
  <g id="_2626776835008">
   <path class="fil1" d="M618000 219000l-2000 0 0 -56000c64000,-1000 135000,-1000 173000,1000 58000,3000 83000,41000 105000,75000 13000,19000 25000,37000 41000,45000 19000,9000 57000,8000 97000,6000 53000,-2000 111000,-4000 145000,17000 59000,38000 56000,102000 54000,174000 -1000,15000 -1000,30000 -1000,46000l0 399000c0,48000 0,71000 -28000,104000 -11000,14000 -25000,23000 -42000,30000 -17000,6000 -37000,9000 -61000,9000l-483000 0 -27000 -35000 27000 -22000 423000 0c5000,0 13000,1000 21000,1000 31000,1000 69000,2000 87000,-9000 26000,-17000 26000,-43000 26000,-83000 -2000,-162000 0,-325000 0,-487000 0,-22000 0,-39000 -4000,-52000 -4000,-12000 -11000,-21000 -26000,-29000 -17000,-10000 -60000,-8000 -105000,-7000 -46000,2000 -93000,3000 -120000,-8000 -35000,-14000 -54000,-42000 -70000,-67000 -15000,-23000 -29000,-45000 -53000,-50000 -8000,-1000 -92000,-2000 -177000,-2000zm155000 254000c-42000,-36000 -97000,-59000 -157000,-59000l-18000 -24000 18000 -33000c11000,0 22000,1000 34000,2000l1000 0c74000,9000 144000,48000 193000,106000 49000,58000 76000,136000 66000,222000l0 2000c-9000,76000 -48000,146000 -106000,194000 -51000,42000 -115000,68000 -188000,68000l0 -57000c5000,0 10000,0 15000,0l1000 0c65000,-5000 124000,-35000 165000,-83000 39000,-45000 62000,-107000 58000,-174000 -4000,-64000 -35000,-123000 -82000,-164000zm312000 -23000l-86000 0 -1000 -56000 94000 0 0 56000 -7000 0z"/>
   <path class="fil1" d="M616000 219000c-87000,0 -173000,1000 -180000,2000 -25000,6000 -39000,28000 -54000,51000 -17000,25000 -35000,53000 -70000,66000 -27000,11000 -74000,10000 -120000,8000 -44000,-1000 -86000,-3000 -105000,7000 -14000,7000 -21000,17000 -25000,29000 -4000,13000 -5000,30000 -5000,52000l0 488000c0,39000 0,65000 27000,82000 17000,11000 56000,10000 87000,9000 8000,0 16000,-1000 21000,-1000l424000 0 0 57000 -436000 0c-8000,0 -15000,0 -22000,0 -36000,1000 -72000,2000 -100000,-15000 -15000,-9000 -29000,-21000 -39000,-36000 -9000,-14000 -15000,-30000 -17000,-49000 -3000,-23000 -2000,-334000 -1000,-468000l0 -72000c0,-40000 -1000,-65000 25000,-97000 11000,-13000 23000,-24000 39000,-31000 16000,-7000 35000,-11000 59000,-11000l133000 0c45000,0 55000,-15000 73000,-42000l9000 -14000c16000,-24000 31000,-47000 61000,-60000 28000,-13000 66000,-12000 101000,-11000 8000,0 16000,1000 25000,1000 23000,0 48000,-1000 75000,-1000l15000 0 24000 21000 -24000 35000zm0 138000l0 57000c-5000,0 -11000,0 -16000,0 -65000,4000 -124000,35000 -166000,82000 -39000,45000 -63000,107000 -58000,174000l0 2000c4000,62000 33000,120000 79000,161000 42000,38000 98000,61000 161000,61000l21000 27000 -21000 30000c-12000,0 -24000,-1000 -36000,-2000l-2000 -1000c-74000,-9000 -144000,-48000 -192000,-106000 -49000,-58000 -76000,-136000 -65000,-223000l0 -1000c9000,-78000 51000,-150000 112000,-198000 50000,-39000 113000,-63000 183000,-63000z"/>
  </g>
 </g>
</svg>
