<?xml version="1.0" encoding="UTF-8"?>
<!DOCTYPE svg PUBLIC "-//W3C//DTD SVG 1.1//EN" "http://www.w3.org/Graphics/SVG/1.1/DTD/svg11.dtd">
<!-- Creator: CorelDRAW 2018 (64 Bit Versão de avaliação) -->
<svg xmlns="http://www.w3.org/2000/svg" xml:space="preserve" width="128px" height="128px" version="1.1" style="shape-rendering:geometricPrecision; text-rendering:geometricPrecision; image-rendering:optimizeQuality; fill-rule:evenodd; clip-rule:evenodd"
viewBox="0 0 12798000 12798000"
 xmlns:xlink="http://www.w3.org/1999/xlink">
 <defs>
  <style type="text/css">
   <![CDATA[
    .fil1 {fill:none}
    .fil0 {fill:#5CBA51}
   ]]>
  </style>
 </defs>
 <g id="Camada_x0020_1">
  <metadata id="CorelCorpID_0Corel-Layer"/>
  <g id="_2365661822944">
   <path class="fil0" d="M868000 8272000c-24000,-96000 -55000,-161000 -138000,-214000 -87000,-36000 -269000,-14000 -327000,62000 -71000,93000 -84000,170000 -84000,286000 0,351000 -16000,702000 -17000,1054000 -1000,339000 0,872000 113000,1191000l2000 5000c81000,244000 236000,415000 427000,578000 166000,143000 489000,267000 710000,267000l9675000 0c670000,0 1267000,-619000 1267000,-1283000l0 -1893000c0,-380000 -479000,-348000 -533000,-91000 -13000,95000 -9000,233000 -9000,331000 -2000,203000 0,407000 2000,611000 4000,320000 12000,641000 12000,961000l0 9000 0 8000c-25000,443000 -326000,803000 -787000,803000l-9547000 0c-433000,0 -781000,-377000 -754000,-806000 19000,-307000 11000,-640000 10000,-948000 -1000,-204000 -3000,-408000 -8000,-612000 -2000,-95000 0,-224000 -14000,-319000z"/>
   <path class="fil0" d="M6671000 8661000l17000 -6276000 2039000 1881000c343000,352000 724000,-44000 402000,-365000l-2401000 -2397000c-138000,-138000 -241000,-199000 -329000,-207000 -88000,8000 -190000,69000 -328000,207000l-2402000 2397000c-322000,321000 59000,717000 402000,365000l2040000 -1881000 14000 6264000c1000,340000 545000,336000 546000,12000z"/>
  </g>
  <rect class="fil1" width="12798000" height="12798000"/>
 </g>
</svg>
