<?xml version="1.0" encoding="UTF-8"?>
<!DOCTYPE svg PUBLIC "-//W3C//DTD SVG 1.1//EN" "http://www.w3.org/Graphics/SVG/1.1/DTD/svg11.dtd">
<!-- Creator: CorelDRAW 2018 (64 Bit Versão de avaliação) -->
<svg xmlns="http://www.w3.org/2000/svg" xml:space="preserve" width="128px" height="128px" version="1.1" style="shape-rendering:geometricPrecision; text-rendering:geometricPrecision; image-rendering:optimizeQuality; fill-rule:evenodd; clip-rule:evenodd"
viewBox="0 0 219320 219320"
 xmlns:xlink="http://www.w3.org/1999/xlink">
 <defs>
  <style type="text/css">
   <![CDATA[
    .fil1 {fill:none}
    .fil0 {fill:#5CBA51}
   ]]>
  </style>
 </defs>
 <g id="Camada_x0020_1">
  <metadata id="CorelCorpID_0Corel-Layer"/>
  <g id="_2452873785808">
   <path class="fil0" d="M17510 93590l0 6000c0,6760 6850,4540 6850,1710l0 -5140 20110 0 0 26570 -20110 0 0 -9430c0,-3130 -6850,-4980 -6850,1710l0 9860c0,2110 1000,4710 3000,4710l26950 0c3060,0 3860,-2490 3860,-5570l0 -29560c0,-2550 -830,-4710 -3430,-4710l-26950 0c-2210,0 -3430,1780 -3430,3850zm-17510 -40050l0 111810c0,9280 8480,17990 19700,17990l179910 0c11230,0 19710,-8710 19710,-17990l0 -111810c0,-5830 -3530,-10640 -7840,-14010 -2240,-1760 -6340,-3550 -9730,-3550l-184180 0c-2720,0 -4880,770 -6780,1800 -850,460 -1990,1020 -2720,1560 -2540,1870 -2640,2080 -4520,4480 -740,940 -980,1570 -1590,2680 -1130,2020 -1960,4180 -1960,7040zm6850 112230l0 -86380 205610 0 0 86380c0,5210 -5900,10710 -11130,10710l-183340 0c-5230,0 -11140,-5500 -11140,-10710zm0 -102450l0 -9780c0,-5110 5590,-10700 10720,-10700l184180 0c5120,0 10710,5590 10710,10700l0 9780 -205610 0zm191450 87640l-44550 0c-4240,0 -4240,-6420 0,-6420l44550 0c4240,0 4240,6420 0,6420zm-61740 430l-115400 0c-4170,0 -5240,-6860 1720,-6860l111960 0c6750,0 5900,6860 1720,6860z"/>
   <rect class="fil1" width="219320" height="219320"/>
  </g>
 </g>
</svg>
