<?xml version="1.0" encoding="UTF-8"?>
<!DOCTYPE svg PUBLIC "-//W3C//DTD SVG 1.1//EN" "http://www.w3.org/Graphics/SVG/1.1/DTD/svg11.dtd">
<!-- Creator: CorelDRAW 2018 (64 Bit Versão de avaliação) -->
<svg xmlns="http://www.w3.org/2000/svg" xml:space="preserve" width="128px" height="128px" version="1.1" style="shape-rendering:geometricPrecision; text-rendering:geometricPrecision; image-rendering:optimizeQuality; fill-rule:evenodd; clip-rule:evenodd"
viewBox="0 0 58660 58660"
 xmlns:xlink="http://www.w3.org/1999/xlink">
 <defs>
  <style type="text/css">
   <![CDATA[
    .fil1 {fill:none}
    .fil0 {fill:#5CBA51}
   ]]>
  </style>
 </defs>
 <g id="Camada_x0020_1">
  <metadata id="CorelCorpID_0Corel-Layer"/>
  <g id="_2453856113488">
   <path class="fil0" d="M1830 44340l0 -30020c0,-1370 1500,-2860 2870,-2860l49260 0c1370,0 2870,1490 2870,2860l0 30020c0,1390 -1580,2860 -2980,2860l-49040 0c-1400,0 -2980,-1470 -2980,-2860zm46170 -17650l5160 0c810,0 1340,-1830 -460,-1830l-4240 0c-1790,0 -1260,1830 -460,1830zm-16840 12610l11920 0c1130,0 1130,-1720 0,-1720l-11920 0c-1130,0 -1130,1720 0,1720zm-110 -12610l13750 0c450,0 830,-620 740,-1080 -120,-540 -590,-750 -1200,-750l-12830 0c-610,0 -1080,210 -1200,750 -100,460 280,1080 740,1080zm110 6310l21890 0c1110,0 1400,-1840 -460,-1840l-20970 0c-1800,0 -1580,1840 -460,1840zm120 -12610l21650 0c1300,0 1300,-1830 0,-1830l-21420 0c-1740,0 -1430,1830 -230,1830zm-14900 11120l-680 0c-2050,0 -4010,-1960 -4010,-4010 0,-800 20,-1480 410,-2220 150,-280 670,-1000 880,-1190 3520,-3210 8810,670 6940,4880 -610,1360 -2130,2540 -3540,2540zm-6530 -4470c0,2310 1450,4890 2870,5270 -130,460 -500,470 -1010,940 -320,300 -640,780 -900,1170 -360,540 -1900,3800 -210,4130 390,70 750,-120 930,-440 230,-420 -50,-2590 2040,-4040 2050,-1420 5140,-580 6220,1600 680,1370 310,1910 640,2450 710,1170 2950,180 760,-3630 -870,-1530 -1790,-1610 -1940,-2180 1790,-480 4560,-5380 1460,-8910 -190,-220 -170,-260 -350,-450l-1800 -1300c-4120,-1920 -8710,1290 -8710,5390zm-4920 -9400l0 1610c0,1810 1830,1210 1830,460l0 -1380 18450 0 0 21200 -18450 0 0 -16620c0,-830 -1830,-1330 -1830,460l0 16730c0,560 260,1260 800,1260l20280 0c810,0 1030,-670 1030,-1490l0 -22000c0,-680 -220,-1260 -920,-1260l-20280 0c-590,0 -910,480 -910,1030zm-4930 -3320l0 29900c0,2490 2270,4820 5270,4820l48120 0c3000,0 5270,-2330 5270,-4820l0 -29900c0,-1560 -940,-2850 -2100,-3750 -600,-470 -1690,-950 -2600,-950l-49260 0c-730,0 -1310,210 -1810,480 -230,130 -540,280 -730,420 -680,500 -710,560 -1210,1200 -200,250 -260,420 -430,720 -300,540 -520,1120 -520,1880z"/>
   <rect class="fil1" width="58660" height="58660"/>
  </g>
 </g>
</svg>
