<?xml version="1.0" encoding="UTF-8"?>
<!DOCTYPE svg PUBLIC "-//W3C//DTD SVG 1.1//EN" "http://www.w3.org/Graphics/SVG/1.1/DTD/svg11.dtd">
<!-- Creator: CorelDRAW 2018 (64 Bit Versão de avaliação) -->
<svg xmlns="http://www.w3.org/2000/svg" xml:space="preserve" width="128px" height="128px" version="1.1" style="shape-rendering:geometricPrecision; text-rendering:geometricPrecision; image-rendering:optimizeQuality; fill-rule:evenodd; clip-rule:evenodd"
viewBox="0 0 26780 26780"
 xmlns:xlink="http://www.w3.org/1999/xlink">
 <defs>
  <style type="text/css">
   <![CDATA[
    .fil0 {fill:none}
    .fil1 {fill:#5CBA51}
   ]]>
  </style>
 </defs>
 <g id="Camada_x0020_1">
  <metadata id="CorelCorpID_0Corel-Layer"/>
  <rect class="fil0" width="26780" height="26780"/>
  <path class="fil1" d="M1860 4300l23040 0 -8190 8210 310 670 630 260 7950 -7970 10 15910 230 620 930 540c0,-50 10,-90 10,-130l0 -900c0,-40 0,-90 0,-130l0 -8230 0 -8790c0,-680 -560,-1240 -1250,-1240l-24280 0c-680,0 -1240,560 -1240,1240l0 840c-10,50 -10,90 -10,130l10 7640 0 9360 760 -400 420 -780 -20 -15820c260,170 730,700 980,950 780,780 6750,6610 6980,6950l620 -270 250 -590 -5950 -5910c-270,-260 -500,-430 -770,-700 -340,-350 -1190,-1120 -1420,-1460z"/>
  <path class="fil1" d="M13440 15780c-310,-230 -2480,-2450 -2900,-2880l-540 -530 -3490 3470 -5320 5310 0 0 -1180 1180 0 80c0,680 560,1240 1240,1240l330 0c60,10 130,20 190,20l11730 -10 220 -630 -230 -540 -11720 0 8150 -8180c480,320 1860,1780 2450,2370 480,480 520,670 1080,690l-10 -1590z"/>
  <path class="fil1" d="M16710 12510l-3040 3050 -220 220 -10 0 -220 710 230 880 100 0c30,0 60,0 90,-10 450,-130 1310,-1130 1600,-1420l1610 -1580 8150 8120 -11440 10 -70 0 10 1170 40 0 11460 -10 30 0 500 0c640,0 1180,-490 1240,-1110l-4490 -4480 -4630 -4620 0 0 -940 -930z"/>
 </g>
</svg>
