<svg clip-rule="evenodd" fill-rule="evenodd" height="128" image-rendering="optimizeQuality" shape-rendering="geometricPrecision" text-rendering="geometricPrecision" viewBox="0 0 517000 517000" width="128" xmlns="http://www.w3.org/2000/svg"><path d="m259000 0c142000 0 258000 116000 258000 259000 0 142000-116000 258000-258000 258000-143000 0-259000-116000-259000-258000 0-143000 116000-259000 259000-259000zm0 34000c124000 0 224000 101000 224000 225000s-100000 224000-224000 224000-225000-100000-225000-224000 101000-225000 225000-225000zm-36000 279000c-1000-3000-2000-6000-3000-10000 0-4000-1000-8000-1000-11000 0-6000 1000-11000 2000-16000 1000-4000 3000-8000 5000-12000s5000-8000 8000-12000 7000-7000 11000-11000c5000-4000 9000-7000 12000-11000 4000-3000 7000-6000 9000-10000 3000-3000 4000-6000 6000-10000 1000-3000 1000-7000 1000-12000 0-3000 0-7000-2000-10000-1000-3000-3000-6000-5000-8000-3000-3000-6000-4000-9000-6000-4000-1000-8000-2000-12000-2000-10000 0-19000 2000-29000 6000-11000 4000-20000 10000-29000 18000v-54000c9000-6000 19000-10000 30000-13000s22000-4000 34000-4000c11000 0 22000 1000 31000 4000 10000 2000 18000 6000 25000 11000 8000 6000 13000 12000 17000 21000 4000 8000 6000 18000 6000 29000 0 8000-1000 14000-2000 20000-2000 6000-4000 12000-8000 17000-3000 5000-7000 11000-12000 15000-5000 5000-10000 10000-16000 15000-5000 4000-8000 7000-11000 10000-4000 3000-6000 6000-8000 9000s-4000 6000-5000 9000c-1000 4000-2000 8000-2000 12000 0 3000 1000 6000 1000 9000 1000 3000 2000 5000 4000 7000zm26000 79000c-9000 0-17000-3000-23000-8000-7000-6000-10000-14000-10000-22000s3000-15000 10000-21000c6000-6000 14000-8000 23000-8000 10000 0 18000 2000 24000 8000s9000 13000 9000 21000c0 9000-3000 16000-9000 22000-6000 5000-14000 8000-24000 8000z" fill="#fff"/><path d="m0 0h517000v517000h-517000z" fill="none"/></svg>