<svg clip-rule="evenodd" fill-rule="evenodd" height="384" image-rendering="optimizeQuality" shape-rendering="geometricPrecision" text-rendering="geometricPrecision" viewBox="0 0 7108000 5452000" width="500" xmlns="http://www.w3.org/2000/svg"><path d="m6002000 64000c-596000-188000-1235000 86000-1857000 187000-940000 151000-1958000-93000-2838000 235000-603000 225000-1062000 713000-1231000 1268000-169000 556000-50000 1169000 291000 1660000 218000 313000 519000 575000 841000 809000 326000 237000 679000 450000 1073000 586000 545000 188000 1147000 222000 1731000 181000 406000-28000 814000-92000 1187000-238000 352000-137000 666000-345000 927000-594000 645000-615000 950000-1465000 981000-2301000 25000-692000-280000-1532000-1105000-1793000z" fill="#94d28d"/><path d="m6722000 1189000v3302000l-550000 550000h-2174000c-47000-1000-85000-39000-85000-85000v-3767000c0-47000 38000-85000 85000-85000h2638000 1000c47000 0 85000 38000 85000 85000z" fill="#5cba51"/><path d="m6722000 1333000v3158000l-550000 550000h-2174000c-47000-1000-85000-39000-85000-85000v-3623000z" fill="#fff" fill-opacity=".6"/><path d="m6648000 1209000v1000c0 22000-18000 41000-41000 41000s-41000-19000-41000-41000c0-23000 18000-42000 41000-42000 23000 0 41000 19000 41000 41000z" fill="#fff" fill-opacity=".6"/><path d="m6491000 1209000c0 23000-18000 41000-41000 41000-22000 0-40000-18000-40000-41000 0-22000 18000-41000 40000-41000h1000c22000 0 40000 19000 40000 41000z" fill="#fff" fill-opacity=".6"/><path d="m6335000 1209000v1000c0 22000-18000 41000-41000 41000s-41000-19000-41000-41000c0-23000 18000-42000 41000-42000 23000 0 41000 19000 41000 41000z" fill="#fff" fill-opacity=".6"/><path d="m5620000 1588000h-1505000c-15000 0-26000-12000-26000-27000 0-14000 11000-26000 26000-26000h1505000c15000 0 26000 12000 26000 26000 0 15000-11000 27000-26000 27000z" fill="#5cba51"/><path d="m5195000 1732000h-1081000c-15000 0-26000-12000-26000-26000 0-15000 11000-27000 26000-27000h1081000c14000 0 26000 12000 26000 27000 0 14000-12000 26000-26000 26000z" fill="#5cba51"/><path d="m6361000 3958000h-1924000c-14000 0-26000-12000-26000-26000 0-15000 12000-27000 26000-27000h1924000c15000 0 27000 12000 27000 27000 0 14000-12000 26000-27000 26000z" fill="#5cba51"/><path d="m6040000 4534000h-1925000c-14000 0-26000-12000-26000-26000 0-15000 12000-27000 26000-27000h1925000c14000 0 26000 12000 26000 27000 0 14000-12000 26000-26000 26000z" fill="#5cba51"/><path d="m6361000 4103000h-2246000c-15000 0-26000-12000-26000-27000 0-14000 11000-26000 26000-26000h2246000c15000 0 27000 12000 27000 26000 0 15000-12000 27000-27000 27000z" fill="#5cba51"/><path d="m6361000 4246000h-2246000c-15000 0-26000-12000-26000-26000 0-15000 11000-27000 26000-27000h2246000c15000 0 27000 12000 27000 27000 0 14000-12000 26000-27000 26000z" fill="#5cba51"/><path d="m6361000 4390000h-2246000c-15000 0-26000-12000-26000-26000 0-15000 11000-27000 26000-27000h2246000c15000 0 27000 12000 27000 27000 0 14000-12000 26000-27000 26000z" fill="#5cba51"/><path d="m6721000 4491000-550000 550000v-550000z" fill="#5cba51" fill-opacity=".501961"/><path d="m6566000 4491000h155000v-3158000h-155000z" fill-opacity=".4"/><path d="m6643000 2983000c-32000 0-58000-25000-58000-57000v-323000c1000-31000 27000-56000 58000-56000 31000 0 57000 26000 57000 58000v322000c-1000 31000-26000 56000-57000 56000z" fill="#5cba51"/><path d="m6361000 3167000h-1924000c-14000 0-26000-11000-26000-26000s12000-26000 26000-26000h1924000c15000 0 27000 11000 27000 26000s-12000 26000-27000 26000z" fill="#5cba51"/><path d="m6040000 3743000h-1925000c-14000 0-26000-12000-26000-26000 0-15000 12000-26000 26000-26000h1925000c14000 0 26000 11000 26000 26000 0 14000-12000 26000-26000 26000z" fill="#5cba51"/><path d="m6361000 3312000h-2246000c-15000 0-26000-12000-26000-27000 0-14000 11000-26000 26000-26000h2246000c15000 0 27000 12000 27000 26000 0 15000-12000 27000-27000 27000z" fill="#5cba51"/><path d="m6361000 3455000h-2246000c-15000 0-26000-11000-26000-26000 0-14000 11000-26000 26000-26000h2246000c15000 0 27000 12000 27000 26000 0 15000-12000 26000-27000 26000z" fill="#5cba51"/><path d="m6361000 3599000h-2246000c-15000 0-26000-11000-26000-26000s11000-26000 26000-26000h2246000c15000 0 27000 11000 27000 26000s-12000 26000-27000 26000z" fill="#5cba51"/><path d="m4108000 1904000h2253000v841000h-2253000z" fill="#5cba51"/><path d="m4108000 2609000h61000v-153000h71000v-301000h99000v186000h135000v246000h162000v-172000h133000l89000-88000v-205000h54000v293000h136000v105000h140000v-533000l39000-39000v146000h90000v66000l87000 86000v156000h123000v-123000h324000v-92000h73000v-161000h26000v253000h41000l93000-93000h87000v-84000h45000v85000h57000v348000h62000v-174000l26000 2000v-460000h-2253000z" fill-opacity=".2"/><path d="m6361000 2877000h-606000c-14000 0-26000-11000-26000-26000s12000-26000 26000-26000h606000c15000 0 27000 11000 27000 26000s-12000 26000-27000 26000z" fill="#5cba51"/><path d="m6643000 2983000c-32000 0-58000-25000-58000-57000v-323000c1000-31000 27000-56000 58000-56000 31000 0 57000 26000 57000 58000v322000c-1000 31000-26000 56000-57000 56000z" fill="#fff" fill-opacity=".4"/><path d="m3394000 1601000v3301000l-550000 550000h-2173000c-47000 0-85000-38000-85000-85000v-3766000c0-47000 38000-85000 85000-85000h2638000c47000 0 85000 38000 85000 85000z" fill="#5cba51"/><path d="m3394000 1745000v3157000l-550000 550000h-2173000c-47000 0-85000-38000-85000-85000v-3622000z" fill="#fff" fill-opacity=".6"/><path d="m3322000 1621000c0 23000-19000 41000-42000 41000-22000 0-41000-18000-41000-41000 0-22000 19000-41000 41000-41000h1000c22000 0 41000 18000 41000 41000z" fill="#fff" fill-opacity=".6"/><path d="m3163000 1621000c0 23000-18000 41000-41000 41000-22000 0-41000-18000-41000-41000 0-22000 19000-41000 41000-41000h1000c22000 0 40000 18000 40000 41000z" fill="#fff" fill-opacity=".6"/><path d="m3008000 1621000c0 23000-19000 41000-41000 41000-23000 0-42000-18000-42000-41000 0-22000 19000-41000 42000-41000 22000 0 41000 18000 41000 41000z" fill="#fff" fill-opacity=".6"/><path d="m1255000 2014000h-467000c-15000 0-27000-12000-27000-27000 0-14000 12000-26000 27000-26000h467000c15000 0 26000 12000 26000 26000 0 15000-11000 27000-26000 27000z" fill="#5cba51"/><path d="m1477000 2158000h-688000c-15000 0-27000-12000-27000-27000 0-14000 12000-26000 27000-26000h688000c14000 0 26000 12000 26000 26000 0 15000-12000 27000-26000 27000z" fill="#5cba51"/><path d="m1263000 2302000h-475000c-14000 0-26000-12000-26000-27000 0-14000 12000-26000 26000-26000h475000c14000 0 26000 12000 26000 26000 0 15000-12000 27000-26000 27000z" fill="#5cba51"/><path d="m3034000 4660000h-1924000c-15000 0-27000-12000-27000-27000 0-14000 12000-26000 27000-26000h1924000c14000 0 26000 12000 26000 26000 0 15000-12000 27000-26000 27000z" fill="#5cba51"/><path d="m1979000 4804000h-1191000c-15000 0-27000-12000-27000-27000 0-14000 12000-26000 27000-26000h1191000c15000 0 27000 12000 27000 26000 0 15000-12000 27000-27000 27000z" fill="#5cba51"/><path d="m3394000 4902000-550000 550000v-550000z" fill="#5cba51" fill-opacity=".501961"/><path d="m3239000 4902000h155000v-3157000h-155000z" fill-opacity=".4"/><path d="m3316000 4686000c-32000 0-57000-25000-57000-57000v-322000c0-32000 25000-58000 57000-58000 32000 0 57000 26000 57000 58000v323000c0 31000-26000 56000-57000 56000z" fill="#5cba51"/><path d="m3034000 2014000h-362000c-15000 0-27000-12000-27000-27000 0-14000 12000-26000 27000-26000h362000c14000 0 26000 12000 26000 26000 0 15000-12000 27000-26000 27000z" fill="#5cba51"/><path d="m3034000 2158000h-187000c-14000 0-26000-12000-26000-27000 0-14000 12000-26000 26000-26000h187000c15000 0 27000 12000 27000 26000 0 15000-12000 27000-27000 27000z" fill="#5cba51"/><path d="m3034000 2683000h-1924000c-15000 0-27000-12000-27000-26000 0-15000 12000-27000 27000-27000h1924000c14000 0 26000 12000 26000 27000 0 14000-12000 26000-26000 26000z" fill="#5cba51"/><path d="m3034000 2827000h-2246000c-15000 0-27000-12000-27000-27000 0-14000 12000-26000 27000-26000h2246000c14000 0 26000 12000 26000 26000 0 15000-12000 27000-26000 27000z" fill="#5cba51"/><path d="m1716000 2971000h-928000c-15000 0-27000-12000-27000-27000 0-14000 12000-26000 27000-26000h928000c14000 0 26000 12000 26000 26000 0 15000-12000 27000-26000 27000z" fill="#5cba51"/><path d="m1160000 3399000h885000v-237000h-885000z" fill="#5cba51" fill-opacity=".701961"/><path d="m1160000 4328000h401000v-876000h-401000z" fill="#5cba51" fill-opacity=".301961"/><path d="m2098000 4328000h460000v-876000h-460000z" fill="#5cba51" fill-opacity=".301961"/><path d="m2098000 3399000h936000v-237000h-936000z" fill="#5cba51" fill-opacity=".701961"/><path d="m2611000 4328000h423000v-876000h-423000z" fill="#5cba51" fill-opacity=".301961"/><path d="m788000 4328000h320000v-876000h-320000z" fill="#5cba51" fill-opacity=".501961"/><path d="m788000 3162000h320000v237000h-320000z" fill="#5cba51"/><path d="m1614000 4328000h431000v-876000h-431000z" fill="#5cba51" fill-opacity=".301961"/><path d="m3316000 4686000c-32000 0-57000-25000-57000-57000v-322000c0-32000 25000-58000 57000-58000 32000 0 57000 26000 57000 58000v323000c0 31000-26000 56000-57000 56000z" fill="#fff" fill-opacity=".4"/><path d="m4790000 104000v3302000l-550000 549000h-2173000c-47000 0-85000-38000-85000-84000v-3767000c0-47000 38000-85000 85000-85000h2638000c47000 0 85000 38000 85000 85000z" fill="#5cba51"/><path d="m4790000 248000v3158000l-550000 549000h-2173000c-47000 0-85000-38000-85000-84000v-3623000z" fill="#fff" fill-opacity=".6"/><path d="m4716000 124000c0-22000-18000-41000-40000-41000-23000 0-41000 19000-41000 41000 0 23000 18000 41000 41000 41000 22000 0 40000-18000 40000-41000z" fill="#fff" fill-opacity=".6"/><path d="m4560000 124000c0-22000-18000-41000-41000-41000s-41000 19000-41000 41000c0 23000 18000 41000 41000 41000s41000-18000 41000-41000z" fill="#fff" fill-opacity=".6"/><path d="m4404000 124000c0 23000-19000 41000-42000 41000-22000 0-41000-18000-41000-41000 0-22000 19000-41000 41000-41000h1000c22000 0 41000 18000 41000 41000z" fill="#fff" fill-opacity=".6"/><g fill="#5cba51"><path d="m3575000 518000h-537000c-14000 0-26000-12000-26000-26000 0-15000 12000-27000 26000-27000h537000c15000 0 26000 12000 26000 27000 0 14000-11000 26000-26000 26000z"/><path d="m3796000 661000h-978000c-14000 0-26000-12000-26000-27000 0-14000 12000-26000 26000-26000h978000c15000 0 26000 12000 26000 26000 0 15000-11000 27000-26000 27000z"/><path d="m3583000 805000h-551000c-15000 0-27000-12000-27000-26000 0-15000 12000-27000 27000-27000h553000c15000 0 27000 12000 27000 27000 0 14000-12000 26000-27000 26000z"/><path d="m4430000 1186000h-1926000c-14000 0-26000-12000-26000-26000 0-15000 12000-27000 26000-27000h1925000c14000 0 26000 12000 26000 27000 0 14000-12000 26000-26000 26000z"/><path d="m4108000 1762000h-1924000c-15000 0-26000-12000-26000-26000 0-15000 11000-27000 26000-27000h1924000c15000 0 26000 12000 26000 27000 0 14000-11000 26000-26000 26000z"/><path d="m4430000 1330000h-2247000c-14000 0-26000-12000-26000-26000 0-15000 12000-27000 26000-27000h2247000c14000 0 26000 12000 26000 27000 0 14000-12000 26000-26000 26000z"/><path d="m4430000 1474000h-2247000c-14000 0-26000-12000-26000-26000 0-15000 12000-27000 26000-27000h2247000c14000 0 26000 12000 26000 27000 0 14000-12000 26000-26000 26000z"/><path d="m4430000 1618000h-2247000c-14000 0-26000-12000-26000-26000 0-15000 12000-27000 26000-27000h2247000c14000 0 26000 12000 26000 27000 0 14000-12000 26000-26000 26000z"/><path d="m4430000 2636000h-1926000c-14000 0-26000-12000-26000-27000 0-14000 12000-26000 26000-26000h1925000c14000 0 26000 12000 26000 26000 0 15000-12000 27000-26000 27000z"/><path d="m4108000 3212000h-1924000c-15000 0-26000-12000-26000-27000 0-14000 11000-26000 26000-26000h1924000c15000 0 26000 12000 26000 26000 0 15000-11000 27000-26000 27000z"/><path d="m4430000 2780000h-2247000c-14000 0-26000-12000-26000-27000 0-14000 12000-26000 26000-26000h2247000c14000 0 26000 12000 26000 26000 0 15000-12000 27000-26000 27000z"/><path d="m4430000 2924000h-2247000c-14000 0-26000-12000-26000-27000 0-14000 12000-26000 26000-26000h2247000c14000 0 26000 12000 26000 26000 0 15000-12000 27000-26000 27000z"/><path d="m4430000 3068000h-2247000c-14000 0-26000-12000-26000-27000 0-14000 12000-26000 26000-26000h2247000c14000 0 26000 12000 26000 26000 0 15000-12000 27000-26000 27000z"/><path d="m4160000 459000h270000v359000h-270000z"/><circle cx="2333000" cy="608000" r="149000"/><path d="m2175000 1950000c1000 17000 15000 29000 32000 29000 16000 0 30000-12000 31000-29000 0-1000 0-2000 0-2000 0-18000-14000-32000-31000-32000-18000 0-32000 14000-32000 32000z"/><path d="m2175000 2094000v1000c0 17000 14000 31000 32000 31000 17000 0 31000-14000 31000-31000 0-18000-14000-32000-31000-32000h-1000c-17000 0-31000 14000-31000 31000z"/><path d="m2175000 2239000c1000 16000 15000 28000 32000 28000 16000 0 30000-12000 31000-28000 0-1000 0-2000 0-3000 0-18000-14000-32000-31000-32000-18000 0-32000 14000-32000 32000z"/><path d="m2175000 2382000c1000 17000 15000 29000 32000 29000 16000 0 30000-12000 31000-29000 0-1000 0-1000 0-2000 0-18000-14000-32000-31000-32000-18000 0-32000 14000-32000 32000z"/><path d="m2658000 1977000h-342000c-15000 0-27000-12000-27000-27000 0-14000 12000-26000 27000-26000h342000c15000 0 27000 12000 27000 26000 0 15000-12000 27000-27000 27000z"/><path d="m2980000 2121000h-665000c-14000 0-26000-12000-26000-27000 0-14000 12000-26000 26000-26000h665000c15000 0 27000 12000 27000 26000 0 15000-12000 27000-27000 27000z"/><path d="m2585000 2265000h-270000c-14000 0-26000-12000-26000-26000 0-15000 12000-27000 26000-27000h270000c14000 0 26000 12000 26000 27000 0 14000-12000 26000-26000 26000z"/><path d="m2875000 2409000h-560000c-14000 0-26000-12000-26000-27000 0-14000 12000-26000 26000-26000h560000c14000 0 26000 12000 26000 26000 0 15000-12000 27000-26000 27000z"/><path d="m4790000 3406000-550000 549000v-549000z" fill-opacity=".501961"/></g><path d="m4430000 459000-270000 359000h270000z" fill-opacity=".2"/><path d="m2246000 696000h174000v-175000h-174000z" fill-opacity=".2"/><path d="m4634000 3406000h156000v-3158000h-156000z" fill-opacity=".4"/><path d="m4712000 844000c-31000 0-57000-26000-57000-58000v-321000c0-31000 26000-57000 57000-57000 32000 0 57000 26000 57000 57000v323000c0 31000-26000 56000-57000 56000z" fill="#5cba51"/><path d="m4712000 844000c-31000 0-57000-26000-57000-58000v-321000c0-31000 26000-57000 57000-57000 32000 0 57000 26000 57000 57000v323000c0 31000-26000 56000-57000 56000z" fill="#fff" fill-opacity=".4"/></svg>