<svg clip-rule="evenodd" fill-rule="evenodd" height="339" image-rendering="optimizeQuality" shape-rendering="geometricPrecision" text-rendering="geometricPrecision" viewBox="0 0 14033000 9504000" width="500" xmlns="http://www.w3.org/2000/svg"><path d="m3064000 2643000c627000 56000 1335000-122000 1723000-583000 4025000-4776000 9869000-520000 9192000 5339000-380000 2637000-3369000 2504000-5353000 1196000-872000-574000-1506000-789000-2562000-603000-340000 59000-1737000 1231000-3239000 1224000-1043000-5000-1850000-585000-2327000-1397000-1165000-1984000-276000-5433000 2566000-5176000z" fill="#94d28d"/><path d="m1985000 4343000c-530000 0-959000-429000-959000-958000 0-37000 2000-73000 6000-108000 307000-279000 683000-484000 1126000-582000v1648000z" fill="#e0e0e0"/><path d="m3116000 3385000c0-307000-144000-580000-369000-755000-599000 4000-1102000 182000-1506000 477000-27000 88000-41000 181000-41000 278000 0 529000 429000 958000 958000 958000s958000-429000 958000-958000z" fill="#fafafa"/><path d="m2880000 3385000c0-360000-263000-658000-607000-713000-220000 38000-424000 102000-611000 188000-140000 132000-227000 318000-227000 525000 0 399000 324000 723000 723000 723000s722000-324000 722000-723000z" fill="#fff"/><path d="m2455000 3656000-354000-248000 112000-547000 101000 20000-99000 481000 299000 209000z" fill="#e0e0e0"/><path d="m9760000 9080000h1047000v-7000h-1047000z" fill="#e6e6e6"/><path d="m8040000 4185000h4148000v-2578000c-1115000-1175000-2614000-1797000-4148000-1554000z" fill="#e0e0e0"/><path d="m8093000 4185000h4208000v-2456000c-1114000-1240000-2641000-1912000-4208000-1684000z" fill="#f5f5f5"/><path d="m8040000 4456000h4148000v-271000h-4148000z" fill="#e0e0e0"/><path d="m8855000 4456000h3962000v-271000h-3962000z" fill="#f5f5f5"/><path d="m8251000 25000v3955000h3892000v-2421000c-1059000-1091000-2453000-1689000-3892000-1534000z" fill="#fafafa"/><path d="m8811000 3980000 812000-3878000c389000 86000 767000 226000 1128000 412000l-726000 3466000z" fill="#fff"/><path d="m10222000 3980000 705000-3370000c166000 95000 327000 199000 483000 313000l-640000 3057000z" fill="#fff"/><path d="m7922000 74000v992000h456000s521000-340000 826000-1035000c-420000-50000-850000-38000-1282000 43000z" fill="#e0e0e0"/><path d="m7922000 3825000v-2620000h456000s262000 529000 523000 1137000c57000 132000 86000 275000 86000 419000 0 587000-476000 1064000-1063000 1064000h-1000z" fill="#e0e0e0"/><path d="m7939000 1066000h425000c25000 0 45000 20000 45000 46000v47000c0 25000-20000 46000-45000 46000h-425000c-26000 0-46000-21000-46000-46000v-47000c0-26000 20000-46000 46000-46000z" fill="#f5f5f5"/><path d="m12434000 3825000v-1944000c-164000-195000-338000-376000-520000-545000-94000 194000-277000 581000-460000 1007000-56000 131000-85000 273000-85000 417000 0 587000 476000 1064000 1064000 1065000z" fill="#e0e0e0"/><path d="m3600000 3481000h1827000v-2000000h-97000c-184000 177000-365000 369000-543000 579000-280000 332000-725000 518000-1187000 574000z" fill="#e0e0e0"/><path d="m3699000 3481000h1985000v-2000000h-354000c-184000 177000-365000 369000-543000 579000-260000 309000-662000 490000-1088000 560000z" fill="#fafafa"/><path d="m3903000 2577000v700000h1576000v-1590000h-354000c-114000 118000-227000 242000-338000 373000-218000 259000-536000 428000-884000 517000z" fill="#fff"/><path d="m4274000 2482000c0-13000 0-26000 2000-38000 179000-85000 340000-197000 470000-338000 202000 7000 364000 172000 364000 376000 0 207000-168000 375000-376000 375000h-84000-1000c-207000 0-375000-168000-375000-375000z" fill="#f5f5f5"/><path d="m9067000 8858000h970000v-3529000h-1306000v3334000c109000 68000 222000 133000 336000 195000z" fill="#e0e0e0"/><path d="m9688000 8858000h349000v-584000h-715000z" fill="#fafafa"/><path d="m1511000 8858000h696000v-3529000h-1306000v3033000c179000 194000 383000 361000 610000 496000z" fill="#e0e0e0"/><path d="m1902000 8657000h2924000c607000-308000 1063000-635000 1238000-666000 1056000-185000 1690000 30000 2562000 604000 32000 21000 63000 42000 95000 62000h1316000v-3328000h-8135000z" fill="#fafafa"/><path d="m2251000 8858000h-349000v-584000h715000z" fill="#fafafa"/><path d="m2173000 6840000h7593000v-1225000h-7593000z" fill="#f0f0f0"/><path d="m2173000 8361000h3193000c334000-193000 580000-349000 698000-370000 897000-157000 1490000-26000 2183000 370000h1519000v-1225000h-7593000z" fill="#f0f0f0"/><path d="m2173000 6840000h6480000v-1225000h-6480000z" fill="#e0e0e0"/><path d="m4168000 5780000h-394000s69000 237000 69000 376000-300000 684000 128000 684000c429000 0 129000-545000 129000-684000s68000-376000 68000-376000z" fill="#fafafa"/><path d="m2617000 6191000v216000c0 238000 230000 433000 512000 433000h254000c282000 0 513000-195000 513000-433000v-216000z" fill="#f0f0f0"/><path d="m2173000 8361000h3193000c334000-193000 580000-349000 698000-370000 897000-157000 1490000-26000 2183000 370000h406000v-1225000h-6480000z" fill="#e0e0e0"/><path d="m6419000 7328000h-607000v775000c110000-61000 196000-102000 252000-112000 124000-21000 242000-37000 355000-48000z" fill="#fff"/><path d="m6366000 7344000h-41000v609000c13000-2000 27000-3000 41000-5000z" fill="#e6e6e6"/><path d="m6354000 7949000v-599000c0-8000 7000-14000 15000-14000h106000c8000 0 14000 6000 14000 14000v587000c-44000 3000-89000 7000-135000 12000z" fill="#ebebeb"/><path d="m6489000 7570000h-135000v240000h135000z" fill="#fff"/><path d="m6489000 7884000h-135000v65000c46000-5000 91000-9000 135000-12000z" fill="#fff"/><path d="m5767000 8128000v-778000c0-8000 6000-14000 14000-14000h547000c8000 0 15000 6000 15000 14000v601000c-90000 10000-182000 24000-279000 40000-64000 12000-165000 62000-297000 137000z" fill="#ebebeb"/><path d="m6186000 7221000h-670000v1052000c258000-151000 449000-264000 548000-282000 41000-7000 82000-13000 122000-19000z" fill="#fff"/><path d="m6127000 7239000h-45000v750000c15000-3000 30000-6000 45000-8000z" fill="#e6e6e6"/><path d="m6115000 7983000v-737000c0-9000 7000-16000 16000-16000h117000c8000 0 16000 7000 16000 16000v715000c-49000 6000-99000 14000-149000 22000z" fill="#f0f0f0"/><path d="m6264000 7591000h-149000v38000h149000z" fill="#fff"/><path d="m6264000 7703000h-149000v38000h149000z" fill="#fff"/><path d="m6264000 7814000h-149000v39000h149000z" fill="#fff"/><path d="m5466000 8303000v-1057000c0-9000 7000-16000 16000-16000h604000c8000 0 16000 7000 16000 16000v739000c-13000 2000-25000 4000-38000 6000-106000 19000-315000 146000-598000 312000z" fill="#f0f0f0"/><path d="m4691000 7974000c0 95000-77000 172000-171000 172000-95000 0-172000-77000-172000-172000s77000-172000 172000-172000c94000 0 171000 77000 171000 172000z" fill="#fafafa"/><path d="m4399000 8056000c0 74000-60000 134000-134000 134000-75000 0-135000-60000-135000-134000 0-75000 60000-135000 135000-135000 74000 1000 134000 61000 134000 135000z" fill="#fafafa"/><path d="m4985000 8056000c0 94000-77000 171000-172000 171000-94000 0-171000-77000-171000-171000 0-95000 77000-172000 171000-172000 95000 0 172000 77000 172000 172000z" fill="#fafafa"/><path d="m5266000 8005000c0 95000-77000 172000-171000 172000-95000 0-172000-77000-172000-172000 0-94000 77000-171000 172000-171000 94000 0 171000 77000 171000 171000z" fill="#fafafa"/><path d="m3792000 8028000s24000 334000 927000 334000 926000-334000 926000-334000z" fill="#f5f5f5"/><path d="m6325000 6505000s37000 335000 1468000 335000 1468000-335000 1468000-335000z" fill="#fff"/><path d="m2455000 9189000v-239000h-30000v235000c10000 2000 20000 3000 30000 4000z" fill="#5cba51"/><path d="m2455000 9189000v-239000h-30000v235000c10000 2000 20000 3000 30000 4000z" fill-opacity=".101961"/><path d="m11388000 6699000h31000v-471000h-31000z" fill="#5cba51"/><path d="m11388000 7201000h31000v-255000h-31000z" fill="#5cba51"/><path d="m11388000 6699000h31000v-471000h-31000z" fill-opacity=".101961"/><path d="m11388000 7201000h31000v-255000h-31000z" fill-opacity=".101961"/><path d="m2990000 4186000h7864000c253000 0 458000 205000 458000 458000v4604000c0 92000-27000 178000-74000 249000-878000-49000-1824000-382000-2612000-902000-872000-574000-1506000-789000-2562000-604000-340000 60000-1737000 1232000-3239000 1225000-100000 0-198000-6000-294000-17000v-4555000c0-253000 206000-458000 459000-458000z" fill="#5cba51"/><path d="m2990000 4186000h7864000c253000 0 458000 205000 458000 458000v4604000c0 92000-27000 178000-74000 249000-878000-49000-1824000-382000-2612000-902000-872000-574000-1506000-789000-2562000-604000-340000 60000-1737000 1232000-3239000 1225000-100000 0-198000-6000-294000-17000v-4555000c0-253000 206000-458000 459000-458000z" fill-opacity=".2"/><g fill="#5cba51"><path d="m3771000 4878000h4368000c214000 0 387000 173000 387000 387000v1735000c0 214000-173000 387000-387000 387000h-4368000c-213000 0-386000-173000-386000-387000v-1735000c0-214000 173000-387000 386000-387000z"/><path d="m3589000 8022000h1056000c113000 0 205000 92000 205000 205000v191000c0 114000-92000 205000-205000 205000h-1056000c-113000 0-204000-91000-204000-205000v-191000c0-113000 91000-205000 204000-205000z"/><path d="m5459000 8022000h513000c-153000 66000-402000 223000-718000 403000 0-2000 0-4000 0-7000v-191000c0-113000 92000-205000 205000-205000zm2006000 0h86000c67000 0 127000 33000 164000 83000-83000-32000-166000-60000-250000-83000z"/><path d="m7465000 8022000h920000c113000 0 204000 92000 204000 205000v191000c0 48000-16000 91000-42000 126000-385000-248000-725000-423000-1082000-522000z"/><path d="m9198000 8022000h1056000c113000 0 205000 92000 205000 205000v191000c0 114000-92000 205000-205000 205000h-1056000c-113000 0-205000-91000-205000-205000v-191000c0-113000 92000-205000 205000-205000z"/></g><path d="m8231000 2189000c-73000 203000-153000 400000-238000 597000-85000 200000-184000 396000-295000 583000-15000 24000-30000 48000-46000 72000l-12000 18000-16000 22000c-11000 14000-22000 26000-31000 38000-38000 43000-79000 83000-122000 122000-81000 75000-164000 143000-247000 210000-168000 134000-340000 258000-518000 377000l-106000-132000 447000-441000c74000-73000 148000-147000 216000-221000 34000-37000 67000-75000 94000-110000 7000-8000 12000-17000 18000-24000l6000-10000 9000-16000 36000-63000c93000-175000 175000-365000 254000-558000s155000-388000 228000-581000z" fill="#e4897b"/><path d="m8316000 2042000c69000 202000-337000 796000-337000 796000l-388000-215000c66000-185000 145000-367000 234000-542000 136000-257000 415000-261000 491000-39000z" fill="#5cba51"/><path d="m8316000 2042000c69000 202000-337000 796000-337000 796000l-388000-215000c66000-185000 145000-367000 234000-542000 136000-257000 415000-261000 491000-39000z" fill="#fff" fill-opacity=".701961"/><path d="m8322000 2067000c-87000-42000-187000-7000-293000 160000s-195000 445000-205000 525000l155000 86000s375000-549000 343000-771000z" fill="#5cba51" fill-opacity=".309804"/><path d="m8053000 1887000s-289000 682000-81000 1951000h1207000c15000-186000-70000-1089000 139000-1962000-132000-26000-268000-44000-402000-52000-85000-4000-172000-7000-257000-7000s-172000 3000-256000 7000c-118000 12000-235000 34000-349000 63000z" fill="#5cba51"/><path d="m8053000 1887000s-289000 682000-81000 1951000h1207000c15000-186000-70000-1089000 139000-1962000-132000-26000-268000-44000-402000-52000-85000-4000-172000-7000-257000-7000s-172000 3000-256000 7000c-118000 12000-235000 34000-349000 63000z" fill="#fff" fill-opacity=".701961"/><path d="m9216000 8935000 50000-45000 124000 128000c-59000-27000-117000-54000-174000-83000z" fill="#e4897b"/><path d="m9390000 9018000-123000-128000-51000 45000c58000 29000 116000 57000 174000 83000z" fill="#ce6f64"/><path d="m7972000 3838000s-237000 1645000-318000 2541000c-44000 483000 646000 1613000 1101000 2299000 201000 124000 411000 237000 627000 336000l61000-57000s-1135000-1921000-1048000-2721000c85000-775000 372000-2399000 372000-2399000z" fill="#5cba51"/><path d="m7972000 3838000s-237000 1645000-318000 2541000c-44000 483000 646000 1613000 1101000 2299000 201000 124000 411000 237000 627000 336000l61000-57000s-1135000-1921000-1048000-2721000c85000-775000 372000-2399000 372000-2399000z" fill-opacity=".701961"/><path d="m8395000 6237000c44000-399000 141000-1024000 225000-1536000-44000-86000-167000-260000-167000-260000-110000 381000-349000 1816000-8000 3755000 108000 173000 214000 337000 310000 482000 132000 82000 269000 159000 408000 230000l26000-408000c-329000-619000-854000-1710000-794000-2263000z" fill-opacity=".2"/><path d="m8402000 3838000s-22000 1724000 15000 2370000c26000 462000 120000 1621000 183000 2370000 9000 6000 17000 12000 26000 17000 143000 95000 291000 183000 443000 264000-2000-688000-4000-2070000 14000-2586000 27000-761000 97000-2435000 97000-2435000z" fill="#5cba51"/><path d="m8402000 3838000s-22000 1724000 15000 2370000c26000 462000 120000 1621000 183000 2370000 9000 6000 17000 12000 26000 17000 143000 95000 291000 183000 443000 264000-2000-688000-4000-2070000 14000-2586000 27000-761000 97000-2435000 97000-2435000z" fill-opacity=".701961"/><path d="m6651000 4068000-235000 8000 49000 184000s246000 22000 268000-52000z" fill="#e4897b"/><path d="m6162000 4186000 165000 96000 138000-22000-49000-184000z" fill="#e4897b"/><path d="m9048000 2091000c-25000 144000 9000 487000 132000 885000 9000-340000 49000-681000 118000-1014000v-1000c-79000-8000-226000-5000-250000 130000z" fill="#5cba51" fill-opacity=".309804"/><path d="m8885000 1247000c-38000 165000-81000 467000 30000 578000 0 0-48000 137000-355000 137000-337000 0-158000-137000-158000-137000 186000-44000 186000-180000 158000-309000z" fill="#e4897b"/><path d="m8552000 1961000-91000 97000 44000 94000 73000 3000 62000-89000z" fill="#5cba51"/><path d="m8753000 1357000-192000 159000c7000 29000 11000 60000 13000 91000 70000-10000 169000-87000 179000-161000 3000-14000 4000-29000 4000-43000 0-16000-1000-31000-4000-46000z" fill="#ce6f64"/><path d="m8485000 687000c-116000 40000-208000 346000-73000 426000 134000 81000 292000-500000 73000-426000z" fill="#263238"/><path d="m8957000 1074000c-69000 213000-98000 342000-237000 429000-47000 30000-102000 46000-158000 46000-161000 0-291000-130000-291000-291000 0-4000 0-7000 0-10000 2000-205000 114000-520000 350000-560000 19000-3000 38000-5000 56000-5000 164000 0 296000 132000 296000 295000 0 33000-5000 65000-16000 96000z" fill="#e4897b"/><path d="m9127000 718000c-68000 166000 92000 27000 50000 224000-26000 129000-258000 437000-348000 409000-89000-28000-88000-247000 26000-401000 66000-89000-77000-189000-396000-178000-319000 10000-512000-169000-88000-301000 0 0-156000 91000-63000 122000 131000 49000 957000-208000 819000 125000z" fill="#263238"/><path d="m9067000 794000c-4000 0 71000-19000 111000-152000 0 2000-13000 199000-111000 152000z" fill="#263238"/><path d="m8469000 500000c-196000 61000-115000 130000-34000 147000l187000-73000c-283000 37000-153000-74000-153000-74000z" fill="#263238"/><path d="m8995000 1334000c-41000 40000-95000 62000-152000 63000-76000 0-92000-71000-51000-131000 36000-53000 118000-118000 184000-89000 67000 29000 69000 108000 19000 157000z" fill="#e4897b"/><path d="m8610000 1062000c-4000 18000-17000 30000-30000 27000s-17000-19000-13000-36000c5000-18000 18000-31000 31000-27000 12000 3000 17000 18000 12000 36000z" fill="#263238"/><path d="m8409000 1018000c-4000 18000-17000 30000-30000 27000s-17000-19000-13000-36000c5000-18000 18000-31000 31000-28000s16000 19000 12000 37000z" fill="#263238"/><path d="m8471000 1041000c-35000 49000-76000 94000-122000 132000 20000 22000 48000 35000 78000 35000h3000z" fill="#de5753"/><path d="m8504000 1272000c-12000 0-25000-2000-37000-4000-2000-1000-4000-3000-4000-6000v-1000c1000-2000 3000-4000 5000-4000h1000c11000 3000 22000 4000 34000 4000 34000 0 68000-12000 95000-34000 2000-1000 3000-2000 4000-2000 2000 0 3000 1000 4000 2000s2000 2000 2000 4000c0 1000-1000 2000-2000 3000-28000 24000-64000 38000-101000 38000 0 0 0 0-1000 0z" fill="#263238"/><path d="m8690000 1011000c-4000 0-8000-2000-10000-6000-10000-25000-31000-43000-57000-49000-6000-1000-10000-5000-10000-11000v-1000c1000-6000 6000-10000 11000-10000h2000c33000 7000 61000 30000 74000 61000 1000 2000 1000 3000 1000 5000 0 4000-3000 8000-7000 9000-1000 1000-2000 2000-4000 2000z" fill="#263238"/><path d="m8342000 931000c-3000 0-5000-1000-7000-3000-3000-2000-4000-5000-4000-8000s1000-5000 2000-7000c22000-26000 54000-42000 87000-42000h3000c5000 1000 10000 5000 10000 11000v1000c-1000 5000-5000 10000-11000 10000 0 0-1000 0-1000-1000h-1000c-27000 0-53000 13000-70000 35000-2000 2000-5000 4000-8000 4000z" fill="#263238"/><path d="m9376000 2031000c24000 37000 44000 70000 64000 105000s39000 69000 58000 105000c37000 70000 72000 142000 104000 215000 67000 150000 118000 308000 150000 468000l3000 16000 2000 7000 2000 13000c3000 17000 4000 35000 4000 52000 0 29000-3000 57000-9000 86000-10000 46000-25000 92000-45000 135000-34000 77000-75000 151000-121000 220000-89000 132000-190000 256000-301000 369000l-132000-106000c73000-129000 147000-262000 208000-392000 30000-63000 56000-128000 77000-193000 9000-28000 15000-56000 18000-85000 1000-5000 1000-10000 1000-14000 0-5000 0-10000-1000-14000 0-3000 0-6000-2000-6000s0 0 0-1000l-2000-6000-3000-13000c-19000-67000-43000-133000-69000-198000-26000-66000-56000-132000-88000-197000-31000-65000-65000-130000-100000-195000-17000-32000-35000-64000-52000-95000l-54000-92000z" fill="#e4897b"/><path d="m9215000 3667000-224000-40000 116000 261000s205000 0 196000-108000z" fill="#e4897b"/><path d="m8823000 3758000 105000 210000 178000-80000-116000-261000z" fill="#e4897b"/><path d="m9461000 8941000-79000 74000c-50000-23000-100000-47000-149000-72000l168000-153000z" fill="#5cba51"/><path d="m9461000 8941000-79000 74000c-50000-23000-100000-47000-149000-72000l168000-153000z" fill="#fff" fill-opacity=".6"/><path d="m9318000 1876000c213000 30000 431000 770000 431000 770000l-456000 254000s-186000-352000-274000-613000c-93000-274000 71000-445000 299000-411000z" fill="#5cba51"/><path d="m9318000 1876000c213000 30000 431000 770000 431000 770000l-456000 254000s-186000-352000-274000-613000c-93000-274000 71000-445000 299000-411000z" fill="#fff" fill-opacity=".701961"/><path d="m8552000 1961000-91000 97000 44000 94000 73000 3000 62000-89000z" fill-opacity=".2"/><path d="m8513000 2135000s-173000 718000-180000 867000c-9000 205000 77000 555000 77000 555000s122000-291000 147000-562000c24000-270000 6000-708000 17000-860000z" fill="#5cba51"/><path d="m8513000 2135000s-173000 718000-180000 867000c-9000 205000 77000 555000 77000 555000s122000-291000 147000-562000c24000-270000 6000-708000 17000-860000z" fill-opacity=".2"/><path d="m8552000 1961000c35000 56000 55000 120000 58000 186000 4000 66000 380000-134000 362000-330000 0 0-54000-32000-88000-58000 0 0-12000 124000-332000 202000z" fill="#5cba51"/><path d="m8552000 1961000c35000 56000 55000 120000 58000 186000 4000 66000 380000-134000 362000-330000 0 0-54000-32000-88000-58000 0 0-12000 124000-332000 202000z" fill="#fff" fill-opacity=".6"/><path d="m8552000 1961000c-35000 53000-60000 112000-74000 174000s-172000-116000-121000-310000c32000-12000 64000-23000 98000-30000 33000-8000-23000 125000 97000 166000z" fill="#5cba51"/><path d="m8552000 1961000c-35000 53000-60000 112000-74000 174000s-172000-116000-121000-310000c32000-12000 64000-23000 98000-30000 33000-8000-23000 125000 97000 166000z" fill="#fff" fill-opacity=".6"/></svg>