<svg clip-rule="evenodd" fill-rule="evenodd" height="284" image-rendering="optimizeQuality" shape-rendering="geometricPrecision" text-rendering="geometricPrecision" viewBox="0 0 50000000 28367000" width="500" xmlns="http://www.w3.org/2000/svg"><path d="m38124000 5630000c4014000 490000 8721000 1319000 11183000 8467000 2122000 6164000-402000 13502000-10721000 14246000-9118000 657000-9907000-12735000-27475000-3216000-8534000 4623000-13945000-10526000-9545000-14819000 2503000-2442000 5455000-1692000 6664000-4533000 1323000-3108000 7259000-7578000 17712000-5011000 5265000 1294000 6888000 4220000 12182000 4866000z" fill="#94d28d"/><path d="m31236000 5253000h-25819000l988000 20444000c1158000 604000 2677000 529000 4706000-570000 12576000-6814000 16554000-1889000 21144000 1220000z" fill="#5cba51"/><path d="m31236000 5253000h-25819000l988000 20444000c1158000 604000 2677000 529000 4706000-570000 12576000-6814000 16554000-1889000 21144000 1220000z" fill-opacity=".2"/><path d="m31474000 5253000h-25818000l994000 20560000c1125000 472000 2572000 337000 4461000-686000 12801000-6936000 16694000-1709000 21391000 1385000z" fill="#5cba51"/><path d="m30111000 6435000h-23275000l986000 19634000c916000 40000 1999000-243000 3289000-942000 11786000-6386000 16020000-2461000 20284000 617000z" fill-opacity=".2"/><path d="m30289000 6434000c158000 6463000 583000 12947000 1233000 19401000-4307000-3090000-8508000-7157000-20411000-708000-1172000 634000-2173000 926000-3033000 945000-657000-6534000-1076000-13094000-1231000-19631000z" fill="#fff" stroke="#fff" stroke-miterlimit="22.9256" stroke-width="236000"/><path d="m13148000 9398000c44000 1186000 95000 2372000 154000 3559000h-3558000c-60000-1187000-111000-2373000-155000-3559000zm362000-375000h-4309000c50000 1436000 112000 2872000 187000 4309000h4311000c-75000-1436000-137000-2873000-187000-4309000z" fill="#5cba51"/><path d="m27687000 10734000h-12187000c-12000-268000-22000-536000-32000-804000h12187000c10000 268000 21000 536000 32000 804000z" fill="#e0e0e0"/><path d="m25112000 12425000h-9537000c-13000-269000-26000-536000-37000-804000h9536000c13000 268000 26000 536000 38000 804000z" fill="#e0e0e0"/><path d="m13497000 16369000c75000 1187000 158000 2374000 250000 3561000h-3560000c-91000-1187000-175000-2374000-249000-3561000zm352000-375000h-4310000c88000 1437000 188000 2874000 301000 4312000h4316000c-112000-1437000-213000-2874000-303000-4312000z" fill="#5cba51"/><path d="m20360000 17706000h-4480000c-18000-269000-37000-536000-53000-805000h4480000c16000 269000 34000 536000 53000 805000z" fill="#e0e0e0"/><path d="m24602000 17706000h-3294000c-18000-269000-37000-536000-54000-805000h3294000c17000 269000 35000 536000 54000 805000z" fill="#e0e0e0"/><path d="m26669000 19398000h-10665000c-21000-268000-40000-536000-60000-805000h10666000c20000 269000 39000 537000 59000 805000z" fill="#e0e0e0"/><g fill="#5cba51"><path d="m14031000 23343000 30000 328000zm-3370000 2014000c-66000-672000-129000-1343000-189000-2014000h3559000zm3713000-2389000h-4311000c75000 852000 155000 1703000 238000 2555000 118000-52000 238000-107000 360000-166000 147000-72000 296000-147000 450000-230000 1041000-564000 2021000-1046000 2950000-1456000 122000-54000 242000-107000 362000-158000-16000-182000-33000-363000-49000-545000z"/><path d="m11580000 12449000-158000-251000c-345000-549000-1049000-1038000-1292000-1182000l182000-321000c476000 289000 903000 656000 1261000 1083000 542000-738000 1344000-1501000 2442000-2321000l232000 303000c-1172000 877000-1992000 1680000-2509000 2453000z"/><path d="m12005000 19422000-165000-251000c-358000-549000-1075000-1039000-1321000-1183000l171000-321000c486000 289000 923000 656000 1291000 1084000 522000-739000 1303000-1502000 2379000-2323000 80000 101000 160000 202000 240000 304000-1148000 878000-1947000 1680000-2443000 2454000-51000 78000-101000 157000-152000 236000z"/><path d="m11231000 25063000c-52000-34000-97000-61000-133000-81000 54000-112000 112000-216000 163000-322000 114000 67000 224000 137000 332000 211000-120000 64000-240000 126000-362000 192000z"/></g><path d="m24862000 6123000c-379000-1008000-1254000-1670000-2194000-1670000h-1918000c-292000-2000-554000-179000-666000-448000-277000-658000-918000-1089000-1632000-1096000-5000 0-11000 0-16000 0-688000 0-1297000 443000-1510000 1096000-86000 267000-335000 448000-615000 448000-3000 0-6000 0-8000 0h-1917000c-942000 0-1753000 665000-2033000 1670000l-112000 400000h12768000z" fill="#263238"/><path d="m24930000 6917000h-12566000c-220000-2000-401000-175000-414000-394000 0-7000 0-14000 0-20000 0-206000 167000-373000 373000-373000h2000 12567000c219000 2000 400000 174000 413000 393000 1000 7000 1000 14000 1000 21000 0 206000-167000 373000-373000 373000-1000 0-2000 0-3000 0z" fill="#5cba51"/><path d="m24930000 6917000h-12566000c-220000-2000-401000-175000-414000-394000 0-7000 0-14000 0-20000 0-206000 167000-373000 373000-373000h2000 12567000c219000 2000 400000 174000 413000 393000 1000 7000 1000 14000 1000 21000 0 206000-167000 373000-373000 373000-1000 0-2000 0-3000 0z" fill-opacity=".2"/><path d="m37003000 10138000c-112000 601000-176000 1344000 244000 1745000 0 0-241000 609000-1357000 609000-1019000 0-508000-609000-508000-609000 672000-160000 634000-988000 517000-1456000z" fill="#ffc3bd"/><path d="m35061000 11967000c23000-149000 285000-322000 583000-387000s1442000-210000 1792000-65000c349000 144000-61000 572000-61000 572000z" fill="#5cba51"/><path d="m35061000 11967000c23000-149000 285000-322000 583000-387000s1442000-210000 1792000-65000c349000 144000-61000 572000-61000 572000z" fill="#fff" fill-opacity=".4"/><path d="m38947000 12622000-989000 661000s1420000 2526000 1301000 2930000c-162000 551000-388000 1755000-696000 2367000 40000 132000 245000 433000 359000 485000 784000-596000 1576000-2464000 1547000-2987000-69000-1186000-1522000-3456000-1522000-3456000z" fill="#ffc3bd"/><path d="m38563000 18582000-784000-61000 411000 864000s684000 30000 798000-493000z" fill="#b55b52"/><path d="m42438000 22793000-66000 124000-444000 839000-15745000-8325000 509000-963000z" fill="#5cba51"/><path d="m43456000 20870000-325000 614000-184000 347000-15746000-8325000 509000-963000z" fill="#5cba51"/><path d="m42437000 22802000 509000-962000-15739000-8337000-510000 962000z" fill="#5cba51"/><path d="m42437000 22802000 509000-962000-15739000-8337000-510000 962000z" fill-opacity=".2"/><path d="m25504000 12671000-458000 866000 1137000 1894000 1527000-2887000z" fill="#5cba51"/><path d="m25504000 12671000-458000 866000 1137000 1894000 1527000-2887000z" fill="#fff" fill-opacity=".8"/><path d="m24559000 12725000 487000 812000 458000-866000z" fill="#5cba51"/><path d="m37148000 18915000 410000 763000 635000-293000-411000-864000z" fill="#b55b52"/><path d="m38712000 12069000c776000 112000 1665000 2800000 1665000 2800000l-1631000 921000s-718000-1275000-1070000-2227000c-372000-995000 203000-1615000 1036000-1494000z" fill="#263238"/><path d="m38260000 12991000c-353000-323000-136000 1058000 31000 1942000 87000 172000 169000 329000 238000 460000 393000-694000 217000-1957000-269000-2402000z" fill-opacity=".2"/><path d="m34115000 12112000s-969000 2477000-49000 7091000h4394000c30000-671000-394000-3960000 256000-7134000-484000-93000-977000-157000-1470000-186000-308000-17000-622000-27000-932000-27000s-624000 10000-932000 28000c-427000 42000-853000 119000-1267000 228000z" fill="#263238"/><path d="m34790000 13263000-1106000-438000s-1275000 2602000-1680000 2733000c-546000 179000-1666000 672000-2344000 768000-85000 112000-218000 448000-196000 571000 935000 306000 2925000-99000 3337000-420000 946000-730000 1989000-3214000 1989000-3214000z" fill="#ffc3bd"/><path d="m34915000 12967000c-183000-421000-532000-597000-896000-535000-141000 516000-380000 1651000-336000 3360000l261000 125000s1283000-2230000 971000-2950000z" fill-opacity=".2"/><path d="m35089000 12673000c276000 735000-1120000 2896000-1120000 2896000l-1642000-896000c246000-671000 567000-1317000 950000-1920000 576000-862000 1509000-885000 1812000-80000z" fill="#263238"/><path d="m29700000 16324000-977000 207000 495000 904000c273000-135000 522000-317000 734000-535000z" fill="#ffc3bd"/><path d="m28262000 16736000 390000 540000 566000 164000-495000-904000z" fill="#ffc3bd"/><path d="m35142000 9275000c0 66000-41000 112000-85000 112000s-75000-59000-71000-125000c5000-66000 42000-112000 86000-112000 43000 0 75000 59000 70000 125000z" fill="#263238"/><path d="m35200000 9280000c-90000 197000-207000 382000-348000 547000 68000 54000 152000 84000 239000 84000 24000 0 49000-2000 73000-7000z" fill="#ed847e"/><path d="m35058000 9046000c-6000-1000-12000-3000-17000-7000-11000-6000-18000-19000-18000-32000 0-7000 3000-15000 7000-21000 66000-107000 179000-175000 304000-184000 21000 1000 38000 18000 39000 39000 0 22000-18000 40000-39000 40000-97000 8000-184000 63000-234000 146000-7000 12000-20000 20000-34000 20000-3000 0-5000 0-8000-1000z" fill="#263238"/><path d="m37369000 9218000c-97000 808000-112000 1285000-546000 1680000-653000 591000-1633000 162000-1781000-660000-132000-739000 49000-1937000 862000-2214000 116000-41000 239000-61000 363000-61000 614000 0 1111000 497000 1111000 1111000 0 48000-3000 96000-9000 144000z" fill="#ffc3bd"/><path d="m35739000 9376000c-283000 55000-736000-574000-366000-1108000-187000-93000-798000 274000-1027000-69000-230000-342000 407000-525000 285000-815000 433000 89000-280000 629000 131000 576000s885000-812000 1344000-501000c812000 546000 1919000-364000 1468000 775000 553000-112000 931000 542000 404000 996000-1052000 902000-404000 1020000-1071000 1066000-334000 25000-1110000-373000-1168000-920000z" fill="#263238"/><path d="m36159000 9587000c-78000 164000-219000 288000-391000 346000-224000 78000-353000-123000-300000-344000 47000-199000 224000-479000 456000-459000 156000 16000 276000 147000 276000 305000 0 53000-14000 106000-41000 152000z" fill="#ffc3bd"/><path d="m35623000 19203000s931000 6273000 1442000 8624000c32000 149000 70000 318000 112000 503000 448000 41000 916000 49000 1409000 13000 330000-24000 652000-54000 965000-91000-8000-67000-17000-131000-24000-192000-346000-2764000-1072000-8853000-1072000-8853000z" fill="#5cba51"/><path d="m35623000 19203000s931000 6273000 1442000 8624000c32000 149000 70000 318000 112000 503000 448000 41000 916000 49000 1409000 13000 330000-24000 652000-54000 965000-91000-8000-67000-17000-131000-24000-192000-346000-2764000-1072000-8853000-1072000-8853000z" fill="#fff" fill-opacity=".2"/><path d="m36729000 21396000c-69000-98000-132000-132000-190000-112000h-13000c-13000 6000-25000 14000-37000 23000-11000 9000-22000 20000-32000 32000l-18000 23000-23000 37000c-20000 32000-37000 66000-51000 102000-9000 21000-18000 43000-26000 66000-7000 22000-20000 57000-29000 88000-9000 32000-25000 85000-38000 131000 0 13000-5000 24000-9000 36000-3000 12000-12000 52000-18000 77000-5000 26000-10000 45000-14000 68000-10000 43000-19000 89000-28000 136000s-19000 102000-28000 155000c0 18000-6000 36000-9000 55000-11000 67000-22000 135000-32000 206000 249000 1561000 545000 3351000 784000 4600000 12000-41000 24000-83000 34000-129000 48000-208000 87000-421000 112000-632000 212000-1609000 114000-4320000-335000-4962000z" fill-opacity=".2"/><path d="m34066000 19203000s-100000 5488000-36000 8201000c780000 389000 1605000 689000 2512000 844000 1000-72000 3000-142000 5000-208000 67000-2786000 403000-8837000 403000-8837000z" fill="#5cba51"/><path d="m34066000 19203000s-100000 5488000-36000 8201000c780000 389000 1605000 689000 2512000 844000 1000-72000 3000-142000 5000-208000 67000-2786000 403000-8837000 403000-8837000z" fill="#fff" fill-opacity=".2"/></svg>