<svg clip-rule="evenodd" fill-rule="evenodd" height="393" image-rendering="optimizeQuality" shape-rendering="geometricPrecision" text-rendering="geometricPrecision" viewBox="0 0 7108000 5589000" width="500" xmlns="http://www.w3.org/2000/svg"><path d="m6011000 72000c-585000-210000-1213000 96000-1824000 208000-923000 169000-1922000-104000-2786000 263000-592000 251000-1043000 795000-1209000 1416000-165000 621000-49000 1305000 286000 1854000 214000 349000 510000 642000 825000 903000 320000 264000 668000 502000 1054000 654000 536000 210000 1126000 248000 1700000 202000 399000-31000 799000-103000 1165000-265000 346000-153000 654000-386000 910000-663000 634000-688000 933000-1636000 963000-2571000 25000-772000-275000-1711000-1084000-2001000z" fill="#94d28d"/><path d="m3512000 1433000c-1000-32000 23000-475000 666000-307000 644000 167000 1684000 540000 1684000 540000l-166000 441000s-420000 246000-1109000 273000c0 0-401000 386000-807000 411000-368000 23000-967000-1116000-967000-1116000z" fill="#fff"/><path d="m3910000 1468000 155000 1674000c8000 79000-11000 159000-53000 226000-60000 96000-162000 159000-275000 169000l-3186000 294000c-51000 5000-104000-1000-152000-18000-26000-9000-51000-21000-74000-35000-96000-60000-159000-162000-169000-275000l-43000-470000-111000-1204000c-8000-79000 11000-159000 53000-226000 60000-96000 162000-159000 275000-169000l1278000-118000 950000-88000 903000-83000 35000 19000c51000 12000 158000 61000 237000 101000 60000 30000 78000 42000 152000 99000 2000 2000 2000 6000 3000 8000 12000 31000 19000 63000 22000 96000z" fill="#44a839"/><path d="m349000 2100000-27000-296000c-6000-59000 38000-111000 97000-117000l471000-43000c59000-6000 112000 38000 117000 97000l27000 296000c6000 59000-38000 111000-97000 117000l-471000 43000c-59000 6000-112000-38000-117000-97000z" fill="#fff"/><path d="m336000 2100000-28000-294000c-3000-34000 8000-65000 28000-89000 20000-23000 48000-40000 82000-43000 157000-14000 315000-30000 472000-43000 33000-3000 64000 8000 87000 27000 24000 20000 40000 49000 43000 82000 10000 98000 18000 196000 27000 294000v3000c3000 33000-8000 63000-27000 87000-20000 23000-48000 39000-81000 43000 0 0-1000 0-2000 0l-469000 43000c-1000 0-1000 0-2000 0-33000 3000-64000-8000-87000-27000-24000-19000-40000-48000-43000-80000 0-1000 0-2000 0-3000zm-1000-297000 27000 296000c2000 26000 15000 48000 34000 64000 18000 15000 43000 24000 69000 21000 156000-16000 315000-25000 471000-43000 26000-3000 48000-15000 64000-34000 15000-19000 24000-43000 21000-69000-9000-99000-17000-198000-27000-296000-3000-26000-15000-48000-34000-64000-18000-15000-42000-23000-68000-21000l-472000 43000c-26000 3000-48000 16000-64000 34000-15000 19000-24000 43000-21000 69000z" fill="#263238" fill-rule="nonzero"/><path d="m335000 1959000c-7000 0-13000-5000-14000-12000 0-7000 5000-14000 12000-14000l687000-53000c7000-1000 13000 5000 14000 12000 0 7000-5000 13000-12000 14000z" fill="#263238" fill-rule="nonzero"/><path d="m716000 2174000c0 7000-5000 14000-12000 15000-7000 0-14000-5000-15000-12000l-46000-510000c-1000-8000 5000-14000 12000-15000 7000 0 13000 5000 14000 12000z" fill="#263238" fill-rule="nonzero"/><path d="m3835000 3197000 7000 87000-1399000 129000-8000-87000z" fill="#263238"/><path d="m3823000 3051000 7000 87000-1400000 129000-9000-86000z" fill="#263238"/><path d="m3812000 2905000 7000 86000-1403000 130000-8000-86000z" fill="#263238"/><path d="m2681000 1911000 7000 86000-1387000 128000-7000-86000z" fill="#263238"/><path d="m3979000 2212000-12000-134000-3907000 360000 13000 135000z" fill="#263238"/><path d="m5691000 1100000c-7000 3000-14000 0-17000-7000s1000-15000 7000-17000c49000-20000 101000-46000 154000-74000 165000-85000 338000-175000 475000-59000 86000 75000 164000 158000 235000 247000 71000 90000 133000 185000 187000 286000 3000 7000 1000 15000-6000 18000-6000 4000-14000 1000-18000-5000-53000-100000-114000-195000-184000-283000-70000-87000-147000-169000-231000-243000-123000-105000-289000-19000-446000 63000-53000 27000-106000 55000-156000 74000z" fill="#263238" fill-rule="nonzero"/><path d="m6910000 993000c-162000-58000-279000-77000-373000-75000-94000 1000-165000 24000-232000 48000-7000 2000-14000-1000-17000-8000-2000-7000 2000-15000 9000-17000 69000-24000 141000-48000 240000-50000 92000-2000 205000 16000 359000 69000 5000 11000 10000 22000 14000 33000z" fill="#263238" fill-rule="nonzero"/><path d="m6903000 976000c-74000-26000-319000-100000-568000-35000 0 0-136000-82000-279000-23000-143000 58000-411000 161000-411000 161000s-964000-153000-1132000-191000-489000-104000-807000-234000c-119000-34000-204000-94000-260000-106000l-132000-29000-123000 8000-101000 54000-27000 87000s-22000 289000 237000 404000 401000 161000 530000 253000c129000 91000 623000 336000 836000 318000 0 0 678000 368000 882000 419000 6000 1000 12000 3000 17000 4000 180000 32000 386000 944000 346000 1345000 0 0 40000 69000-50000 178000-90000 110000-222000 307000-333000 288000-110000-20000-946000-216000-946000-216000s-1004000-360000-1234000 15000c5000 31000-69000 54000-93000 201000-16000 192000 353000 310000 614000 381000s944000 265000 1228000 403000c154000 75000 355000 252000 546000 409000 178000-123000 354000-256000 501000-415000 633000-687000 933000-1647000 963000-2582000 11000-357000-58000-749000-204000-1097000z" fill="#fff"/><g fill="#263238"><path d="m4093000 2373000c-6000 5000-14000 3000-18000-3000-5000-5000-3000-14000 3000-18000 13000-10000 34000-23000 58000-38000 57000-36000 131000-83000 155000-118000 3000-4000 7000-6000 12000-5000 2000 0 593000 50000 971000-236000 6000-4000 14000-3000 19000 3000 4000 6000 3000 14000-3000 18000-362000 274000-912000 246000-982000 242000-30000 38000-102000 83000-158000 118000-23000 15000-44000 28000-57000 37000z" fill-rule="nonzero"/><path d="m4127000 2690000c-7000 2000-14000-1000-16000-8000-3000-7000 1000-15000 8000-17000 101000-34000 198000-80000 278000-131000 80000-52000 143000-108000 179000-161000 3000-5000 8000-7000 12000-6000 2000 0 593000 50000 971000-236000 6000-4000 15000-3000 19000 3000s3000 14000-3000 18000c-361000 273000-911000 246000-981000 242000-39000 55000-103000 111000-183000 162000-82000 52000-180000 99000-284000 134000z" fill-rule="nonzero"/><path d="m6384000 1628000c3000 6000 1000 14000-6000 17000-6000 4000-14000 1000-18000-6000-44000-89000-95000-165000-154000-236000-58000-70000-125000-137000-202000-207000-56000-28000-188000-65000-358000-103000-181000-41000-406000-82000-632000-117000-7000-1000-12000-8000-11000-15000s8000-12000 15000-11000c226000 34000 451000 76000 633000 117000 174000 39000 308000 77000 366000 106000 1000 1000 3000 2000 4000 3000 78000 71000 146000 138000 206000 210000 59000 73000 111000 150000 157000 242000z" fill-rule="nonzero"/><path d="m5756000 1212000c6000-5000 14000-5000 19000 1000 5000 5000 5000 14000-1000 19000-16000 15000-32000 31000-46000 49000-15000 17000-28000 36000-40000 55000-23000 38000-41000 79000-54000 122000-12000 44000-19000 88000-19000 133000 0 7000-6000 13000-13000 13000-8000 0-14000-6000-14000-13000 1000-48000 8000-95000 21000-140000s32000-89000 57000-129000c12000-20000 26000-40000 41000-58000s32000-36000 49000-52000z" fill-rule="nonzero"/><path d="m5859000 1317000c5000-6000 13000-6000 19000-2000 5000 5000 6000 13000 1000 19000-6000 7000-11000 14000-17000 21000-5000 8000-10000 16000-15000 23000-16000 26000-29000 54000-38000 83000s-14000 59000-16000 89000c0 7000-6000 13000-14000 13000-7000-1000-13000-7000-12000-14000 2000-33000 7000-65000 17000-96000s23000-61000 40000-89000c6000-8000 11000-16000 17000-24000 5000-8000 11000-16000 18000-23000z" fill-rule="nonzero"/><path d="m3049000 664000c2000-7000 9000-11000 16000-9000 7000 1000 12000 8000 10000 15000-67000 284000 237000 404000 487000 504000 117000 46000 222000 88000 277000 141000 71000 69000 194000 131000 330000 181000 181000 68000 385000 116000 530000 139000 2000 0 3000 1000 5000 1000 237000 146000 864000 417000 866000 417000 2000 1000 4000 3000 5000 5000 88000 97000 215000 390000 290000 722000 56000 251000 84000 525000 44000 755000-1000 7000-8000 12000-15000 10000-8000-1000-13000-8000-11000-15000 39000-226000 12000-496000-44000-744000-74000-327000-197000-614000-282000-709000-43000-19000-633000-274000-865000-417000-146000-23000-351000-71000-532000-139000-140000-52000-265000-115000-340000-187000-50000-49000-154000-90000-268000-136000-259000-103000-575000-228000-503000-534000z" fill-rule="nonzero"/><path d="m5642000 5071000c-15000-13000-31000-26000-46000-39000-118000-99000-244000-205000-410000-307000-279000-172000-702000-287000-1078000-390000-404000-111000-755000-207000-829000-346000-25000-47000-37000-88000-38000-124000-2000-50000 16000-89000 48000-118000 31000-29000 75000-48000 126000-59000 79000-16000 176000-13000 268000 6000 46000 10000 85000 24000 118000 41000 58000 30000 97000 71000 118000 119000 21000 49000 25000 105000 12000 166000-9000 42000-25000 86000-49000 131000-3000 7000-11000 9000-18000 6000-6000-4000-9000-12000-5000-18000 22000-43000 38000-85000 46000-124000 12000-56000 9000-107000-10000-150000s-54000-79000-106000-106000c-31000-16000-68000-29000-111000-39000-89000-18000-182000-22000-257000-6000-47000 10000-87000 27000-114000 52000-26000 25000-41000 57000-40000 98000 1000 32000 12000 69000 35000 112000 69000 130000 415000 224000 813000 333000 378000 104000 803000 220000 1085000 394000 168000 103000 294000 210000 413000 309000 17000 15000 34000 29000 51000 43000-7000 5000-15000 11000-22000 16000z" fill-rule="nonzero"/><path d="m3307000 3765000c-4000 7000-12000 8000-18000 4000-6000-3000-8000-12000-4000-18000 0 0 58000-92000 70000-107000 30000-38000 106000-112000 251000-146000 91000-21000 210000-26000 363000 2000 145000 28000 349000 80000 575000 138000 528000 135000 1179000 302000 1495000 258000 7000-2000 14000 4000 15000 11000s-4000 14000-11000 15000c-321000 45000-976000-122000-1505000-258000-226000-58000-429000-110000-574000-137000-149000-28000-264000-23000-352000-3000-137000 32000-208000 101000-236000 137000-12000 14000-68000 104000-69000 104000z" fill-rule="nonzero"/><path d="m5552000 3894000c-7000-1000-12000-8000-11000-15000s8000-12000 15000-11000c2000 0 173000-99000 339000-351000 85000-128000 167000-297000 221000-512000 2000-7000 9000-11000 16000-9000 7000 1000 11000 9000 10000 16000-55000 218000-139000 389000-225000 520000-172000 261000-362000 362000-365000 362000z" fill-rule="nonzero"/><path d="m4534000 4331000c3000 7000-1000 14000-8000 17000-7000 2000-14000-2000-17000-9000-14000-42000-19000-87000-14000-131000 4000-43000 19000-86000 42000-124000 5000-7000 9000-14000 14000-20000 5000-7000 10000-13000 15000-19000s13000-6000 19000-2000c5000 5000 6000 14000 1000 19000-5000 6000-9000 11000-14000 17000-4000 6000-8000 13000-12000 19000-22000 35000-35000 73000-39000 113000s0 81000 13000 120000z" fill-rule="nonzero"/><path d="m4686000 4360000c2000 7000-2000 15000-9000 17000s-14000-1000-16000-8000c-12000-34000-15000-70000-11000-105000 4000-34000 15000-68000 34000-99000 5000-8000 11000-16000 17000-24000 7000-8000 13000-15000 20000-22000 5000-5000 14000-5000 19000 0 5000 6000 5000 14000 0 19000-7000 6000-13000 13000-18000 20000-5000 6000-11000 13000-15000 21000-17000 27000-27000 57000-31000 88000-3000 31000 0 63000 10000 93000z" fill-rule="nonzero"/><path d="m4099000 2002000c-8000 1000-14000-5000-14000-12000 0-8000 5000-14000 13000-14000 17000-1000 36000-1000 57000-2000 218000-6000 589000-16000 815000-187000 6000-5000 14000-4000 18000 2000 5000 6000 4000 14000-2000 19000-233000 176000-609000 187000-831000 193000-20000 0-39000 1000-56000 1000z" fill-rule="nonzero"/><path d="m3488000 586000c-7000-3000-11000-11000-8000-18000 3000-6000 11000-10000 17000-7000 2000 1000 712000 286000 1230000 349000 8000 1000 13000 7000 12000 15000-1000 7000-8000 12000-15000 11000-522000-63000-1234000-350000-1236000-350000z" fill-rule="nonzero"/><path d="m3486000 585000c-69000-41000-160000-59000-240000-53000-36000 3000-69000 10000-97000 23000-26000 12000-48000 29000-60000 50000-11000 17000-15000 38000-14000 62000 5000 59000 140000 99000 282000 140000 24000 7000 49000 14000 73000 22000 78000 23000 140000 14000 177000-14000 14000-11000 25000-25000 31000-41000 5000-16000 6000-34000 1000-52000-12000-47000-59000-98000-152000-136000zm-242000-80000c85000-6000 182000 14000 254000 56000 101000 42000 152000 100000 167000 154000 6000 24000 5000 47000-3000 68000-7000 20000-20000 39000-39000 53000-43000 32000-113000 44000-201000 18000-24000-7000-48000-15000-72000-22000-151000-44000-295000-86000-301000-164000-2000-29000 4000-55000 17000-76000 15000-27000 41000-47000 72000-61000s68000-23000 106000-26000z" fill-rule="nonzero"/></g></svg>