<svg clip-rule="evenodd" fill-rule="evenodd" height="417" image-rendering="optimizeQuality" shape-rendering="geometricPrecision" text-rendering="geometricPrecision" viewBox="0 0 39387000 25658000" width="640" xmlns="http://www.w3.org/2000/svg"><path d="m174000 13304000c1003000 5283000 6857000 9460000 12104000 8595000 1744000-287000 3536000-615000 4941000 325000 13088000 8757000 24936000-1643000 21597000-16825000-1605000-7300000-9940000-6313000-15220000-2247000-2321000 1787000-4052000 2519000-7043000 2217000-964000-97000-5114000-3088000-9314000-2760000-5256000 411000-7977000 5890000-7065000 10695000z" fill="#94d28d"/><path d="m17170000 22192000 69000-16259000c8000-1457000 1193000-2635000 2650000-2635000h13000l12166000 52000c1459000 6000 2639000 1191000 2639000 2651000v11000l-70000 16381000c-4175000 3760000-10629000 4373000-17418000-169000-16000-11000-32000-21000-49000-32000z" fill="#263238"/><path d="m32052000 4631000-2360000-11000c-319000 6000-575000 267000-575000 587000v5000 428000 7000c0 319000-256000 579000-575000 585000l-4599000-22000c-317000-8000-570000-268000-570000-586000 0-5000 0-10000 0-15000v-427000c0-4000 0-7000 0-11000 0-318000-252000-580000-571000-591000h-830000l-2064000-9000c-1000 0-3000 0-4000 0-1026000 0-1856000 830000-1860000 1855000l-69000 16431000c4932000 3035000 10962000 4174000 15854000 485000l70000-16849000c0-1000 0-2000 0-2000 0-1022000-825000-1853000-1847000-1860000z" fill="#fff"/><path d="m32052000 4631000-2360000-11000c-319000 6000-575000 267000-575000 587000v5000 428000 7000c0 319000-256000 579000-575000 585000l-4599000-22000c-317000-8000-570000-268000-570000-586000 0-5000 0-10000 0-15000v-427000c0-4000 0-7000 0-11000 0-318000-252000-580000-571000-591000h-830000l-2064000-9000c-1000 0-3000 0-4000 0-1026000 0-1858000 830000-1860000 1855000l-16000 3827000 15855000 1000 16000-3756000c0-2000 0-5000 0-7000 0-1022000-825000-1853000-1847000-1860000z" fill="#5cba51"/><path d="m19229000 8962000c-12000 0-24000-5000-32000-14000l-323000-384000c-7000-8000-10000-18000-10000-29000 0-10000 3000-20000 10000-28000l322000-332000c8000-8000 19000-13000 31000-13000 23000 0 42000 19000 42000 43000 0 11000-4000 21000-12000 29000l-292000 305000 299000 354000c6000 7000 9000 17000 9000 27000 0 12000-5000 24000-15000 33000-8000 6000-17000 9000-27000 9000-1000 0-1000 0-2000 0z" fill="#fff"/><path d="m19653000 8586000h-732000c-24000 0-43000-19000-43000-43000 0-23000 19000-42000 43000-42000h732000c24000 0 43000 19000 43000 42000 0 24000-19000 43000-42000 43000z" fill="#fff"/><path d="m27334000 8564000c0 12000-1172000 22000-2615000 22000-1444000 0-2616000-10000-2616000-22000s1174000-25000 2611000-25000 2620000 13000 2620000 25000z" fill="#fff"/><path d="m25912000 9124000c0 12000-854000 22000-1905000 22000-1052000 0-1905000-10000-1905000-22000s853000-22000 1905000-22000 1905000 10000 1905000 22000z" fill="#fff"/><path d="m32229000 8209000c0 59000-47000 106000-106000 106000s-107000-47000-107000-106000 48000-107000 107000-107000 106000 48000 106000 107000z" fill="#fff"/><path d="m32229000 8564000c0 59000-47000 106000-106000 106000s-107000-47000-107000-106000 48000-107000 107000-107000 106000 48000 106000 107000z" fill="#fff"/><path d="m32229000 8919000c0-59000-47000-107000-106000-107000s-107000 48000-107000 107000 48000 106000 107000 106000 106000-47000 106000-106000z" fill="#fff"/><path d="m12133000 21139000s-177000 338000-366000 828000c171000-17000 342000-40000 511000-68000 301000-49000 602000-100000 903000-145000z" fill="#263238"/><path d="m13275000 13395000s-821000 493000-1068000 930000-1559000 3634000-1505000 4158000c55000 523000 1286000 845000 1286000 845000l1287000-1669000-767000-520000 767000-957000z" fill="#5cba51"/><path d="m14600000 12970000-1325000 422000s-602000 5718000-903000 6539000c-195000 574000-324000 1172000-384000 1775000-7000 74000-10000 153000-6000 236000 99000-13000 198000-27000 296000-43000 1744000-287000 3536000-615000 4941000 325000 81000 54000 161000 104000 241000 156000 281000-756000 1073000-2998000 1341000-4965000 328000-2409000 101000-3781000 101000-3781000l-2039000-732000z" fill="#5cba51"/><path d="m18528000 13806000c-58000 59000-876000 601000-1150000 1531000s-574000 1888000-574000 1888000l-1068000 137000 602000 2462000s1287000-137000 1998000-1313000c711000-1177000 1148000-2627000 1148000-2627000s-90000-2980000-956000-2078000z" fill="#5cba51"/><path d="m11988000 19331000s2981000 596000 4062000-687000l-314000-1089000s-1968000 466000-2584000 266000z" fill="#ffbe9d"/><path d="m16102000 17315000s454000-1014000 514000-1027000c60000-12000 930000-320000 930000-320000 13000 35000 20000 73000 20000 110000 0 38000-7000 75000-20000 110000l320000 44000s-47000 193000-153000 220000l113000 100000c-57000 76000-130000 138000-214000 181000-32000 16000-67000 24000-103000 24000s-71000-8000-103000-24000 40000 73000-141000 186000c-180000 113000-487000 281000-487000 281000z" fill="#ffbe9d"/><path d="m17523000 16192000c-184000 89000-377000 164000-573000 223000-79000 29000-159000 51000-221000 85000-56000 26000-102000 70000-131000 124000-52000 95000-71000 162000-80000 160000 3000-62000 21000-122000 50000-176000 30000-63000 79000-115000 140000-147000 74000-33000 150000-62000 227000-85000 190000-76000 388000-139000 588000-184000z" fill="#eb996e"/><path d="m17727000 16449000c-49000 29000-102000 48000-158000 57000-101000 27000-242000 50000-391000 91000-128000 33000-249000 90000-355000 169000-80000 62000-115000 116000-121000 111000-6000-4000 21000-65000 100000-136000 104000-91000 229000-155000 363000-187000 154000-42000 296000-60000 396000-78000 55000-14000 110000-23000 166000-27000z" fill="#eb996e"/><path d="m16925000 16908000c52000-70000 126000-120000 210000-142000 50000-23000 104000-35000 158000-35000 33000 0 65000 4000 96000 12000 0 14000-111000 22000-237000 68000-126000 45000-215000 110000-227000 97000z" fill="#eb996e"/><path d="m15828000 17626000-2497000-699000-743000 811000s2541000 1992000 3702000 1959000z" fill="#ffbe9d"/><path d="m16290000 19697000c-25000 2000-52000 3000-77000 3000-79000 0-158000-8000-235000-24000-278000-59000-549000-152000-805000-275000-656000-295000-1503000-824000-2378000-1479000l-218000-169000-21000-15000 18000-19000 745000-810000 9000-10000h14000l1793000 507000 514000 150000 137000 42000c16000 4000 32000 10000 47000 17000-17000-1000-33000-5000-49000-10000l-138000-34000-518000-139000-1799000-494000 23000-6000-743000 811000v-35000l217000 169000c877000 653000 1719000 1184000 2367000 1487000 253000 124000 520000 221000 795000 286000 43000 10000 87000 18000 130000 24000 32000 5000 65000 8000 98000 10000 25000 3000 50000 7000 74000 13000z" fill="#eb996e"/><g fill="#263238"><path d="m17462000 14779000c-3000 68000-15000 135000-36000 199000-28000 122000-70000 288000-120000 472000-50000 183000-97000 349000-133000 467000-16000 66000-39000 130000-69000 190000 4000-67000 16000-134000 36000-198000 28000-122000 71000-289000 120000-472000 50000-183000 98000-348000 134000-467000 15000-66000 39000-130000 68000-191000z"/><path d="m17347000 18121000c-9000 0-33000-124000-95000-316000-35000-113000-90000-218000-161000-311000-85000-114000-210000-193000-349000-220000-20000-1000-41000-2000-62000-2000-122000 0-243000 18000-360000 51000l-352000 69000c-44000 6000-88000 18000-129000 34000-30000 12000-54000 36000-65000 67000-6000 13000-10000 28000-10000 42000 0 15000 4000 29000 10000 42000 6000 14000-38000-22000-22000-84000 11000-37000 37000-67000 71000-85000 42000-20000 88000-34000 134000-43000l351000-79000c121000-37000 247000-55000 374000-55000 23000 0 46000 0 68000 1000 151000 30000 286000 116000 376000 240000 73000 99000 127000 210000 159000 328000 22000 78000 41000 158000 53000 238000 6000 24000 9000 48000 9000 72000z"/><path d="m17713000 17584000c-74000-131000-173000-246000-291000-338000-203000-143000-413000-169000-410000-180000 16000-3000 32000-4000 49000-4000 29000 0 59000 4000 87000 13000 108000 24000 211000 69000 302000 132000 91000 64000 166000 148000 220000 245000 25000 40000 40000 85000 43000 132000z"/><path d="m19484000 15884000c-2000 18000-7000 36000-14000 53000-13000 39000-29000 84000-49000 148000-46000 133000-109000 316000-186000 540000s-173000 500000-306000 792000c-133000 291000-291000 604000-480000 923000-177000 300000-405000 570000-671000 795000-216000 186000-459000 338000-720000 451000-176000 75000-363000 128000-552000 155000-52000 7000-104000 12000-156000 14000-9000 1000-18000 2000-27000 2000s-18000-1000-27000-2000c0-5000 74000-9000 206000-32000 187000-34000 369000-92000 542000-169000 570000-264000 1047000-698000 1364000-1240000 187000-314000 339000-632000 481000-917000 143000-285000 230000-558000 314000-784000s151000-410000 200000-536000l59000-145000c6000-16000 13000-33000 22000-48000z"/><path d="m18712000 13870000c5000 13000-206000 84000-440000 227000s-402000 286000-411000 276000c225000-250000 523000-426000 851000-503000z"/><path d="m13177000 15932000c8000-156000 33000-312000 73000-464000 25000-154000 65000-308000 119000-454000-8000 156000-32000 312000-72000 464000-25000 155000-65000 307000-120000 454000z"/><path d="m16672000 20407000c-44000 26000-91000 49000-138000 69000-45000 21000-100000 46000-169000 72000-68000 25000-139000 57000-224000 84000-196000 69000-397000 127000-600000 174000-409000 93000-829000 141000-1250000 141000-90000 0-182000-3000-272000-7000-206000-10000-416000-33000-620000-66000-89000-12000-169000-31000-236000-45000s-128000-28000-177000-41000c-50000-11000-99000-26000-147000-44000 51000 4000 102000 13000 152000 26000 48000 10000 107000 23000 177000 33000s148000 28000 236000 38000c174000 25000 385000 45000 618000 55000 77000 3000 156000 5000 234000 5000 429000 0 857000-47000 1276000-139000 201000-43000 403000-98000 598000-162000 85000-25000 159000-55000 226000-79000 67000-23000 123000-44000 169000-63000 47000-22000 97000-39000 147000-51000z"/><path d="m13909000 21658000c-169000-51000-332000-121000-485000-208000 5000-13000 239000 76000 531000 169000 29000 8000 58000 17000 86000 26000-44000 4000-88000 9000-132000 13000z"/></g><path d="m15521000 19552000c-176000-74000-346000-175000-534000-204000-230000-34000-423000 34000-653000 70000-685000 107000-1196000 26000-1842000 0l-36000 195000c285000 221000 643000 292000 1003000 286000 327000-6000 648000-113000 976000-104000 256000 21000 511000 73000 756000 153000 417000 110000 854000 187000 1279000 114000 425000-74000 840000-322000 1015000-715000-346000 235000-756000 360000-1174000 360000-271000 0-540000-53000-790000-155000z" fill-opacity=".090196"/><path d="m13499000 21541000c32000 53000 67000 105000 104000 154000m325000-39000-413000-113000" fill-opacity=".301961"/><path d="m12693000 17719000-963000 34000c-96000 0-186000-84000-227000-222000l-732000-2474000c-70000-236000 31000-499000 196000-508000l1386000-84000c104000-6000 202000 95000 238000 254000l496000 2092000c106000 435000-93000 897000-394000 908000z" fill="#455a64"/><path d="m12015000 16682000c-108000 112000-711000-379000-890000-342000-178000 36000-286000 139000-187000 215000s349000 325000 387000 430000c0 0 19000-439000-28000-368000-48000 71000-127000 184000-12000 234000s-63000 436000 23000 485000c141000 68000 291000 119000 444000 154000 157000 48000 313000 106000 464000 169000 123000 50000 255000 76000 387000 76000 117000 0 232000-20000 342000-59000l121000-42000c187000-65000 312000-242000 312000-440000 0-1000 0-2000 0-4000l-4000-400000 143000-323000-253000-542000-423000-141000 162000 503000c-169000 85000-446000 136000-591000 58000-146000-79000-702000-635000-808000-582000-105000 54000-199000 181000-103000 303000 97000 122000 621000 500000 513000 613000z" fill="#ffbe9d"/><path d="m19275000 15657000c-21000 16000-44000 29000-68000 40000-64000 31000-130000 58000-198000 79000-101000 32000-205000 56000-310000 71000-88000 11000-176000 16000-265000 16000-41000 0-83000-1000-125000-3000-129000-11000-258000-34000-383000-68000-102000-29000-202000-67000-297000-113000-64000-31000-127000-67000-185000-107000-23000-13000-44000-29000-62000-48000 5000-7000 97000 55000 261000 127000 95000 41000 193000 76000 294000 102000 123000 31000 249000 52000 376000 63000 45000 2000 91000 4000 136000 4000 82000 0 164000-5000 245000-14000 103000-12000 205000-32000 305000-60000 172000-48000 272000-97000 276000-89000z" fill="#fff"/><path d="m12710000 15271000c81000 3000 163000 11000 243000 24000h35000c70000 0 140000 3000 209000 10000-66000 23000-135000 35000-205000 35000-98000 0-195000-23000-282000-69000z" fill="#fff"/><path d="m17292000 15248000c0 12000-899000 100000-2010000 197000-1110000 98000-2013000 170000-2014000 153000-1000-16000 899000-100000 2010000-197000 1112000-96000 2013000-165000 2014000-153000z" fill="#fff"/><path d="m16672000 13265000c38000-72000 57000-153000 57000-235000 0-6000 0-12000 0-18000l-102000-3287000c39000-914000-460000-1700000-1377000-1713000h-84000c-852000 37000-1534000 723000-1565000 1575000-29000 793000-52000 1670000-29000 2093000 49000 878000 930000 976000 930000 976000l29000 342000s-68000 592000 620000 795000c528000 155000 1108000-178000 1352000-338000 71000-48000 130000-113000 169000-190000z" fill="#ffbe9d"/><path d="m14498000 12662000c407000-18000 802000-152000 1136000-386000 334000-235000-243000 643000-1122000 602000z" fill="#eb996e"/><path d="m14091000 10303000c1000 68000 56000 121000 124000 121000h1000 6000c65000 0 118000-53000 119000-118000-2000-68000-58000-122000-125000-122000-1000 0-1000 0-1000 0-1000 0-2000 0-4000 0-66000 0-120000 53000-120000 119000z" fill="#263238"/><path d="m13809000 10015000c16000 16000 108000-58000 243000-64000 134000-6000 237000 57000 253000 41000 16000-17000-10000-37000-55000-66000-54000-35000-117000-53000-181000-53000-7000 0-13000 0-20000 0-70000 3000-138000 28000-193000 71000-43000 32000-56000 64000-47000 71000z" fill="#263238"/><path d="m15396000 10303000c2000 68000 57000 121000 125000 121000h1000 6000c65000 0 118000-53000 119000-118000-2000-67000-57000-121000-124000-121000-1000 0-2000 0-2000 0-2000 0-4000 0-5000 0-66000 0-119000 53000-120000 118000z" fill="#263238"/><path d="m15135000 9983000c16000 15000 108000-59000 244000-64000 135000-5000 236000 57000 253000 40000s-10000-37000-55000-66000c-54000-35000-118000-53000-182000-53000-7000 0-13000 0-19000 0-70000 3000-138000 28000-192000 72000-44000 34000-56000 64000-49000 71000z" fill="#263238"/><path d="m14689000 11004000c-72000-19000-146000-29000-221000-29000-34000 0-67000-8000-74000-32000-1000-7000-2000-15000-2000-22000 0-28000 7000-55000 21000-80000l90000-267000c125000-380000 215000-692000 199000-697000s-130000 300000-254000 677000c-30000 93000-58000 182000-84000 268000-13000 26000-19000 55000-19000 84000 0 18000 2000 35000 7000 52000 11000 24000 33000 42000 59000 48000 15000 3000 31000 5000 47000 5000h11000c28000 3000 56000 4000 84000 4000 45000 0 91000-4000 136000-11000z" fill="#263238"/><path d="m15077000 9456000c14000 36000 149000 12000 308000 25000s289000 50000 308000 16000c9000-17000-15000-50000-68000-85000-70000-41000-150000-65000-231000-69000-13000-1000-27000-1000-40000-1000-68000 0-136000 13000-198000 39000-57000 27000-85000 58000-79000 75000z" fill="#263238"/><path d="m13841000 9623000c25000 30000 116000-7000 228000-13000 113000-6000 207000 11000 228000-22000 8000-16000-8000-45000-50000-72000-49000-29000-104000-44000-160000-44000-9000 0-19000 1000-28000 1000-65000 4000-128000 29000-180000 70000-38000 33000-50000 65000-38000 80000z" fill="#263238"/><path d="m16523000 10590000c0-1000 0-2000 0-3000 0-131000 107000-238000 239000-238000h9000c164000 9000 350000 93000 354000 432000 7000 601000-597000 484000-599000 467000-2000-18000-2000-407000-3000-658000z" fill="#ffbe9d"/><path d="m16654000 11020000s10000 8000 28000 15000c13000 5000 26000 8000 40000 8000 13000 0 26000-3000 39000-8000 73000-48000 118000-130000 118000-218000 0-5000 0-10000-1000-16000 0-1000 0-3000 0-4000 0-50000-10000-100000-31000-145000-11000-38000-41000-68000-79000-80000-5000-1000-9000-1000-14000-1000-21000 0-39000 12000-48000 31000-8000 17000-4000 29000-7000 29000-2000 1000-13000-9000-8000-34000 3000-15000 11000-29000 23000-38000 14000-11000 32000-17000 50000-17000 2000 0 5000 0 7000 1000 50000 9000 92000 44000 111000 92000 25000 50000 38000 105000 38000 160000v9000c0 121000-63000 235000-150000 261000-10000 3000-21000 5000-32000 5000-23000 0-45000-7000-63000-20000-20000-15000-23000-29000-21000-30000z" fill="#eb996e"/><path d="m13602000 9569000c-9000 122000-164000-289000-102000-394000-27000 8000-56000 12000-85000 12000-175000 0-317000-142000-317000-317000s142000-317000 317000-317000h1000c-24000-42000-36000-90000-36000-138000 0-78000 32000-153000 88000-206000 53000-37000 114000-60000 178000-70000 0-3000 0-7000 0-10000 0-71000 17000-141000 51000-203000 91000-178000 273000-289000 473000-289000 130000 0 255000 48000 352000 134000 100000-135000 258000-215000 426000-215000 180000 0 348000 92000 445000 244000 79000-49000 170000-74000 262000-74000 210000 0 397000 130000 470000 327000 57000-30000 121000-47000 186000-47000 106000 0 207000 43000 281000 119000 40000 58000 85000 113000 133000 164000 69000 43000 143000 79000 218000 108000 127000 77000 205000 214000 205000 362000 0 104000-38000 203000-107000 281000 87000 63000 163000 140000 224000 228000 40000 56000 61000 124000 61000 192000 0 39000-7000 78000-20000 114000-51000 118000-185000 183000-235000 303000-23000 54000-25000 115000-47000 169000-40000 89000-117000 158000-211000 187000-56000 242000-225000 308000-230000 379000-50000 747000-357000 314000-512000-1262000-36000-370000 99000-559000-193000-786000-38000 47000-74000 96000-107000 147000-95000 112000-234000 177000-380000 177000-135000 0-263000-55000-357000-151000-76000 131000-215000 212000-366000 212000-121000 0-237000-53000-317000-143000-108000 96000-359000 259000-550000 84000-116000 208000-184000 441000-199000 679000z" fill="#263238"/><path d="m14654000 11307000c20000 56000 47000 109000 81000 157000 35000 48000 89000 79000 148000 85000h4000c63000 0 121000-32000 155000-85000 30000-48000 46000-103000 46000-159000 0-7000 0-15000-1000-22000 0-57000-29000-125000-84000-132000-1000 0-2000 0-3000 0-23000 0-45000 5000-66000 15000l-298000 121000z" fill="#eb996e"/><path d="m14771000 11552000c7000 0 15000 1000 23000 1000 46000 0 92000-8000 136000-21000 52000-21000 95000-60000 120000-109000 14000-31000 21000-64000 21000-98000 0-33000-7000-66000-21000-97000-7000-16000-16000-31000-26000-45000-11000-11000-10000-11000-22000-9000-17000 5000-33000 11000-48000 19000l-49000 19000c-64000 26000-121000 48000-169000 67000-51000 24000-105000 41000-161000 49000 44000-36000 94000-65000 147000-85000 46000-22000 103000-49000 169000-77000l48000-21000c18000-8000 36000-16000 54000-22000 7000-3000 15000-4000 22000-4000 8000 0 15000 1000 22000 4000 13000 5000 25000 14000 33000 25000 14000 17000 25000 36000 34000 57000 15000 34000 22000 71000 22000 109000 0 45000-11000 89000-31000 129000-33000 59000-87000 103000-152000 122000-23000 7000-48000 11000-73000 11000-18000 0-37000-2000-55000-6000-31000-5000-46000-15000-44000-18000z" fill="#263238"/><path d="m12270000 11010000-583000-1027000c268000-434000 410000-936000 410000-1446000 0-1522000-1233000-2755000-2754000-2755000-1522000 0-2755000 1233000-2755000 2755000 0 1521000 1233000 2755000 2755000 2755000 609000 0 1203000-203000 1685000-576000z" fill="#fff"/><path d="m28476000 19291000-1427000-824000-1711000 989000v-5128000c0-88000-47000-170000-124000-213000l-2009000-1162000c-66000-38000-149000 11000-149000 87000v6746000c0 203000 109000 391000 285000 494000l2282000 1317000c-176000-102000-285000-291000-285000-494000v-1647000l2282000 1317000 856000-493000c176000-103000 285000-291000 285000-494000 0-205000-109000-393000-285000-495000z" fill="#008b5a" fill-rule="nonzero"/><path d="m25338000 19456000v1647000c0 203000 109000 392000 285000 494000 177000 102000 394000 102000 571000 0l1426000-824000z" fill="#5cba51" fill-rule="nonzero"/><path d="m28761000 17150000c0-204000-109000-392000-285000-494000l-3138000-1812000v2635000l1711000 988000 1427000 824000c176000 102000 285000 290000 285000 495000z" fill="#5cba51" fill-rule="nonzero"/><path d="m9428000 6750000c986000 0 1794000 807000 1794000 1794000 0 986000-808000 1793000-1794000 1793000-987000 0-1794000-807000-1794000-1793000 0-987000 807000-1794000 1794000-1794000z" fill="#5cba51"/><path d="m9167000 8872000 946000-946000c53000-53000 140000-53000 193000 0 53000 53000 53000 140000 0 193000l-1043000 1042000c-53000 53000-139000 53000-192000 0-32000-32000-64000-64000-96000-96000l-425000-425000c-53000-53000-53000-140000 0-193000 53000-53000 139000-53000 192000 0z" fill="#fff"/></svg>