<svg clip-rule="evenodd" fill-rule="evenodd" height="128" image-rendering="optimizeQuality" shape-rendering="geometricPrecision" text-rendering="geometricPrecision" viewBox="0 0 3564200 3564200" width="128" xmlns="http://www.w3.org/2000/svg"><path d="m20 20h3564170v3564170h-3564170z" fill="none"/><path d="m1782070 30c492070 0 937630 199500 1260130 521970 322470 322500 521970 768060 521970 1260130s-199500 937640-521970 1260110c-322500 322460-768060 521960-1260130 521960s-937640-199500-1260100-521960c-322470-322470-521970-768040-521970-1260110s199500-937630 521970-1260130c322460-322470 768030-521970 1260100-521970z" fill="#fff" fill-rule="nonzero"/><path d="m1782070 30c492070 0 937630 199500 1260130 521970 322470 322500 521970 768060 521970 1260130s-199500 937640-521970 1260110c-322500 322460-768060 521960-1260130 521960s-937640-199500-1260100-521960c-322470-322470-521970-768040-521970-1260110s199500-937630 521970-1260130c322460-322470 768030-521970 1260100-521970zm1208200 573900c-309210-309180-736360-500430-1208200-500430-471810 0-899030 191280-1208170 500430-309180 309210-500430 736360-500430 1208200 0 471810 191280 899030 500430 1208180 309140 309140 736360 500420 1208170 500420 471840 0 898990-191240 1208200-500420 309150-309150 500430-736370 500430-1208180 0-471840-191250-898990-500430-1208200z" fill="#e6e7e8" fill-rule="nonzero"/><path d="m724790 2359220v-1154200c0-52660 57450-110150 110100-110150h1894350c52660 0 110140 57490 110140 110150v1154200c0 53540-60710 110140-114550 110140h-1885530c-53840 0-114510-56600-114510-110140zm-70520-1154200v1149790c0 95540 87220 185030 202660 185030h1850280c115430 0 202650-89490 202650-185030v-1149790c0-60030-36270-109460-80570-144120-23060-18060-65220-36510-100050-36510h-1894350c-27920 0-50150 7860-69620 18450-8780 4810-20460 10590-27990 16120-26110 19210-27200 21340-46500 45980-7600 9700-10030 16180-16410 27660-11550 20780-20100 42980-20100 72420zm189440 127770v61660c0 69530 70510 46730 70510 17630v-52890h709260v815000h-709260v-638780c0-32170-70510-51180-70510 17630v643190c0 21700 10290 48470 30850 48470h779770c31410 0 39630-25580 39630-57290v-845840c0-26220-8480-48450-35250-48450h-779750c-22720 0-35250 18350-35250 39670zm440530 533040h-26410c-78830 0-154180-75340-154180-154180 0-30610 1060-56890 16020-85310 5620-10690 25590-38310 33650-45650 135530-123620 338740 25660 266780 187500-23350 52520-81590 97640-135860 97640zm-251100-171800c0 88990 55780 188120 110140 202620-4700 17660-19300 18020-38670 36210-12200 11440-24470 29890-34500 44790-13980 20790-73280 146220-8160 158920 14870 2920 28580-4440 35520-17010 8880-16080-1840-99550 78440-155030 79130-54630 197690-22330 239160 61240 26250 52820 12240 73540 24770 94190 27260 44990 113290 7230 29330-139480-33710-58900-68900-61800-74790-83830 68810-18350 175330-206960 56340-342660-7370-8390-6710-9830-13520-17330l-69190-49760c-158460-74070-334870 49690-334870 207130zm823810-255540h832630c49790 0 49790-70480 0-70480h-823810c-66630 0-54860 70480-8820 70480zm-4400 484600h841440c42910 0 53930-70480-17630-70480h-806190c-69360 0-60640 70480-17620 70480zm-4410-242280h528670c17570 0 32200-24180 28420-41740-4470-20590-22690-28740-46040-28740h-493420c-23320 0-41570 8150-46050 28740-3780 17560 10860 41740 28420 41740zm4410 484570h458160c43610 0 43610-66070 0-66070h-458160c-43610 0-43610 66070 0 66070zm647590-484570h198250c31080 0 51510-70480-17630-70480h-162990c-69130 0-48710 70480-17630 70480z" fill="#5cba51"/></svg>