<svg clip-rule="evenodd" fill-rule="evenodd" height="128" image-rendering="optimizeQuality" shape-rendering="geometricPrecision" text-rendering="geometricPrecision" viewBox="0 0 316670 316670" width="128" xmlns="http://www.w3.org/2000/svg"><path d="m158330 0c43720 0 83310 17720 111960 46380 28650 28650 46370 68230 46370 111950s-17720 83310-46370 111960-68240 46370-111960 46370-83300-17720-111950-46370c-28660-28650-46380-68240-46380-111960s17720-83300 46380-111950c28650-28660 68230-46380 111950-46380z" fill="#fff" fill-rule="nonzero"/><path d="m158330 0c43720 0 83310 17720 111960 46380 28650 28650 46370 68230 46370 111950s-17720 83310-46370 111960-68240 46370-111960 46370-83300-17720-111950-46370c-28660-28650-46380-68240-46380-111960s17720-83300 46380-111950c28650-28660 68230-46380 111950-46380zm107270 51070c-27450-27450-65380-44430-107270-44430s-79810 16980-107260 44430-44430 65380-44430 107260c0 41890 16980 79820 44430 107270 27450 27440 65370 44420 107260 44420s79820-16980 107270-44420c27440-27450 44420-65380 44420-107270 0-41880-16980-79810-44420-107260z" fill="#e6e7e8" fill-rule="nonzero"/><path d="m164410 240980v18990c0 3350-2730 6080-6080 6080-3340 0-6080-2730-6080-6080v-18990zm-38360-6540-9800 16270c-1720 2860-5480 3800-8340 2070-2870-1730-3800-5480-2080-8350l9800-16270zm-29770-25830-16410 9550c-2890 1690-6630 700-8320-2200-1680-2890-690-6630 2200-8310l16420-9550zm-12970-36560-19000 30c-3340 0-6080-2730-6090-6080 0-3340 2730-6080 6080-6090l18990-20zm7100-38250-16400-9580c-2890-1680-3870-5430-2190-8310 1690-2890 5430-3880 8320-2190l16400 9580zm100200 100640 9800 16270c1730 2860 5480 3800 8350 2070 2860-1730 3800-5480 2070-8350l-9800-16270zm29770-25830 16410 9550c2900 1690 6640 700 8320-2200 1680-2890 700-6630-2200-8310l-16410-9550zm12980-36560 18990 30c3350 0 6090-2730 6090-6080 10-3340-2730-6080-6070-6090l-18990-20zm-7100-38250 16400-9580c2890-1680 3870-5430 2180-8310-1680-2890-5430-3880-8320-2190l-16400 9580zm-13590 41500c1590-10660-50-21500-5720-31750-2020-3670-4390-6870-6680-10790-4520-7750-7970-15060-10800-23810-820-2550-1460-6270-2450-9220-2260-6780-9810-5580-8910 2660 200 1830 740 4030 1590 6670 2130 7310 7470 19660 11330 26410 4210 7360 6880 11120 8810 15210 3490 7420 4630 15190 3750 22650-2710 22760-23490 39650-46040 39630-22550 20-43320-16870-46030-39630-890-7460 250-15230 3740-22650 1930-4090 4610-7850 8820-15210 3860-6750 9200-19100 11330-26410 850-2640 1390-4840 1590-6670 890-8240-6660-9440-8920-2660-980 2950-1620 6670-2450 9220-2830 8750-6280 16060-10800 23810-2280 3920-4650 7120-6680 10790-5660 10250-7300 21090-5720 31750 3920 26380 28620 47010 55120 47020 26500-10 51200-20640 55120-47020zm-55120-100630h21180c2920 0 5310-2390 5310-5310 0-2930-2390-5320-5310-5320h-21180-21170c-2920 0-5320 2390-5320 5320 0 2920 2400 5310 5320 5310zm0-14970h10790c2500 0 4550-2050 4550-4550 0-2500-2050-4540-4550-4540h-10790-10790c-2500 0-4540 2040-4540 4540 0 2500 2040 4550 4540 4550zm0 31430h-21840c-2930 0-5320-2390-5320-5320 0-2920 2390-5320 5320-5320h21840 21850c2920 0 5320 2400 5320 5320 0 2930-2400 5320-5320 5320z" fill="#5cba51"/><path d="m0 0h316660v316660h-316660z" fill="none"/></svg>