<svg clip-rule="evenodd" fill-rule="evenodd" height="128" image-rendering="optimizeQuality" shape-rendering="geometricPrecision" text-rendering="geometricPrecision" viewBox="0 0 41560 41560" width="128" xmlns="http://www.w3.org/2000/svg"><path d="m20780 0c5740 0 10930 2330 14690 6090s6090 8950 6090 14690-2330 10930-6090 14690-8950 6090-14690 6090-10930-2330-14690-6090-6090-8950-6090-14690 2330-10930 6090-14690 8950-6090 14690-6090z" fill="#fff" fill-rule="nonzero"/><path d="m10020 26650v-11750c0-530 580-1120 1120-1120h19280c540 0 1120 590 1120 1120v11750c0 550-610 1130-1160 1130h-19200c-550 0-1160-580-1160-1130zm-720-11750v11710c0 970 890 1880 2060 1880h18840c1170 0 2060-910 2060-1880v-11710c0-610-370-1110-820-1460-230-190-660-370-1020-370h-19280c-290 0-510 80-710 180-90 50-210 110-290 170-260 190-270 210-470 470-80 90-100 160-170 280-110 210-200 430-200 730zm1930 1300v630c0 710 710 480 710 180v-540h7220v8300h-7220v-6500c0-330-710-520-710 180v6550c0 220 100 490 310 490h7940c320 0 400-260 400-580v-8620c0-260-80-490-360-490h-7930c-240 0-360 190-360 400zm4480 5430h-270c-800 0-1570-770-1570-1570 0-310 10-580 170-870 50-110 260-390 340-460 1380-1260 3450 260 2710 1910-230 530-830 990-1380 990zm-2550-1750c0 910 560 1920 1120 2070-50 180-200 180-400 360-120 120-250 310-350 460-140 210-740 1490-80 1620 150 30 290-50 360-170 90-170-20-1020 800-1580 800-560 2010-230 2430 620 270 540 130 750 260 960 270 460 1150 70 290-1420-340-600-700-630-760-850 700-190 1790-2110 580-3490-80-90-70-100-140-180l-710-510c-1610-750-3400 510-3400 2110zm8380-2600h8480c500 0 500-720 0-720h-8390c-680 0-560 720-90 720zm-40 4930h8560c440 0 550-710-180-710h-8200c-710 0-620 710-180 710zm-50-2460h5380c180 0 330-250 290-430-40-210-230-290-470-290h-5020c-240 0-420 80-470 290-40 180 110 430 290 430zm50 4930h4660c450 0 450-670 0-670h-4660c-450 0-450 670 0 670zm6590-4930h2020c310 0 520-720-180-720h-1660c-700 0-500 720-180 720z" fill="#5cba51"/><path d="m20780 0c5740 0 10930 2330 14690 6090s6090 8950 6090 14690-2330 10930-6090 14690-8950 6090-14690 6090-10930-2330-14690-6090-6090-8950-6090-14690 2330-10930 6090-14690 8950-6090 14690-6090zm14090 6690c-3610-3600-8590-5830-14090-5830s-10480 2230-14090 5830c-3600 3610-5830 8590-5830 14090s2230 10480 5830 14090c3610 3600 8590 5830 14090 5830s10480-2230 14090-5830c3600-3610 5830-8590 5830-14090s-2230-10480-5830-14090z" fill="#e6e7e8" fill-rule="nonzero"/><path d="m27780 7450c-2690 6140-1090 4550-7240 7240 5960 2620 4610 1250 7230 7220 2660-6040 1220-4570 7250-7220-5900-2590-4700-1460-7240-7240z" fill="#fefefe"/><path d="m27780 8390c-260 610-480 1140-660 1580-580 1410-870 2120-1400 2650-540 540-1250 830-2660 1410-450 190-970 400-1590 660l1340 560c1520 640 2280 960 2860 1530 590 580 910 1360 1560 2900l540 1300c220-520 420-980 590-1380 620-1510 940-2270 1500-2830s1300-860 2760-1470c420-170 900-370 1470-610l-1010-430c-1720-730-2560-1090-3190-1720-620-610-960-1420-1630-3020zm-1350 1300c270-640 590-1420 1010-2380l340-780 340 780c310 720 590 1370 820 1930 640 1500 960 2260 1470 2780 530 530 1340 870 2960 1560 510 220 1100 470 1790 770l780 340-780 340c-900 400-1640 700-2260 960-1370 560-2060 850-2510 1300-460 460-760 1170-1350 2590-240 590-540 1290-930 2180l-340 770-330-770c-370-820-660-1510-900-2090-610-1460-910-2190-1390-2660-470-480-1190-780-2630-1370-570-240-1260-530-2120-910l-780-340 780-340c960-420 1740-740 2370-1000 1330-550 1990-820 2420-1250s700-1090 1240-2410z" fill="#5cba51" fill-rule="nonzero"/><path d="m0 0h41560v41560h-41560z" fill="none"/></svg>