<svg clip-rule="evenodd" fill-rule="evenodd" height="391" image-rendering="optimizeQuality" shape-rendering="geometricPrecision" text-rendering="geometricPrecision" viewBox="0 0 146958000 38290000" width="1500" xmlns="http://www.w3.org/2000/svg"><g fill-rule="nonzero"><path d="m23763000 27846000-6253000-3614000-7505000 4334000v-22480000c0-388000-207000-745000-544000-937000l-8809000-5091000c-290000-167000-652000 46000-652000 377000v29578000c0 892000 477000 1717000 1250000 2168000l10006000 5775000c-774000-446000-1251000-1276000-1251000-2168000v-7222000l10006000 5775000 3752000-2160000c773000-451000 1250000-1276000 1250000-2168000 0-896000-477000-1721000-1250000-2167000z" fill="#008b5a"/><path d="m10005000 28566000v7222000c0 892000 477000 1722000 1251000 2168000 774000 445000 1728000 445000 2502000 0l6253000-3615000z" fill="#5cba51"/><path d="m25013000 18457000c0-892000-477000-1717000-1250000-2167000l-13758000-7942000v11554000l7505000 4330000 6253000 3614000c773000 446000 1250000 1271000 1250000 2167000z" fill="#5cba51"/><path d="m90854000 18212000c-300000-519000-1053000-519000-1353000 0l-6815000 11806000-12000 22000-2301000-3984000c1039000-827000 1705000-2108000 1705000-3541000 0-2504000-2030000-4536000-4534000-4536000h-6098000c-172000 0-312000 140000-312000 318000v11876000c0 176000 140000 316000 312000 316000h2816000c172000 0 312000-140000 312000-316000v-9377000h2607000c925000 0 1722000 708000 1768000 1632000 48000 986000-741000 1804000-1718000 1804000h-1298000c-121000 0-195000 135000-135000 240000l3385000 5861000c55000 94000 159000 156000 270000 156000h3208000c49000 0 91000-22000 119000-55000 49000 34000 109000 55000 176000 55000h3250000c112000 0 215000-62000 271000-156000l3701000-6412000 3700000 6412000c55000 94000 160000 156000 271000 156000h3250000c240000 0 391000-263000 270000-471000zm-40551000 0c-301000-519000-1053000-519000-1354000 0l-6815000 11806000c-120000 208000 30000 471000 271000 471000h3250000c111000 0 214000-62000 271000-156000l3700000-6412000 3701000 6412000c55000 94000 159000 156000 271000 156000h3249000c241000 0 391000-263000 271000-471000zm69720000 7844000c1039000-827000 1705000-2108000 1705000-3541000 0-2504000-2029000-4536000-4534000-4536000h-6097000c-172000 0-313000 140000-313000 318000v11876000c0 176000 141000 316000 313000 316000h2813000c174000 0 314000-140000 314000-316000v-9377000h2608000c925000 0 1721000 708000 1767000 1632000 49000 986000-740000 1804000-1717000 1804000h-1298000c-120000 0-196000 135000-136000 240000l3385000 5861000c55000 94000 159000 156000 271000 156000h3207000c121000 0 196000-128000 135000-238000zm-52999000 0c1038000-827000 1705000-2108000 1705000-3541000 0-2504000-2030000-4536000-4534000-4536000h-6097000c-173000 0-312000 140000-312000 318000v11876000c0 176000 139000 316000 312000 316000h2814000c173000 0 313000-140000 313000-316000v-9377000h2607000c926000 0 1723000 708000 1769000 1632000 48000 986000-742000 1804000-1719000 1804000h-1297000c-121000 0-197000 135000-136000 240000l3384000 5861000c57000 94000 160000 156000 272000 156000h3207000c120000 0 196000-128000 136000-238000zm66177000-8077000h-8756000c-172000 0-312000 140000-312000 318000v11876000c0 176000 140000 316000 312000 316000h8756000c172000 0 312000-140000 312000-316000v-2187000c0-172000-140000-311000-312000-311000h-5629000v-2032000h3127000c173000 0 313000-140000 313000-311000v-2193000c0-171000-140000-311000-313000-311000h-3127000v-2032000h5629000c172000 0 312000-142000 312000-311000v-2188000c0-178000-140000-318000-312000-318000zm10631000 6253000c0 1904000-1643000 3443000-3669000 3443000h-1022000v-6879000h1022000c2026000 0 3669000 1538000 3669000 3436000zm-3127000-6253000h-4690000c-173000 0-313000 140000-313000 318000v11876000c0 176000 140000 316000 313000 316000h4690000c3454000 0 6253000-2798000 6253000-6257000 0-3452000-2799000-6253000-6253000-6253000zm-102636000 9696000h-3362000v-2032000h3362000c560000 0 1015000 457000 1015000 1017000 0 558000-455000 1015000-1015000 1015000zm-3362000-6879000h3048000c561000 0 1016000 454000 1016000 1015000 0 560000-455000 1017000-1016000 1017000h-3048000zm7192000 1015000c0-2115000-1715000-3832000-3830000-3832000h-6488000c-173000 0-314000 140000-314000 318000v11876000c0 176000 141000 316000 314000 316000h6800000c2116000 0 3830000-1714000 3830000-3829000 0-1013000-391000-1930000-1031000-2613000 452000-633000 719000-1402000 719000-2236000zm67165000 5781000-2354000-1364000c-142000-78000-321000-37000-414000 98000-572000 821000-1470000 1349000-2482000 1349000-1726000 0-3126000-1539000-3126000-3443000 0-1898000 1400000-3436000 3126000-3436000 1012000 0 1910000 528000 2482000 1346000 93000 135000 272000 179000 414000 94000l2353000-1358000c160000-89000 207000-302000 99000-450000-1236000-1738000-3295000-2842000-5608000-2755000-3384000 130000-6142000 2867000-6298000 6248000-176000 3770000 2829000 6879000 6558000 6879000 2208000 0 4160000-1088000 5349000-2757000 107000-151000 60000-364000-99000-451000zm11879000 8793000c281000 0 488000-89000 620000-258000 131000-172000 197000-442000 197000-816000s-67000-643000-201000-819000c-135000-176000-340000-263000-616000-263000-279000 0-484000 87000-616000 259000-131000 171000-197000 446000-197000 823000 0 374000 66000 644000 197000 816000 132000 169000 337000 258000 616000 258000zm0 352000c-404000 0-713000-119000-928000-357000-215000-240000-322000-597000-322000-1069000s107000-831000 322000-1073000 524000-363000 928000-363000c405000 0 715000 121000 929000 363000 217000 242000 325000 601000 325000 1073000 0 468000-108000 825000-325000 1063000-214000 244000-524000 363000-929000 363000zm-3438000-2474000h-870000v-352000h2173000v352000h-874000v2437000h-429000zm-2433000 2437000h429000v-2788000h-429000zm-2666000-311000c172000 0 320000-20000 444000-61000 123000-41000 224000-103000 303000-192000 79000-82000 138000-197000 175000-331000 38000-140000 57000-307000 57000-499000s-19000-352000-57000-487000c-37000-135000-96000-250000-175000-339000-79000-82000-180000-148000-303000-185000-124000-41000-272000-62000-444000-62000-63000 0-136000 5000-217000 10000-82000 4000-162000 11000-239000 15000v2095000c84000 16000 162000 21000 232000 32000 68000 4000 144000 4000 224000 4000zm-144000 353000c-148000 0-288000-5000-421000-17000-133000-4000-239000-20000-317000-36000v-2766000c150000-16000 300000-28000 451000-32000 149000-5000 274000-9000 377000-9000 508000 0 880000 114000 1118000 340000 237000 233000 354000 592000 354000 1084000 0 254000-29000 466000-89000 649000-60000 181000-153000 332000-279000 446000-126000 119000-288000 201000-486000 258000-198000 58000-434000 83000-708000 83000zm-3122000-3084000 272000-560000h439000l-390000 585000zm-738000 253000h1845000v347000h-1416000v861000h1311000v347000h-1311000v887000h1451000v347000h-1880000zm-2493000 1456000c146000 0 269000-8000 371000-29000 102000-27000 184000-57000 246000-105000 63000-41000 109000-104000 137000-176000 30000-73000 45000-160000 45000-263000 0-105000-15000-187000-45000-266000-28000-73000-74000-130000-139000-176000-64000-40000-146000-77000-248000-98000s-224000-32000-367000-32000c-61000 0-128000 0-202000 7000-74000 4000-137000 14000-190000 18000v1084000c35000 11000 90000 23000 162000 28000 73000 4000 149000 8000 230000 8000zm257000 327000c-99000 5000-203000 12000-313000 12000-44000 0-97000 0-161000-7000-63000-5000-122000-9000-175000-9000v1010000h-429000v-2768000c256000-37000 502000-57000 738000-57000 231000 0 430000 16000 594000 53000 167000 36000 303000 93000 412000 166000 108000 71000 186000 164000 236000 284000 51000 114000 76000 254000 76000 416000 0 425000-198000 699000-595000 823000l692000 1083000h-474000zm-2905000 1043000c-866000 0-1299000-471000-1299000-1420000 0-493000 106000-857000 319000-1088000 211000-240000 534000-359000 965000-359000 87000 0 185000 5000 292000 21000 107000 11000 219000 25000 337000 48000v356000c-128000-20000-238000-37000-329000-48000-92000-9000-176000-14000-251000-14000-158000 0-293000 21000-406000 62000-114000 37000-206000 103000-279000 185000-73000 89000-126000 204000-161000 339000-33000 135000-50000 300000-50000 492000 0 379000 69000 649000 207000 816000 138000 164000 361000 247000 667000 247000 39000 0 86000 0 141000-5000 54000 0 109000-5000 165000-9000 57000-7000 111000-11000 163000-21000 51000-11000 95000-16000 133000-27000v352000c-88000 23000-188000 41000-301000 53000-114000 15000-218000 20000-313000 20000zm-5897000-2826000h1845000v347000h-1417000v861000h1312000v347000h-1312000v887000h1450000v347000h-1878000zm-2667000 2478000c173000 0 321000-20000 445000-61000 122000-41000 223000-103000 303000-192000 78000-82000 137000-197000 175000-331000 38000-140000 57000-307000 57000-499000s-19000-352000-57000-487000-97000-250000-175000-339000c-80000-82000-181000-148000-303000-185000-124000-41000-272000-62000-445000-62000-62000 0-135000 5000-217000 10000-81000 4000-161000 11000-238000 15000v2095000c84000 16000 161000 21000 231000 32000 69000 4000 144000 4000 224000 4000zm-143000 353000c-148000 0-289000-5000-422000-17000-133000-4000-239000-20000-316000-36000v-2766000c151000-16000 300000-28000 450000-32000 149000-5000 276000-9000 379000-9000 507000 0 878000 114000 1116000 340000 237000 233000 356000 592000 356000 1084000 0 254000-30000 466000-90000 649000-61000 181000-154000 332000-279000 446000-126000 119000-287000 201000-486000 258000-199000 58000-434000 83000-708000 83000zm-4139000-1171000-301000-845000-170000-504000h-45000l-170000 504000-297000 845000zm-1789000 1104000 976000-2764000h643000l975000 2764000v25000h-421000l-275000-777000h-1205000l-275000 777000h-418000zm-3186000-2764000h452000l647000 1825000 178000 555000h33000l178000-555000 651000-1825000h441000l-998000 2789000h-576000zm-1514000 2789000h429000v-2788000h-429000zm-2437000-2437000h-870000v-352000h2173000v352000h-873000v2437000h-430000zm-2237000 1308000-301000-845000-169000-504000h-46000l-168000 504000-299000 845000zm-1789000 1104000 975000-2764000h645000l975000 2764000v25000h-422000l-275000-777000h-1204000l-276000 777000h-418000zm-2195000-1308000c145000 0 269000-8000 371000-29000 102000-27000 183000-57000 246000-105000 63000-41000 108000-104000 138000-176000 29000-73000 43000-160000 43000-263000 0-105000-14000-187000-43000-266000-30000-73000-76000-130000-140000-176000-64000-40000-147000-77000-248000-98000-103000-21000-224000-32000-367000-32000-60000 0-128000 0-202000 7000-74000 4000-138000 14000-189000 18000v1084000c34000 11000 88000 23000 161000 28000 73000 4000 149000 8000 230000 8000zm256000 327000c-98000 5000-203000 12000-313000 12000-43000 0-96000 0-161000-7000-62000-5000-122000-9000-173000-9000v1010000h-430000v-2768000c255000-37000 502000-57000 738000-57000 231000 0 429000 16000 595000 53000 165000 36000 303000 93000 410000 166000 108000 71000 188000 164000 237000 284000 51000 114000 76000 254000 76000 416000 0 425000-198000 699000-595000 823000l693000 1083000h-475000zm-4200000-1783000h1846000v347000h-1417000v861000h1312000v347000h-1312000v887000h1451000v347000h-1880000zm-2421000 1582000c146000 0 269000-11000 370000-36000 102000-21000 185000-57000 248000-110000 63000-50000 108000-119000 137000-197000 29000-82000 43000-180000 43000-295000 0-114000-14000-207000-43000-290000-29000-77000-76000-146000-140000-196000-63000-48000-145000-90000-246000-111000-100000-25000-223000-36000-369000-36000-65000 0-135000 0-207000 7000-73000 4000-134000 14000-185000 18000v1210000c43000 9000 102000 21000 177000 25000 76000 7000 147000 11000 215000 11000zm-821000-1561000c258000-37000 504000-57000 738000-57000 460000 0 794000 78000 1004000 233000s314000 405000 314000 747000c0 337000-104000 586000-314000 741000-210000 161000-538000 238000-985000 238000-50000 0-103000 0-157000-4000-53000 0-110000 0-171000-5000v875000h-429000zm-2505000 2453000c281000 0 488000-89000 620000-258000 131000-172000 198000-442000 198000-816000s-67000-643000-201000-819000-340000-263000-617000-263000c-278000 0-483000 87000-615000 259000-132000 171000-198000 446000-198000 823000 0 374000 66000 644000 198000 816000 132000 169000 337000 258000 615000 258000zm0 352000c-404000 0-713000-119000-928000-357000-215000-240000-322000-597000-322000-1069000s107000-831000 322000-1073000 524000-363000 928000-363000c405000 0 715000 121000 931000 363000s324000 601000 324000 1073000c0 468000-108000 825000-324000 1063000-216000 244000-526000 363000-931000 363000zm-3619000-352000c282000 0 488000-89000 619000-258000 133000-172000 198000-442000 198000-816000s-67000-643000-201000-819000-339000-263000-616000-263000c-279000 0-483000 87000-615000 259000-132000 171000-198000 446000-198000 823000 0 374000 66000 644000 198000 816000 132000 169000 336000 258000 615000 258000zm0 352000c-403000 0-714000-119000-927000-357000-216000-240000-323000-597000-323000-1069000s107000-831000 323000-1073000c213000-242000 524000-363000 927000-363000 404000 0 714000 121000 930000 363000 217000 242000 325000 601000 325000 1073000 0 468000-108000 825000-325000 1063000-216000 244000-526000 363000-930000 363000zm-2874000 0c-866000 0-1298000-471000-1298000-1420000 0-493000 106000-857000 318000-1088000 212000-240000 534000-359000 966000-359000 87000 0 184000 5000 292000 21000 106000 11000 219000 25000 337000 48000v356000c-129000-20000-238000-37000-330000-48000-92000-9000-175000-14000-250000-14000-158000 0-294000 21000-408000 62000-112000 37000-204000 103000-278000 185000-73000 89000-126000 204000-160000 339000-33000 135000-51000 300000-51000 492000 0 379000 69000 649000 208000 816000 138000 164000 359000 247000 666000 247000 40000 0 87000 0 141000-5000 54000 0 110000-5000 166000-9000 56000-7000 111000-11000 163000-21000 50000-11000 95000-16000 133000-27000v352000c-88000 23000-189000 41000-301000 53000-114000 15000-218000 20000-314000 20000z" fill="#005247"/></g></svg>